# MagicaVoxel @ Ephtracy

# group
o 

# material
mtllib basicUpgraded1-2.mtl
usemtl palette

# normals
vn -1 0 0
vn 1 0 0
vn 0 0 1
vn 0 0 -1
vn 0 -1 0
vn 0 1 0

# texcoords
vt 0.892578 0.5
vt 0.900391 0.5

# verts
v -1.2 0 0.4
v -1.2 0 -0.8
v -1.2 0.2 0.4
v -1.2 0.2 -0.8
v -0.9 0 0.5
v -0.9 0 0.4
v -0.9 0 -0.8
v -0.9 0 -0.9
v -0.9 0.2 0.5
v -0.9 0.2 0.4
v -0.9 0.2 -0.8
v -0.9 0.2 -0.9
v -0.9 0.3 -0.1
v -0.9 0.3 -0.3
v -0.9 2.6 -0.1
v -0.9 2.6 -0.3
v -0.9 2.7 0.5
v -0.9 2.7 -0.9
v -0.8 0 0.6
v -0.8 0 0.5
v -0.8 0 -0.9
v -0.8 0 -1
v -0.8 0.2 0.6
v -0.8 0.2 0.5
v -0.8 0.2 -0.9
v -0.8 0.2 -1
v -0.8 0.3 -0.1
v -0.8 0.3 -0.3
v -0.8 2.6 -0.1
v -0.8 2.6 -0.3
v -0.8 2.7 0.6
v -0.8 2.7 0.5
v -0.8 2.7 -0.9
v -0.8 2.7 -1
v -0.8 2.8 0.5
v -0.8 2.8 -0.9
v -0.7 0 0.9
v -0.7 0 0.6
v -0.7 0 -1
v -0.7 0 -1.3
v -0.7 0.2 0.9
v -0.7 0.2 0.6
v -0.7 0.2 -1
v -0.7 0.2 -1.3
v -0.7 2.8 0.4
v -0.7 2.8 -0.8
v -0.7 2.9 0.4
v -0.7 2.9 -0.8
v -0.5 2.7 0.2
v -0.5 2.7 -0.6
v -0.5 2.8 0.2
v -0.5 2.8 -0.6
v 0 0.3 0.6
v 0 0.3 0.5
v 0 0.3 -0.9
v 0 0.3 -1
v 0 2.6 0.6
v 0 2.6 0.5
v 0 2.6 -0.9
v 0 2.6 -1
v 0.0999999 2.7 -0.8
v 0.0999999 2.7 -0.9
v 0.0999999 2.8 -0.8
v 0.0999999 2.8 -0.9
v 0.2 2.8 -0.7
v 0.2 2.8 -0.8
v 0.2 2.9 -0.7
v 0.2 2.9 -0.8
v 0.4 2.7 0.3
v 0.4 2.7 -0.7
v 0.4 2.9 0.3
v 0.4 2.9 -0.7
v -0.6 2.7 0.3
v -0.6 2.7 -0.7
v -0.6 2.9 0.3
v -0.6 2.9 -0.7
v -0.4 2.8 -0.7
v -0.4 2.8 -0.8
v -0.4 2.9 -0.7
v -0.4 2.9 -0.8
v -0.3 2.7 -0.8
v -0.3 2.7 -0.9
v -0.3 2.8 -0.8
v -0.3 2.8 -0.9
v -0.2 0.3 0.6
v -0.2 0.3 0.5
v -0.2 0.3 -0.9
v -0.2 0.3 -1
v -0.2 2.6 0.6
v -0.2 2.6 0.5
v -0.2 2.6 -0.9
v -0.2 2.6 -1
v 0.3 2.7 0.2
v 0.3 2.7 -0.6
v 0.3 2.8 0.2
v 0.3 2.8 -0.6
v 0.5 0 0.9
v 0.5 0 0.6
v 0.5 0 -1
v 0.5 0 -1.3
v 0.5 0.2 0.9
v 0.5 0.2 0.6
v 0.5 0.2 -1
v 0.5 0.2 -1.3
v 0.5 2.8 0.4
v 0.5 2.8 -0.8
v 0.5 2.9 0.4
v 0.5 2.9 -0.8
v 0.6 0 0.6
v 0.6 0 0.5
v 0.6 0 -0.9
v 0.6 0 -1
v 0.6 0.2 0.6
v 0.6 0.2 0.5
v 0.6 0.2 -0.9
v 0.6 0.2 -1
v 0.6 0.3 -0.1
v 0.6 0.3 -0.3
v 0.6 2.6 -0.1
v 0.6 2.6 -0.3
v 0.6 2.7 0.6
v 0.6 2.7 0.5
v 0.6 2.7 -0.9
v 0.6 2.7 -1
v 0.6 2.8 0.5
v 0.6 2.8 -0.9
v 0.7 0 0.5
v 0.7 0 0.4
v 0.7 0 -0.8
v 0.7 0 -0.9
v 0.7 0.2 0.5
v 0.7 0.2 0.4
v 0.7 0.2 -0.8
v 0.7 0.2 -0.9
v 0.7 0.3 -0.1
v 0.7 0.3 -0.3
v 0.7 2.6 -0.1
v 0.7 2.6 -0.3
v 0.7 2.7 0.5
v 0.7 2.7 -0.9
v 1 0 0.4
v 1 0 -0.8
v 1 0.2 0.4
v 1 0.2 -0.8
v -0.7 0 0.9
v -0.7 0.2 0.9
v 0.5 0 0.9
v 0.5 0.2 0.9
v -0.8 0 0.6
v -0.8 0.2 0.6
v -0.8 2.7 0.6
v -0.7 0 0.6
v -0.7 0.2 0.6
v -0.2 0.3 0.6
v -0.2 2.6 0.6
v 0 0.3 0.6
v 0 2.6 0.6
v 0.5 0 0.6
v 0.5 0.2 0.6
v 0.6 0 0.6
v 0.6 0.2 0.6
v 0.6 2.7 0.6
v -0.9 0 0.5
v -0.9 0.2 0.5
v -0.9 2.7 0.5
v -0.8 0 0.5
v -0.8 0.2 0.5
v -0.8 2.7 0.5
v -0.8 2.8 0.5
v -0.2 0.3 0.5
v -0.2 2.6 0.5
v 0 0.3 0.5
v 0 2.6 0.5
v 0.6 0 0.5
v 0.6 0.2 0.5
v 0.6 2.7 0.5
v 0.6 2.8 0.5
v 0.7 0 0.5
v 0.7 0.2 0.5
v 0.7 2.7 0.5
v -1.2 0 0.4
v -1.2 0.2 0.4
v -0.9 0 0.4
v -0.9 0.2 0.4
v -0.7 2.8 0.4
v -0.7 2.9 0.4
v 0.5 2.8 0.4
v 0.5 2.9 0.4
v 0.7 0 0.4
v 0.7 0.2 0.4
v 1 0 0.4
v 1 0.2 0.4
v -0.5 2.7 0.2
v -0.5 2.8 0.2
v 0.3 2.7 0.2
v 0.3 2.8 0.2
v -0.9 0.3 -0.3
v -0.9 2.6 -0.3
v -0.8 0.3 -0.3
v -0.8 2.6 -0.3
v 0.6 0.3 -0.3
v 0.6 2.6 -0.3
v 0.7 0.3 -0.3
v 0.7 2.6 -0.3
v -0.6 2.7 -0.7
v -0.6 2.9 -0.7
v -0.4 2.8 -0.7
v -0.4 2.9 -0.7
v 0.2 2.8 -0.7
v 0.2 2.9 -0.7
v 0.4 2.7 -0.7
v 0.4 2.9 -0.7
v -0.6 2.7 0.3
v -0.6 2.9 0.3
v 0.4 2.7 0.3
v 0.4 2.9 0.3
v -0.9 0.3 -0.1
v -0.9 2.6 -0.1
v -0.8 0.3 -0.1
v -0.8 2.6 -0.1
v 0.6 0.3 -0.1
v 0.6 2.6 -0.1
v 0.7 0.3 -0.1
v 0.7 2.6 -0.1
v -0.5 2.7 -0.6
v -0.5 2.8 -0.6
v 0.3 2.7 -0.6
v 0.3 2.8 -0.6
v -1.2 0 -0.8
v -1.2 0.2 -0.8
v -0.9 0 -0.8
v -0.9 0.2 -0.8
v -0.7 2.8 -0.8
v -0.7 2.9 -0.8
v -0.4 2.8 -0.8
v -0.4 2.9 -0.8
v -0.3 2.7 -0.8
v -0.3 2.8 -0.8
v 0.0999999 2.7 -0.8
v 0.0999999 2.8 -0.8
v 0.2 2.8 -0.8
v 0.2 2.9 -0.8
v 0.5 2.8 -0.8
v 0.5 2.9 -0.8
v 0.7 0 -0.8
v 0.7 0.2 -0.8
v 1 0 -0.8
v 1 0.2 -0.8
v -0.9 0 -0.9
v -0.9 0.2 -0.9
v -0.9 2.7 -0.9
v -0.8 0 -0.9
v -0.8 0.2 -0.9
v -0.8 2.7 -0.9
v -0.8 2.8 -0.9
v -0.3 2.7 -0.9
v -0.3 2.8 -0.9
v -0.2 0.3 -0.9
v -0.2 2.6 -0.9
v 0 0.3 -0.9
v 0 2.6 -0.9
v 0.0999999 2.7 -0.9
v 0.0999999 2.8 -0.9
v 0.6 0 -0.9
v 0.6 0.2 -0.9
v 0.6 2.7 -0.9
v 0.6 2.8 -0.9
v 0.7 0 -0.9
v 0.7 0.2 -0.9
v 0.7 2.7 -0.9
v -0.8 0 -1
v -0.8 0.2 -1
v -0.8 2.7 -1
v -0.7 0 -1
v -0.7 0.2 -1
v -0.2 0.3 -1
v -0.2 2.6 -1
v 0 0.3 -1
v 0 2.6 -1
v 0.5 0 -1
v 0.5 0.2 -1
v 0.6 0 -1
v 0.6 0.2 -1
v 0.6 2.7 -1
v -0.7 0 -1.3
v -0.7 0.2 -1.3
v 0.5 0 -1.3
v 0.5 0.2 -1.3
v -0.7 0 0.9
v 0.5 0 0.9
v -0.8 0 0.6
v -0.7 0 0.6
v 0.5 0 0.6
v 0.6 0 0.6
v -0.9 0 0.5
v -0.8 0 0.5
v 0.6 0 0.5
v 0.7 0 0.5
v -1.2 0 0.4
v -0.9 0 0.4
v 0.7 0 0.4
v 1 0 0.4
v -1.2 0 -0.8
v -0.9 0 -0.8
v 0.7 0 -0.8
v 1 0 -0.8
v -0.9 0 -0.9
v -0.8 0 -0.9
v 0.6 0 -0.9
v 0.7 0 -0.9
v -0.8 0 -1
v -0.7 0 -1
v 0.5 0 -1
v 0.6 0 -1
v -0.7 0 -1.3
v 0.5 0 -1.3
v -0.2 2.6 0.6
v 0 2.6 0.6
v -0.2 2.6 0.5
v 0 2.6 0.5
v -0.9 2.6 -0.1
v -0.8 2.6 -0.1
v 0.6 2.6 -0.1
v 0.7 2.6 -0.1
v -0.9 2.6 -0.3
v -0.8 2.6 -0.3
v 0.6 2.6 -0.3
v 0.7 2.6 -0.3
v -0.2 2.6 -0.9
v 0 2.6 -0.9
v -0.2 2.6 -1
v 0 2.6 -1
v -0.7 0.2 0.9
v 0.5 0.2 0.9
v -0.7 0.2 0.6
v 0.5 0.2 0.6
v -1.2 0.2 0.4
v -0.9 0.2 0.4
v 0.7 0.2 0.4
v 1 0.2 0.4
v -1.2 0.2 -0.8
v -0.9 0.2 -0.8
v 0.7 0.2 -0.8
v 1 0.2 -0.8
v -0.7 0.2 -1
v 0.5 0.2 -1
v -0.7 0.2 -1.3
v 0.5 0.2 -1.3
v -0.2 0.3 0.6
v 0 0.3 0.6
v -0.2 0.3 0.5
v 0 0.3 0.5
v -0.9 0.3 -0.1
v -0.8 0.3 -0.1
v 0.6 0.3 -0.1
v 0.7 0.3 -0.1
v -0.9 0.3 -0.3
v -0.8 0.3 -0.3
v 0.6 0.3 -0.3
v 0.7 0.3 -0.3
v -0.2 0.3 -0.9
v 0 0.3 -0.9
v -0.2 0.3 -1
v 0 0.3 -1
v -0.8 2.7 0.6
v 0.6 2.7 0.6
v -0.9 2.7 0.5
v -0.8 2.7 0.5
v 0.6 2.7 0.5
v 0.7 2.7 0.5
v -0.6 2.7 0.3
v 0.4 2.7 0.3
v -0.5 2.7 0.2
v 0.3 2.7 0.2
v -0.5 2.7 -0.6
v 0.3 2.7 -0.6
v -0.6 2.7 -0.7
v 0.4 2.7 -0.7
v -0.3 2.7 -0.8
v 0.0999999 2.7 -0.8
v -0.9 2.7 -0.9
v -0.8 2.7 -0.9
v -0.3 2.7 -0.9
v 0.0999999 2.7 -0.9
v 0.6 2.7 -0.9
v 0.7 2.7 -0.9
v -0.8 2.7 -1
v 0.6 2.7 -1
v -0.8 2.8 0.5
v 0.6 2.8 0.5
v -0.7 2.8 0.4
v 0.5 2.8 0.4
v -0.5 2.8 0.2
v 0.3 2.8 0.2
v -0.5 2.8 -0.6
v 0.3 2.8 -0.6
v -0.4 2.8 -0.7
v 0.2 2.8 -0.7
v -0.7 2.8 -0.8
v -0.4 2.8 -0.8
v -0.3 2.8 -0.8
v 0.0999999 2.8 -0.8
v 0.2 2.8 -0.8
v 0.5 2.8 -0.8
v -0.8 2.8 -0.9
v -0.3 2.8 -0.9
v 0.0999999 2.8 -0.9
v 0.6 2.8 -0.9
v -0.7 2.9 0.4
v 0.5 2.9 0.4
v -0.6 2.9 0.3
v 0.4 2.9 0.3
v -0.6 2.9 -0.7
v -0.4 2.9 -0.7
v 0.2 2.9 -0.7
v 0.4 2.9 -0.7
v -0.7 2.9 -0.8
v -0.4 2.9 -0.8
v 0.2 2.9 -0.8
v 0.5 2.9 -0.8

# faces
f 3/2/1 2/2/1 1/2/1
f 4/2/1 2/2/1 3/2/1
f 9/2/1 6/2/1 5/2/1
f 10/2/1 6/2/1 9/2/1
f 11/2/1 8/2/1 7/2/1
f 12/2/1 8/2/1 11/2/1
f 13/1/1 10/1/1 9/1/1
f 13/1/1 11/1/1 10/1/1
f 13/1/1 12/1/1 11/1/1
f 14/1/1 12/1/1 13/1/1
f 15/1/1 13/1/1 9/1/1
f 16/1/1 12/1/1 14/1/1
f 17/1/1 15/1/1 9/1/1
f 17/1/1 16/1/1 15/1/1
f 18/1/1 12/1/1 16/1/1
f 18/1/1 16/1/1 17/1/1
f 23/2/1 20/2/1 19/2/1
f 24/2/1 20/2/1 23/2/1
f 25/2/1 22/2/1 21/2/1
f 26/2/1 22/2/1 25/2/1
f 29/2/1 28/2/1 27/2/1
f 30/2/1 28/2/1 29/2/1
f 31/1/1 24/1/1 23/1/1
f 32/1/1 24/1/1 31/1/1
f 33/1/1 26/1/1 25/1/1
f 34/1/1 26/1/1 33/1/1
f 35/2/1 33/2/1 32/2/1
f 36/2/1 33/2/1 35/2/1
f 41/2/1 38/2/1 37/2/1
f 42/2/1 38/2/1 41/2/1
f 43/2/1 40/2/1 39/2/1
f 44/2/1 40/2/1 43/2/1
f 47/2/1 46/2/1 45/2/1
f 48/2/1 46/2/1 47/2/1
f 51/2/1 50/2/1 49/2/1
f 52/2/1 50/2/1 51/2/1
f 57/1/1 54/1/1 53/1/1
f 58/1/1 54/1/1 57/1/1
f 59/1/1 56/1/1 55/1/1
f 60/1/1 56/1/1 59/1/1
f 63/2/1 62/2/1 61/2/1
f 64/2/1 62/2/1 63/2/1
f 67/2/1 66/2/1 65/2/1
f 68/2/1 66/2/1 67/2/1
f 71/2/1 70/2/1 69/2/1
f 72/2/1 70/2/1 71/2/1
f 73/2/2 74/2/2 75/2/2
f 75/2/2 74/2/2 76/2/2
f 77/2/2 78/2/2 79/2/2
f 79/2/2 78/2/2 80/2/2
f 81/2/2 82/2/2 83/2/2
f 83/2/2 82/2/2 84/2/2
f 85/1/2 86/1/2 89/1/2
f 89/1/2 86/1/2 90/1/2
f 87/1/2 88/1/2 91/1/2
f 91/1/2 88/1/2 92/1/2
f 93/2/2 94/2/2 95/2/2
f 95/2/2 94/2/2 96/2/2
f 97/2/2 98/2/2 101/2/2
f 101/2/2 98/2/2 102/2/2
f 99/2/2 100/2/2 103/2/2
f 103/2/2 100/2/2 104/2/2
f 105/2/2 106/2/2 107/2/2
f 107/2/2 106/2/2 108/2/2
f 109/2/2 110/2/2 113/2/2
f 113/2/2 110/2/2 114/2/2
f 111/2/2 112/2/2 115/2/2
f 115/2/2 112/2/2 116/2/2
f 117/2/2 118/2/2 119/2/2
f 119/2/2 118/2/2 120/2/2
f 113/1/2 114/1/2 121/1/2
f 121/1/2 114/1/2 122/1/2
f 115/1/2 116/1/2 123/1/2
f 123/1/2 116/1/2 124/1/2
f 122/2/2 123/2/2 125/2/2
f 125/2/2 123/2/2 126/2/2
f 127/2/2 128/2/2 131/2/2
f 131/2/2 128/2/2 132/2/2
f 129/2/2 130/2/2 133/2/2
f 133/2/2 130/2/2 134/2/2
f 131/1/2 132/1/2 135/1/2
f 132/1/2 133/1/2 135/1/2
f 133/1/2 134/1/2 135/1/2
f 135/1/2 134/1/2 136/1/2
f 131/1/2 135/1/2 137/1/2
f 136/1/2 134/1/2 138/1/2
f 131/1/2 137/1/2 139/1/2
f 137/1/2 138/1/2 139/1/2
f 138/1/2 134/1/2 140/1/2
f 139/1/2 138/1/2 140/1/2
f 141/2/2 142/2/2 143/2/2
f 143/2/2 142/2/2 144/2/2
f 147/2/3 146/2/3 145/2/3
f 148/2/3 146/2/3 147/2/3
f 152/2/3 150/2/3 149/2/3
f 153/1/3 151/1/3 150/1/3
f 153/2/3 150/2/3 152/2/3
f 154/1/3 151/1/3 153/1/3
f 155/1/3 151/1/3 154/1/3
f 156/1/3 154/1/3 153/1/3
f 157/1/3 151/1/3 155/1/3
f 159/1/3 156/1/3 153/1/3
f 159/1/3 157/1/3 156/1/3
f 160/2/3 159/2/3 158/2/3
f 161/1/3 157/1/3 159/1/3
f 161/2/3 159/2/3 160/2/3
f 162/1/3 151/1/3 157/1/3
f 162/1/3 157/1/3 161/1/3
f 166/2/3 164/2/3 163/2/3
f 167/1/3 165/1/3 164/1/3
f 167/2/3 164/2/3 166/2/3
f 168/1/3 165/1/3 167/1/3
f 172/2/3 171/2/3 170/2/3
f 173/2/3 171/2/3 172/2/3
f 176/2/3 169/2/3 168/2/3
f 177/2/3 169/2/3 176/2/3
f 178/2/3 175/2/3 174/2/3
f 179/1/3 176/1/3 175/1/3
f 179/2/3 175/2/3 178/2/3
f 180/1/3 176/1/3 179/1/3
f 183/2/3 182/2/3 181/2/3
f 184/2/3 182/2/3 183/2/3
f 187/2/3 186/2/3 185/2/3
f 188/2/3 186/2/3 187/2/3
f 191/2/3 190/2/3 189/2/3
f 192/2/3 190/2/3 191/2/3
f 195/2/3 194/2/3 193/2/3
f 196/2/3 194/2/3 195/2/3
f 199/1/3 198/1/3 197/1/3
f 200/1/3 198/1/3 199/1/3
f 203/1/3 202/1/3 201/1/3
f 204/1/3 202/1/3 203/1/3
f 207/2/3 206/2/3 205/2/3
f 208/2/3 206/2/3 207/2/3
f 209/2/3 207/2/3 205/2/3
f 211/2/3 209/2/3 205/2/3
f 211/2/3 210/2/3 209/2/3
f 212/2/3 210/2/3 211/2/3
f 213/2/4 214/2/4 215/2/4
f 215/2/4 214/2/4 216/2/4
f 217/1/4 218/1/4 219/1/4
f 219/1/4 218/1/4 220/1/4
f 221/1/4 222/1/4 223/1/4
f 223/1/4 222/1/4 224/1/4
f 225/2/4 226/2/4 227/2/4
f 227/2/4 226/2/4 228/2/4
f 229/2/4 230/2/4 231/2/4
f 231/2/4 230/2/4 232/2/4
f 233/2/4 234/2/4 235/2/4
f 235/2/4 234/2/4 236/2/4
f 237/2/4 238/2/4 239/2/4
f 239/2/4 238/2/4 240/2/4
f 241/2/4 242/2/4 243/2/4
f 243/2/4 242/2/4 244/2/4
f 245/2/4 246/2/4 247/2/4
f 247/2/4 246/2/4 248/2/4
f 249/2/4 250/2/4 252/2/4
f 250/1/4 251/1/4 253/1/4
f 252/2/4 250/2/4 253/2/4
f 253/1/4 251/1/4 254/1/4
f 254/2/4 255/2/4 256/2/4
f 256/2/4 255/2/4 257/2/4
f 258/2/4 259/2/4 260/2/4
f 260/2/4 259/2/4 261/2/4
f 262/2/4 263/2/4 266/2/4
f 266/2/4 263/2/4 267/2/4
f 264/2/4 265/2/4 268/2/4
f 265/1/4 266/1/4 269/1/4
f 268/2/4 265/2/4 269/2/4
f 269/1/4 266/1/4 270/1/4
f 271/2/4 272/2/4 274/2/4
f 272/1/4 273/1/4 275/1/4
f 274/2/4 272/2/4 275/2/4
f 275/1/4 273/1/4 276/1/4
f 276/1/4 273/1/4 277/1/4
f 275/1/4 276/1/4 278/1/4
f 277/1/4 273/1/4 279/1/4
f 275/1/4 278/1/4 281/1/4
f 278/1/4 279/1/4 281/1/4
f 280/2/4 281/2/4 282/2/4
f 281/1/4 279/1/4 283/1/4
f 282/2/4 281/2/4 283/2/4
f 279/1/4 273/1/4 284/1/4
f 283/1/4 279/1/4 284/1/4
f 285/2/4 286/2/4 287/2/4
f 287/2/4 286/2/4 288/2/4
f 292/2/5 290/2/5 289/2/5
f 293/2/5 290/2/5 292/2/5
f 296/2/5 292/2/5 291/2/5
f 296/2/5 294/2/5 293/2/5
f 296/2/5 293/2/5 292/2/5
f 297/2/5 294/2/5 296/2/5
f 300/2/5 296/2/5 295/2/5
f 300/2/5 298/2/5 297/2/5
f 300/2/5 297/2/5 296/2/5
f 301/2/5 298/2/5 300/2/5
f 303/2/5 300/2/5 299/2/5
f 303/2/5 302/2/5 301/2/5
f 303/2/5 301/2/5 300/2/5
f 304/2/5 302/2/5 303/2/5
f 305/2/5 302/2/5 304/2/5
f 306/2/5 302/2/5 305/2/5
f 307/2/5 305/2/5 304/2/5
f 308/2/5 305/2/5 307/2/5
f 309/2/5 305/2/5 308/2/5
f 310/2/5 305/2/5 309/2/5
f 311/2/5 309/2/5 308/2/5
f 312/2/5 309/2/5 311/2/5
f 313/2/5 309/2/5 312/2/5
f 314/2/5 309/2/5 313/2/5
f 315/2/5 313/2/5 312/2/5
f 316/2/5 313/2/5 315/2/5
f 319/1/5 318/1/5 317/1/5
f 320/1/5 318/1/5 319/1/5
f 325/1/5 322/1/5 321/1/5
f 326/1/5 322/1/5 325/1/5
f 327/1/5 324/1/5 323/1/5
f 328/1/5 324/1/5 327/1/5
f 331/1/5 330/1/5 329/1/5
f 332/1/5 330/1/5 331/1/5
f 333/2/6 334/2/6 335/2/6
f 335/2/6 334/2/6 336/2/6
f 337/2/6 338/2/6 341/2/6
f 341/2/6 338/2/6 342/2/6
f 339/2/6 340/2/6 343/2/6
f 343/2/6 340/2/6 344/2/6
f 345/2/6 346/2/6 347/2/6
f 347/2/6 346/2/6 348/2/6
f 349/1/6 350/1/6 351/1/6
f 351/1/6 350/1/6 352/1/6
f 353/1/6 354/1/6 357/1/6
f 357/1/6 354/1/6 358/1/6
f 355/1/6 356/1/6 359/1/6
f 359/1/6 356/1/6 360/1/6
f 361/1/6 362/1/6 363/1/6
f 363/1/6 362/1/6 364/1/6
f 365/1/6 366/1/6 368/1/6
f 368/1/6 366/1/6 369/1/6
f 371/1/6 372/1/6 373/1/6
f 373/1/6 372/1/6 374/1/6
f 371/1/6 373/1/6 375/1/6
f 374/1/6 372/1/6 376/1/6
f 371/1/6 375/1/6 377/1/6
f 375/1/6 376/1/6 377/1/6
f 376/1/6 372/1/6 378/1/6
f 377/1/6 376/1/6 378/1/6
f 367/1/6 368/1/6 381/1/6
f 381/1/6 368/1/6 382/1/6
f 379/1/6 380/1/6 383/1/6
f 383/1/6 380/1/6 384/1/6
f 369/1/6 370/1/6 385/1/6
f 385/1/6 370/1/6 386/1/6
f 383/1/6 384/1/6 387/1/6
f 384/1/6 385/1/6 387/1/6
f 382/1/6 383/1/6 387/1/6
f 387/1/6 385/1/6 388/1/6
f 389/2/6 390/2/6 391/2/6
f 391/2/6 390/2/6 392/2/6
f 393/2/6 394/2/6 395/2/6
f 395/2/6 394/2/6 396/2/6
f 389/2/6 391/2/6 399/2/6
f 397/2/6 398/2/6 400/2/6
f 400/2/6 398/2/6 401/2/6
f 401/2/6 398/2/6 402/2/6
f 402/2/6 398/2/6 403/2/6
f 392/2/6 390/2/6 404/2/6
f 389/2/6 399/2/6 405/2/6
f 399/2/6 400/2/6 405/2/6
f 400/2/6 401/2/6 405/2/6
f 405/2/6 401/2/6 406/2/6
f 403/2/6 404/2/6 407/2/6
f 402/2/6 403/2/6 407/2/6
f 404/2/6 390/2/6 408/2/6
f 407/2/6 404/2/6 408/2/6
f 409/2/6 410/2/6 411/2/6
f 411/2/6 410/2/6 412/2/6
f 409/2/6 411/2/6 413/2/6
f 412/2/6 410/2/6 416/2/6
f 413/2/6 414/2/6 417/2/6
f 409/2/6 413/2/6 417/2/6
f 417/2/6 414/2/6 418/2/6
f 415/2/6 416/2/6 419/2/6
f 416/2/6 410/2/6 420/2/6
f 419/2/6 416/2/6 420/2/6
