# MagicaVoxel @ Ephtracy

# group
o 

# material
mtllib tower-1-0.mtl
usemtl palette

# normals
vn -1 0 0
vn 1 0 0
vn 0 0 1
vn 0 0 -1
vn 0 -1 0
vn 0 1 0

# texcoords
vt 0.306641 0.5
vt 0.841797 0.5
vt 0.849609 0.5
vt 0.853516 0.5
vt 0.865234 0.5
vt 0.888672 0.5
vt 0.904297 0.5
vt 0.986328 0.5

# verts
v -0.5 2.8 0.1
v -0.5 2.8 -0.5
v -0.5 3 0.1
v -0.5 3 -2.98023e-008
v -0.5 3 -0.4
v -0.5 3 -0.5
v -0.5 3.1 -2.98023e-008
v -0.5 3.1 -0.4
v -0.5 3.6 -2.98023e-008
v -0.5 3.6 -0.4
v -0.5 3.9 -2.98023e-008
v -0.5 3.9 -0.4
v -0.4 2.8 0.2
v -0.4 2.8 0.1
v -0.4 2.8 -0.5
v -0.4 2.8 -0.6
v -0.4 3 0.2
v -0.4 3 0.1
v -0.4 3 -2.98023e-008
v -0.4 3 -0.4
v -0.4 3 -0.5
v -0.4 3 -0.6
v -0.4 3.1 -2.98023e-008
v -0.4 3.1 -0.4
v -0.4 3.3 0.1
v -0.4 3.3 -0.5
v -0.4 3.5 0.1
v -0.4 3.5 -0.5
v -0.4 3.6 -2.98023e-008
v -0.4 3.6 -0.4
v -0.4 3.9 -2.98023e-008
v -0.4 3.9 -0.4
v -0.4 4 0.1
v -0.4 4 -0.5
v -0.3 3 0.2
v -0.3 3 0.1
v -0.3 3 -0.5
v -0.3 3 -0.6
v -0.3 3.1 0.2
v -0.3 3.1 0.1
v -0.3 3.1 -0.5
v -0.3 3.1 -0.6
v -0.3 3.3 -2.98023e-008
v -0.3 3.3 -0.4
v -0.3 3.5 -2.98023e-008
v -0.3 3.5 -0.4
v -0.3 3.5 -0.5
v -0.3 3.5 -0.8
v -0.3 3.6 0.2
v -0.3 3.6 0.1
v -0.3 3.9 0.2
v -0.3 3.9 0.1
v -0.3 3.9 -0.5
v -0.3 3.9 -0.8
v -0.2 3.6 -0.8
v -0.2 3.6 -1.9
v -0.2 3.6 -2
v -0.2 3.7 0.3
v -0.2 3.7 0.2
v -0.2 3.8 0.3
v -0.2 3.8 0.2
v -0.2 3.8 -0.8
v -0.2 3.8 -1.9
v -0.2 3.8 -2
v 0 3.6 -0.8
v 0 3.6 -1.9
v 0 3.6 -2
v 0 3.7 0.3
v 0 3.7 0.2
v 0 3.8 0.3
v 0 3.8 0.2
v 0 3.8 -0.8
v 0 3.8 -1.9
v 0 3.8 -2
v 0.1 3 0.2
v 0.1 3 0.1
v 0.1 3 -0.5
v 0.1 3 -0.6
v 0.1 3.1 0.2
v 0.1 3.1 0.1
v 0.1 3.1 -0.5
v 0.1 3.1 -0.6
v 0.1 3.3 -2.98023e-008
v 0.1 3.3 -0.4
v 0.1 3.5 -2.98023e-008
v 0.1 3.5 -0.4
v 0.1 3.5 -0.5
v 0.1 3.5 -0.8
v 0.1 3.6 0.2
v 0.1 3.6 0.1
v 0.1 3.9 0.2
v 0.1 3.9 0.1
v 0.1 3.9 -0.5
v 0.1 3.9 -0.8
v 0.2 2.8 0.2
v 0.2 2.8 0.1
v 0.2 2.8 -0.5
v 0.2 2.8 -0.6
v 0.2 3 0.2
v 0.2 3 0.1
v 0.2 3 -2.98023e-008
v 0.2 3 -0.4
v 0.2 3 -0.5
v 0.2 3 -0.6
v 0.2 3.1 -2.98023e-008
v 0.2 3.1 -0.4
v 0.2 3.1 -0.5
v 0.2 3.3 0.1
v 0.2 3.3 -0.5
v 0.2 3.5 0.1
v 0.2 3.5 -0.5
v 0.2 3.7 -2.98023e-008
v 0.2 3.7 -0.4
v 0.2 3.9 -2.98023e-008
v 0.2 3.9 -0.4
v 0.2 4 0.1
v 0.2 4 -0.5
v 0.3 2.8 0.1
v 0.3 2.8 -0.5
v 0.3 3 0.1
v 0.3 3 -2.98023e-008
v 0.3 3 -0.4
v 0.3 3 -0.5
v 0.3 3.1 -2.98023e-008
v 0.3 3.1 -0.4
v 0.3 3.7 -2.98023e-008
v 0.3 3.7 -0.4
v 0.3 3.9 -2.98023e-008
v 0.3 3.9 -0.4
v -0.2 3.7 0.3
v -0.2 3.8 0.3
v 0 3.7 0.3
v 0 3.8 0.3
v -0.4 2.8 0.2
v -0.4 3 0.2
v -0.3 3 0.2
v -0.3 3.1 0.2
v -0.3 3.6 0.2
v -0.3 3.9 0.2
v -0.2 3.7 0.2
v -0.2 3.8 0.2
v 0 3.7 0.2
v 0 3.8 0.2
v 0.1 3 0.2
v 0.1 3.1 0.2
v 0.1 3.6 0.2
v 0.1 3.9 0.2
v 0.2 2.8 0.2
v 0.2 3 0.2
v -0.5 2.8 0.1
v -0.5 3 0.1
v -0.4 2.8 0.1
v -0.4 3 0.1
v -0.4 3.3 0.1
v -0.4 3.5 0.1
v -0.4 4 0.1
v -0.3 3 0.1
v -0.3 3.1 0.1
v -0.3 3.6 0.1
v -0.3 3.9 0.1
v 0.1 3 0.1
v 0.1 3.1 0.1
v 0.1 3.6 0.1
v 0.1 3.9 0.1
v 0.2 2.8 0.1
v 0.2 3 0.1
v 0.2 3.3 0.1
v 0.2 3.5 0.1
v 0.2 4 0.1
v 0.3 2.8 0.1
v 0.3 3 0.1
v -0.5 3 -2.98023e-008
v -0.5 3.1 -2.98023e-008
v -0.5 3.6 -2.98023e-008
v -0.5 3.9 -2.98023e-008
v -0.4 3 -2.98023e-008
v -0.4 3.1 -2.98023e-008
v -0.4 3.6 -2.98023e-008
v -0.4 3.9 -2.98023e-008
v -0.3 3.3 -2.98023e-008
v -0.3 3.5 -2.98023e-008
v 0.1 3.3 -2.98023e-008
v 0.1 3.5 -2.98023e-008
v 0.2 3 -2.98023e-008
v 0.2 3.1 -2.98023e-008
v 0.2 3.7 -2.98023e-008
v 0.2 3.9 -2.98023e-008
v 0.3 3 -2.98023e-008
v 0.3 3.1 -2.98023e-008
v 0.3 3.7 -2.98023e-008
v 0.3 3.9 -2.98023e-008
v -0.5 3 -0.4
v -0.5 3.1 -0.4
v -0.5 3.6 -0.4
v -0.5 3.9 -0.4
v -0.4 3 -0.4
v -0.4 3.1 -0.4
v -0.4 3.6 -0.4
v -0.4 3.9 -0.4
v -0.3 3.3 -0.4
v -0.3 3.5 -0.4
v 0.1 3.3 -0.4
v 0.1 3.5 -0.4
v 0.2 3 -0.4
v 0.2 3.1 -0.4
v 0.2 3.7 -0.4
v 0.2 3.9 -0.4
v 0.3 3 -0.4
v 0.3 3.1 -0.4
v 0.3 3.7 -0.4
v 0.3 3.9 -0.4
v -0.5 2.8 -0.5
v -0.5 3 -0.5
v -0.4 2.8 -0.5
v -0.4 3 -0.5
v -0.4 3.3 -0.5
v -0.4 3.5 -0.5
v -0.4 4 -0.5
v -0.3 3 -0.5
v -0.3 3.1 -0.5
v -0.3 3.5 -0.5
v -0.3 3.9 -0.5
v 0.1 3 -0.5
v 0.1 3.1 -0.5
v 0.1 3.5 -0.5
v 0.1 3.9 -0.5
v 0.2 2.8 -0.5
v 0.2 3 -0.5
v 0.2 3.1 -0.5
v 0.2 3.3 -0.5
v 0.2 3.5 -0.5
v 0.2 4 -0.5
v 0.3 2.8 -0.5
v 0.3 3 -0.5
v -0.4 2.8 -0.6
v -0.4 3 -0.6
v -0.3 3 -0.6
v -0.3 3.1 -0.6
v 0.1 3 -0.6
v 0.1 3.1 -0.6
v 0.2 2.8 -0.6
v 0.2 3 -0.6
v -0.3 3.5 -0.8
v -0.3 3.9 -0.8
v -0.2 3.6 -0.8
v -0.2 3.8 -0.8
v 0 3.6 -0.8
v 0 3.8 -0.8
v 0.1 3.5 -0.8
v 0.1 3.9 -0.8
v -0.2 3.6 -2
v -0.2 3.8 -2
v 0 3.6 -2
v 0 3.8 -2
v -0.4 2.8 0.2
v 0.2 2.8 0.2
v -0.5 2.8 0.1
v -0.4 2.8 0.1
v 0.2 2.8 0.1
v 0.3 2.8 0.1
v -0.5 2.8 -0.5
v -0.4 2.8 -0.5
v 0.2 2.8 -0.5
v 0.3 2.8 -0.5
v -0.4 2.8 -0.6
v 0.2 2.8 -0.6
v -0.4 3.5 0.1
v 0.2 3.5 0.1
v -0.3 3.5 -2.98023e-008
v 0.1 3.5 -2.98023e-008
v -0.3 3.5 -0.4
v 0.1 3.5 -0.4
v -0.4 3.5 -0.5
v -0.3 3.5 -0.5
v 0.1 3.5 -0.5
v 0.2 3.5 -0.5
v -0.3 3.5 -0.8
v 0.1 3.5 -0.8
v -0.3 3.6 0.2
v 0.1 3.6 0.2
v -0.3 3.6 0.1
v 0.1 3.6 0.1
v -0.5 3.6 -2.98023e-008
v -0.4 3.6 -2.98023e-008
v -0.5 3.6 -0.4
v -0.4 3.6 -0.4
v -0.2 3.6 -0.8
v 0 3.6 -0.8
v -0.2 3.6 -1.9
v 0 3.6 -1.9
v -0.2 3.6 -2
v 0 3.6 -2
v -0.2 3.7 0.3
v 0 3.7 0.3
v -0.2 3.7 0.2
v 0 3.7 0.2
v 0.2 3.7 -2.98023e-008
v 0.3 3.7 -2.98023e-008
v 0.2 3.7 -0.4
v 0.3 3.7 -0.4
v -0.4 3 0.2
v -0.3 3 0.2
v 0.1 3 0.2
v 0.2 3 0.2
v -0.5 3 0.1
v -0.4 3 0.1
v -0.3 3 0.1
v 0.1 3 0.1
v 0.2 3 0.1
v 0.3 3 0.1
v -0.5 3 -2.98023e-008
v -0.4 3 -2.98023e-008
v 0.2 3 -2.98023e-008
v 0.3 3 -2.98023e-008
v -0.5 3 -0.4
v -0.4 3 -0.4
v 0.2 3 -0.4
v 0.3 3 -0.4
v -0.5 3 -0.5
v -0.4 3 -0.5
v -0.3 3 -0.5
v 0.1 3 -0.5
v 0.2 3 -0.5
v 0.3 3 -0.5
v -0.4 3 -0.6
v -0.3 3 -0.6
v 0.1 3 -0.6
v 0.2 3 -0.6
v -0.3 3.1 0.2
v 0.1 3.1 0.2
v -0.3 3.1 0.1
v 0.1 3.1 0.1
v -0.5 3.1 -2.98023e-008
v -0.4 3.1 -2.98023e-008
v 0.2 3.1 -2.98023e-008
v 0.3 3.1 -2.98023e-008
v -0.5 3.1 -0.4
v -0.4 3.1 -0.4
v 0.2 3.1 -0.4
v 0.3 3.1 -0.4
v -0.3 3.1 -0.5
v 0.1 3.1 -0.5
v -0.3 3.1 -0.6
v 0.1 3.1 -0.6
v -0.4 3.3 0.1
v 0.2 3.3 0.1
v -0.3 3.3 -2.98023e-008
v 0.1 3.3 -2.98023e-008
v -0.3 3.3 -0.4
v 0.1 3.3 -0.4
v -0.4 3.3 -0.5
v 0.2 3.3 -0.5
v -0.2 3.8 0.3
v 0 3.8 0.3
v -0.2 3.8 0.2
v 0 3.8 0.2
v -0.2 3.8 -0.8
v 0 3.8 -0.8
v -0.2 3.8 -1.9
v 0 3.8 -1.9
v -0.2 3.8 -2
v 0 3.8 -2
v -0.3 3.9 0.2
v 0.1 3.9 0.2
v -0.3 3.9 0.1
v 0.1 3.9 0.1
v -0.5 3.9 -2.98023e-008
v -0.4 3.9 -2.98023e-008
v 0.2 3.9 -2.98023e-008
v 0.3 3.9 -2.98023e-008
v -0.5 3.9 -0.4
v -0.4 3.9 -0.4
v 0.2 3.9 -0.4
v 0.3 3.9 -0.4
v -0.3 3.9 -0.5
v 0.1 3.9 -0.5
v -0.3 3.9 -0.8
v 0.1 3.9 -0.8
v -0.4 4 0.1
v 0.2 4 0.1
v -0.4 4 -0.5
v 0.2 4 -0.5

# faces
f 3/5/1 2/5/1 1/5/1
f 4/5/1 2/5/1 3/5/1
f 5/5/1 2/5/1 4/5/1
f 6/5/1 2/5/1 5/5/1
f 7/5/1 5/5/1 4/5/1
f 8/5/1 5/5/1 7/5/1
f 11/6/1 10/6/1 9/6/1
f 12/6/1 10/6/1 11/6/1
f 17/5/1 14/5/1 13/5/1
f 18/5/1 14/5/1 17/5/1
f 21/5/1 16/5/1 15/5/1
f 22/5/1 16/5/1 21/5/1
f 23/2/1 19/2/1 18/2/1
f 24/2/1 21/2/1 20/2/1
f 25/2/1 23/2/1 18/2/1
f 25/2/1 24/2/1 23/2/1
f 26/2/1 21/2/1 24/2/1
f 26/2/1 24/2/1 25/2/1
f 29/7/1 28/7/1 27/7/1
f 30/7/1 28/7/1 29/7/1
f 31/7/1 29/7/1 27/7/1
f 32/7/1 28/7/1 30/7/1
f 33/7/1 31/7/1 27/7/1
f 33/7/1 32/7/1 31/7/1
f 34/7/1 28/7/1 32/7/1
f 34/7/1 32/7/1 33/7/1
f 39/5/1 36/5/1 35/5/1
f 40/5/1 36/5/1 39/5/1
f 41/5/1 38/5/1 37/5/1
f 42/5/1 38/5/1 41/5/1
f 45/8/1 44/8/1 43/8/1
f 46/8/1 44/8/1 45/8/1
f 51/6/1 50/6/1 49/6/1
f 52/6/1 50/6/1 51/6/1
f 53/3/1 48/3/1 47/3/1
f 54/3/1 48/3/1 53/3/1
f 60/2/1 59/2/1 58/2/1
f 61/2/1 59/2/1 60/2/1
f 62/8/1 56/8/1 55/8/1
f 63/4/1 57/4/1 56/4/1
f 63/8/1 56/8/1 62/8/1
f 64/4/1 57/4/1 63/4/1
f 68/2/2 69/2/2 70/2/2
f 70/2/2 69/2/2 71/2/2
f 65/8/2 66/8/2 72/8/2
f 66/4/2 67/4/2 73/4/2
f 72/8/2 66/8/2 73/8/2
f 73/4/2 67/4/2 74/4/2
f 75/5/2 76/5/2 79/5/2
f 79/5/2 76/5/2 80/5/2
f 77/5/2 78/5/2 81/5/2
f 81/5/2 78/5/2 82/5/2
f 83/8/2 84/8/2 85/8/2
f 85/8/2 84/8/2 86/8/2
f 89/6/2 90/6/2 91/6/2
f 91/6/2 90/6/2 92/6/2
f 87/3/2 88/3/2 93/3/2
f 93/3/2 88/3/2 94/3/2
f 95/5/2 96/5/2 99/5/2
f 99/5/2 96/5/2 100/5/2
f 97/5/2 98/5/2 103/5/2
f 103/5/2 98/5/2 104/5/2
f 100/2/2 101/2/2 105/2/2
f 102/5/2 103/5/2 106/5/2
f 106/5/2 103/5/2 107/5/2
f 100/2/2 105/2/2 108/2/2
f 105/2/2 106/2/2 108/2/2
f 106/2/2 107/2/2 108/2/2
f 108/2/2 107/2/2 109/2/2
f 110/7/2 111/7/2 112/7/2
f 112/7/2 111/7/2 113/7/2
f 110/7/2 112/7/2 114/7/2
f 113/7/2 111/7/2 115/7/2
f 110/7/2 114/7/2 116/7/2
f 114/7/2 115/7/2 116/7/2
f 115/7/2 111/7/2 117/7/2
f 116/7/2 115/7/2 117/7/2
f 118/5/2 119/5/2 120/5/2
f 120/5/2 119/5/2 121/5/2
f 121/5/2 119/5/2 122/5/2
f 122/5/2 119/5/2 123/5/2
f 121/5/2 122/5/2 124/5/2
f 124/5/2 122/5/2 125/5/2
f 126/6/2 127/6/2 128/6/2
f 128/6/2 127/6/2 129/6/2
f 132/2/3 131/2/3 130/2/3
f 133/2/3 131/2/3 132/2/3
f 136/5/3 135/5/3 134/5/3
f 140/6/3 139/6/3 138/6/3
f 141/6/3 139/6/3 140/6/3
f 142/6/3 140/6/3 138/6/3
f 143/6/3 139/6/3 141/6/3
f 144/5/3 136/5/3 134/5/3
f 144/5/3 137/5/3 136/5/3
f 145/5/3 137/5/3 144/5/3
f 146/6/3 143/6/3 142/6/3
f 146/6/3 142/6/3 138/6/3
f 147/6/3 139/6/3 143/6/3
f 147/6/3 143/6/3 146/6/3
f 148/5/3 144/5/3 134/5/3
f 149/5/3 144/5/3 148/5/3
f 152/5/3 151/5/3 150/5/3
f 153/5/3 151/5/3 152/5/3
f 157/2/3 154/2/3 153/2/3
f 158/2/3 154/2/3 157/2/3
f 159/7/3 156/7/3 155/7/3
f 160/7/3 156/7/3 159/7/3
f 162/2/3 154/2/3 158/2/3
f 163/7/3 159/7/3 155/7/3
f 164/7/3 156/7/3 160/7/3
f 166/2/3 162/2/3 161/2/3
f 167/2/3 154/2/3 162/2/3
f 167/2/3 162/2/3 166/2/3
f 168/7/3 164/7/3 163/7/3
f 168/7/3 163/7/3 155/7/3
f 169/7/3 156/7/3 164/7/3
f 169/7/3 164/7/3 168/7/3
f 170/5/3 166/5/3 165/5/3
f 171/5/3 166/5/3 170/5/3
f 176/5/3 173/5/3 172/5/3
f 177/5/3 173/5/3 176/5/3
f 178/6/3 175/6/3 174/6/3
f 179/6/3 175/6/3 178/6/3
f 182/8/3 181/8/3 180/8/3
f 183/8/3 181/8/3 182/8/3
f 188/5/3 185/5/3 184/5/3
f 189/5/3 185/5/3 188/5/3
f 190/6/3 187/6/3 186/6/3
f 191/6/3 187/6/3 190/6/3
f 192/5/4 193/5/4 196/5/4
f 196/5/4 193/5/4 197/5/4
f 194/6/4 195/6/4 198/6/4
f 198/6/4 195/6/4 199/6/4
f 200/8/4 201/8/4 202/8/4
f 202/8/4 201/8/4 203/8/4
f 204/5/4 205/5/4 208/5/4
f 208/5/4 205/5/4 209/5/4
f 206/6/4 207/6/4 210/6/4
f 210/6/4 207/6/4 211/6/4
f 212/5/4 213/5/4 214/5/4
f 214/5/4 213/5/4 215/5/4
f 215/2/4 216/2/4 219/2/4
f 219/2/4 216/2/4 220/2/4
f 217/7/4 218/7/4 221/7/4
f 221/7/4 218/7/4 222/7/4
f 220/2/4 216/2/4 224/2/4
f 222/7/4 218/7/4 226/7/4
f 223/5/4 224/5/4 228/5/4
f 224/2/4 216/2/4 229/2/4
f 228/5/4 224/5/4 229/5/4
f 229/2/4 216/2/4 230/2/4
f 225/7/4 226/7/4 231/7/4
f 226/7/4 218/7/4 232/7/4
f 231/7/4 226/7/4 232/7/4
f 227/5/4 228/5/4 233/5/4
f 233/5/4 228/5/4 234/5/4
f 235/5/4 236/5/4 237/5/4
f 235/5/4 237/5/4 239/5/4
f 237/5/4 238/5/4 239/5/4
f 239/5/4 238/5/4 240/5/4
f 235/5/4 239/5/4 241/5/4
f 241/5/4 239/5/4 242/5/4
f 243/3/4 244/3/4 245/3/4
f 245/3/4 244/3/4 246/3/4
f 243/3/4 245/3/4 247/3/4
f 246/3/4 244/3/4 248/3/4
f 243/3/4 247/3/4 249/3/4
f 247/3/4 248/3/4 249/3/4
f 248/3/4 244/3/4 250/3/4
f 249/3/4 248/3/4 250/3/4
f 251/4/4 252/4/4 253/4/4
f 253/4/4 252/4/4 254/4/4
f 258/5/5 256/5/5 255/5/5
f 259/5/5 256/5/5 258/5/5
f 261/5/5 258/5/5 257/5/5
f 261/5/5 260/5/5 259/5/5
f 261/5/5 259/5/5 258/5/5
f 262/5/5 260/5/5 261/5/5
f 263/5/5 260/5/5 262/5/5
f 264/5/5 260/5/5 263/5/5
f 265/5/5 263/5/5 262/5/5
f 266/5/5 263/5/5 265/5/5
f 269/7/5 268/7/5 267/7/5
f 270/7/5 268/7/5 269/7/5
f 271/7/5 269/7/5 267/7/5
f 272/7/5 268/7/5 270/7/5
f 273/7/5 271/7/5 267/7/5
f 273/7/5 272/7/5 271/7/5
f 274/7/5 272/7/5 273/7/5
f 275/7/5 268/7/5 272/7/5
f 275/7/5 272/7/5 274/7/5
f 276/7/5 268/7/5 275/7/5
f 277/3/5 275/3/5 274/3/5
f 278/3/5 275/3/5 277/3/5
f 281/6/5 280/6/5 279/6/5
f 282/6/5 280/6/5 281/6/5
f 285/6/5 284/6/5 283/6/5
f 286/6/5 284/6/5 285/6/5
f 289/8/5 288/8/5 287/8/5
f 290/8/5 288/8/5 289/8/5
f 291/4/5 290/4/5 289/4/5
f 292/4/5 290/4/5 291/4/5
f 295/2/5 294/2/5 293/2/5
f 296/2/5 294/2/5 295/2/5
f 299/6/5 298/6/5 297/6/5
f 300/6/5 298/6/5 299/6/5
f 301/5/6 302/5/6 306/5/6
f 306/5/6 302/5/6 307/5/6
f 303/5/6 304/5/6 308/5/6
f 308/5/6 304/5/6 309/5/6
f 305/5/6 306/5/6 311/5/6
f 311/5/6 306/5/6 312/5/6
f 309/5/6 310/5/6 313/5/6
f 313/5/6 310/5/6 314/5/6
f 315/5/6 316/5/6 319/5/6
f 319/5/6 316/5/6 320/5/6
f 317/5/6 318/5/6 323/5/6
f 323/5/6 318/5/6 324/5/6
f 320/5/6 321/5/6 325/5/6
f 325/5/6 321/5/6 326/5/6
f 322/5/6 323/5/6 327/5/6
f 327/5/6 323/5/6 328/5/6
f 329/5/6 330/5/6 331/5/6
f 331/5/6 330/5/6 332/5/6
f 333/5/6 334/5/6 337/5/6
f 337/5/6 334/5/6 338/5/6
f 335/5/6 336/5/6 339/5/6
f 339/5/6 336/5/6 340/5/6
f 341/5/6 342/5/6 343/5/6
f 343/5/6 342/5/6 344/5/6
f 345/2/6 346/2/6 347/2/6
f 347/2/6 346/2/6 348/2/6
f 345/2/6 347/2/6 349/2/6
f 348/2/6 346/2/6 350/2/6
f 345/2/6 349/2/6 351/2/6
f 349/2/6 350/2/6 351/2/6
f 350/2/6 346/2/6 352/2/6
f 351/2/6 350/2/6 352/2/6
f 353/2/6 354/2/6 355/2/6
f 355/2/6 354/2/6 356/2/6
f 357/8/6 358/8/6 359/8/6
f 359/8/6 358/8/6 360/8/6
f 359/4/6 360/4/6 361/4/6
f 361/4/6 360/4/6 362/4/6
f 363/6/6 364/6/6 365/6/6
f 365/6/6 364/6/6 366/6/6
f 367/6/6 368/6/6 371/6/6
f 371/6/6 368/6/6 372/6/6
f 369/6/6 370/6/6 373/6/6
f 373/6/6 370/6/6 374/6/6
f 375/3/6 376/3/6 377/3/6
f 377/3/6 376/3/6 378/3/6
f 379/7/6 380/7/6 381/7/6
f 381/7/6 380/7/6 382/7/6
