# MagicaVoxel @ Ephtracy

# group
o 

# material
mtllib worm.mtl
usemtl palette

# normals
vn -1 0 0
vn 1 0 0
vn 0 0 1
vn 0 0 -1
vn 0 -1 0
vn 0 1 0

# texcoords
vt 0.158203 0.5
vt 0.162109 0.5
vt 0.845703 0.5

# verts
v -0.3 1.5 0.4
v -0.3 1.5 0.3
v -0.3 1.5 0.2
v -0.3 1.5 0.1
v -0.3 1.5 -0.1
v -0.3 1.5 -0.2
v -0.3 1.5 -0.3
v -0.3 1.5 -0.4
v -0.3 1.7 0.4
v -0.3 1.7 0.3
v -0.3 1.7 0.2
v -0.3 1.7 0.1
v -0.3 1.7 -0.1
v -0.3 1.7 -0.2
v -0.3 1.7 -0.3
v -0.3 1.7 -0.4
v -0.2 1.6 0.5
v -0.2 1.6 0.4
v -0.2 1.6 0.1
v -0.2 1.6 0
v -0.2 1.6 -0.2
v -0.2 1.6 -0.3
v -0.2 1.7 0.5
v -0.2 1.7 0.4
v -0.2 1.7 0.3
v -0.2 1.7 0.2
v -0.2 1.7 0.1
v -0.2 1.7 -0.1
v -0.2 1.7 -0.2
v -0.2 1.7 -0.3
v -0.2 1.7 -0.4
v -0.2 1.8 0.5
v -0.2 1.8 0.4
v -0.2 1.8 0.3
v -0.2 1.8 0.2
v -0.2 1.8 0
v -0.2 1.8 -0.1
v -0.2 1.8 -0.4
v -0.1 1.5 0.4
v -0.1 1.5 -0.4
v -0.1 1.6 0.4
v -0.1 1.6 0.3
v -0.1 1.6 0.2
v -0.1 1.6 0
v -0.1 1.6 -0.1
v -0.1 1.6 -0.4
v -0.1 1.6 -0.5
v -0.1 1.8 0.4
v -0.1 1.8 0.3
v -0.1 1.8 0.2
v -0.1 1.8 0
v -0.1 1.8 -0.1
v -0.1 1.8 -0.4
v -0.1 1.8 -0.5
v -0.1 1.9 0.4
v -0.1 1.9 0.3
v -0.1 1.9 0.2
v -0.1 1.9 0
v -0.1 1.9 -0.1
v -0.1 1.9 -0.4
v 0.2 1.5 0.4
v 0.2 1.5 0.3
v 0.2 1.5 0.2
v 0.2 1.5 0.1
v 0.2 1.5 -0.1
v 0.2 1.5 -0.2
v 0.2 1.5 -0.3
v 0.2 1.5 -0.4
v 0.2 1.6 0.4
v 0.2 1.6 0.3
v 0.2 1.6 0.2
v 0.2 1.6 0.1
v 0.2 1.6 -0.1
v 0.2 1.6 -0.2
v 0.2 1.6 -0.3
v 0.2 1.6 -0.4
v -0.2 1.5 0.4
v -0.2 1.5 0.3
v -0.2 1.5 0.2
v -0.2 1.5 0.1
v -0.2 1.5 -0.1
v -0.2 1.5 -0.2
v -0.2 1.5 -0.3
v -0.2 1.5 -0.4
v -0.2 1.6 0.4
v -0.2 1.6 0.3
v -0.2 1.6 0.2
v -0.2 1.6 0.1
v -0.2 1.6 -0.1
v -0.2 1.6 -0.2
v -0.2 1.6 -0.3
v -0.2 1.6 -0.4
v 0.1 1.5 0.4
v 0.1 1.5 -0.4
v 0.1 1.6 0.4
v 0.1 1.6 0.3
v 0.1 1.6 0.2
v 0.1 1.6 0
v 0.1 1.6 -0.1
v 0.1 1.6 -0.4
v 0.1 1.6 -0.5
v 0.1 1.8 0.4
v 0.1 1.8 0.3
v 0.1 1.8 0.2
v 0.1 1.8 0
v 0.1 1.8 -0.1
v 0.1 1.8 -0.4
v 0.1 1.8 -0.5
v 0.1 1.9 0.4
v 0.1 1.9 0.3
v 0.1 1.9 0.2
v 0.1 1.9 0
v 0.1 1.9 -0.1
v 0.1 1.9 -0.4
v 0.2 1.6 0.5
v 0.2 1.6 0.4
v 0.2 1.6 0.1
v 0.2 1.6 0
v 0.2 1.6 -0.2
v 0.2 1.6 -0.3
v 0.2 1.7 0.5
v 0.2 1.7 0.4
v 0.2 1.7 0.3
v 0.2 1.7 0.2
v 0.2 1.7 0.1
v 0.2 1.7 -0.1
v 0.2 1.7 -0.2
v 0.2 1.7 -0.3
v 0.2 1.7 -0.4
v 0.2 1.8 0.5
v 0.2 1.8 0.4
v 0.2 1.8 0.3
v 0.2 1.8 0.2
v 0.2 1.8 0
v 0.2 1.8 -0.1
v 0.2 1.8 -0.4
v 0.3 1.5 0.4
v 0.3 1.5 0.3
v 0.3 1.5 0.2
v 0.3 1.5 0.1
v 0.3 1.5 -0.1
v 0.3 1.5 -0.2
v 0.3 1.5 -0.3
v 0.3 1.5 -0.4
v 0.3 1.7 0.4
v 0.3 1.7 0.3
v 0.3 1.7 0.2
v 0.3 1.7 0.1
v 0.3 1.7 -0.1
v 0.3 1.7 -0.2
v 0.3 1.7 -0.3
v 0.3 1.7 -0.4
v -0.2 1.6 0.5
v -0.2 1.7 0.5
v -0.2 1.8 0.5
v -0.1 1.7 0.5
v -0.1 1.8 0.5
v 0.1 1.7 0.5
v 0.1 1.8 0.5
v 0.2 1.6 0.5
v 0.2 1.7 0.5
v 0.2 1.8 0.5
v -0.3 1.5 0.4
v -0.3 1.7 0.4
v -0.2 1.5 0.4
v -0.2 1.6 0.4
v -0.2 1.7 0.4
v -0.1 1.5 0.4
v -0.1 1.6 0.4
v -0.1 1.8 0.4
v -0.1 1.9 0.4
v 0.1 1.5 0.4
v 0.1 1.6 0.4
v 0.1 1.8 0.4
v 0.1 1.9 0.4
v 0.2 1.5 0.4
v 0.2 1.6 0.4
v 0.2 1.7 0.4
v 0.3 1.5 0.4
v 0.3 1.7 0.4
v -0.3 1.5 0.2
v -0.3 1.7 0.2
v -0.2 1.5 0.2
v -0.2 1.6 0.2
v -0.2 1.7 0.2
v -0.2 1.8 0.2
v -0.1 1.6 0.2
v -0.1 1.8 0.2
v -0.1 1.9 0.2
v 0.1 1.6 0.2
v 0.1 1.8 0.2
v 0.1 1.9 0.2
v 0.2 1.5 0.2
v 0.2 1.6 0.2
v 0.2 1.7 0.2
v 0.2 1.8 0.2
v 0.3 1.5 0.2
v 0.3 1.7 0.2
v -0.3 1.5 -0.1
v -0.3 1.7 -0.1
v -0.2 1.5 -0.1
v -0.2 1.6 -0.1
v -0.2 1.7 -0.1
v -0.2 1.8 -0.1
v -0.1 1.6 -0.1
v -0.1 1.8 -0.1
v -0.1 1.9 -0.1
v 0.1 1.6 -0.1
v 0.1 1.8 -0.1
v 0.1 1.9 -0.1
v 0.2 1.5 -0.1
v 0.2 1.6 -0.1
v 0.2 1.7 -0.1
v 0.2 1.8 -0.1
v 0.3 1.5 -0.1
v 0.3 1.7 -0.1
v -0.3 1.5 -0.3
v -0.3 1.7 -0.3
v -0.2 1.5 -0.3
v -0.2 1.6 -0.3
v -0.2 1.7 -0.3
v 0.2 1.5 -0.3
v 0.2 1.6 -0.3
v 0.2 1.7 -0.3
v 0.3 1.5 -0.3
v 0.3 1.7 -0.3
v -0.3 1.5 0.3
v -0.3 1.7 0.3
v -0.2 1.5 0.3
v -0.2 1.6 0.3
v -0.2 1.7 0.3
v -0.2 1.8 0.3
v -0.1 1.6 0.3
v -0.1 1.8 0.3
v -0.1 1.9 0.3
v 0.1 1.6 0.3
v 0.1 1.8 0.3
v 0.1 1.9 0.3
v 0.2 1.5 0.3
v 0.2 1.6 0.3
v 0.2 1.7 0.3
v 0.2 1.8 0.3
v 0.3 1.5 0.3
v 0.3 1.7 0.3
v -0.3 1.5 0.1
v -0.3 1.7 0.1
v -0.2 1.5 0.1
v -0.2 1.6 0.1
v -0.2 1.7 0.1
v 0.2 1.5 0.1
v 0.2 1.6 0.1
v 0.2 1.7 0.1
v 0.3 1.5 0.1
v 0.3 1.7 0.1
v -0.2 1.6 0
v -0.2 1.8 0
v -0.1 1.6 0
v -0.1 1.8 0
v -0.1 1.9 0
v 0.1 1.6 0
v 0.1 1.8 0
v 0.1 1.9 0
v 0.2 1.6 0
v 0.2 1.8 0
v -0.3 1.5 -0.2
v -0.3 1.7 -0.2
v -0.2 1.5 -0.2
v -0.2 1.6 -0.2
v -0.2 1.7 -0.2
v 0.2 1.5 -0.2
v 0.2 1.6 -0.2
v 0.2 1.7 -0.2
v 0.3 1.5 -0.2
v 0.3 1.7 -0.2
v -0.3 1.5 -0.4
v -0.3 1.7 -0.4
v -0.2 1.5 -0.4
v -0.2 1.6 -0.4
v -0.2 1.7 -0.4
v -0.2 1.8 -0.4
v -0.1 1.5 -0.4
v -0.1 1.6 -0.4
v -0.1 1.8 -0.4
v -0.1 1.9 -0.4
v 0.1 1.5 -0.4
v 0.1 1.6 -0.4
v 0.1 1.8 -0.4
v 0.1 1.9 -0.4
v 0.2 1.5 -0.4
v 0.2 1.6 -0.4
v 0.2 1.7 -0.4
v 0.2 1.8 -0.4
v 0.3 1.5 -0.4
v 0.3 1.7 -0.4
v -0.1 1.6 -0.5
v -0.1 1.8 -0.5
v 0.1 1.6 -0.5
v 0.1 1.8 -0.5
v -0.3 1.5 0.4
v -0.2 1.5 0.4
v -0.1 1.5 0.4
v 0.1 1.5 0.4
v 0.2 1.5 0.4
v 0.3 1.5 0.4
v -0.3 1.5 0.3
v -0.2 1.5 0.3
v 0.2 1.5 0.3
v 0.3 1.5 0.3
v -0.3 1.5 0.2
v -0.2 1.5 0.2
v 0.2 1.5 0.2
v 0.3 1.5 0.2
v -0.3 1.5 0.1
v -0.2 1.5 0.1
v 0.2 1.5 0.1
v 0.3 1.5 0.1
v -0.3 1.5 -0.1
v -0.2 1.5 -0.1
v 0.2 1.5 -0.1
v 0.3 1.5 -0.1
v -0.3 1.5 -0.2
v -0.2 1.5 -0.2
v 0.2 1.5 -0.2
v 0.3 1.5 -0.2
v -0.3 1.5 -0.3
v -0.2 1.5 -0.3
v 0.2 1.5 -0.3
v 0.3 1.5 -0.3
v -0.3 1.5 -0.4
v -0.2 1.5 -0.4
v -0.1 1.5 -0.4
v 0.1 1.5 -0.4
v 0.2 1.5 -0.4
v 0.3 1.5 -0.4
v -0.2 1.6 0.5
v 0.2 1.6 0.5
v -0.2 1.6 0.4
v -0.1 1.6 0.4
v 0.1 1.6 0.4
v 0.2 1.6 0.4
v -0.2 1.6 0.3
v -0.1 1.6 0.3
v 0.1 1.6 0.3
v 0.2 1.6 0.3
v -0.2 1.6 0.2
v -0.1 1.6 0.2
v 0.1 1.6 0.2
v 0.2 1.6 0.2
v -0.2 1.6 0.1
v 0.2 1.6 0.1
v -0.2 1.6 0
v -0.1 1.6 0
v 0.1 1.6 0
v 0.2 1.6 0
v -0.2 1.6 -0.1
v -0.1 1.6 -0.1
v 0.1 1.6 -0.1
v 0.2 1.6 -0.1
v -0.2 1.6 -0.2
v 0.2 1.6 -0.2
v -0.2 1.6 -0.3
v 0.2 1.6 -0.3
v -0.2 1.6 -0.4
v -0.1 1.6 -0.4
v 0.1 1.6 -0.4
v 0.2 1.6 -0.4
v -0.1 1.6 -0.5
v 0.1 1.6 -0.5
v -0.3 1.7 0.4
v -0.2 1.7 0.4
v 0.2 1.7 0.4
v 0.3 1.7 0.4
v -0.3 1.7 0.3
v -0.2 1.7 0.3
v 0.2 1.7 0.3
v 0.3 1.7 0.3
v -0.3 1.7 0.2
v -0.2 1.7 0.2
v 0.2 1.7 0.2
v 0.3 1.7 0.2
v -0.3 1.7 0.1
v -0.2 1.7 0.1
v 0.2 1.7 0.1
v 0.3 1.7 0.1
v -0.3 1.7 -0.1
v -0.2 1.7 -0.1
v 0.2 1.7 -0.1
v 0.3 1.7 -0.1
v -0.3 1.7 -0.2
v -0.2 1.7 -0.2
v 0.2 1.7 -0.2
v 0.3 1.7 -0.2
v -0.3 1.7 -0.3
v -0.2 1.7 -0.3
v 0.2 1.7 -0.3
v 0.3 1.7 -0.3
v -0.3 1.7 -0.4
v -0.2 1.7 -0.4
v 0.2 1.7 -0.4
v 0.3 1.7 -0.4
v -0.2 1.8 0.5
v -0.1 1.8 0.5
v 0.1 1.8 0.5
v 0.2 1.8 0.5
v -0.2 1.8 0.4
v -0.1 1.8 0.4
v 0.1 1.8 0.4
v 0.2 1.8 0.4
v -0.2 1.8 0.3
v -0.1 1.8 0.3
v 0.1 1.8 0.3
v 0.2 1.8 0.3
v -0.2 1.8 0.2
v -0.1 1.8 0.2
v 0.1 1.8 0.2
v 0.2 1.8 0.2
v -0.2 1.8 0
v -0.1 1.8 0
v 0.1 1.8 0
v 0.2 1.8 0
v -0.2 1.8 -0.1
v -0.1 1.8 -0.1
v 0.1 1.8 -0.1
v 0.2 1.8 -0.1
v -0.2 1.8 -0.4
v -0.1 1.8 -0.4
v 0.1 1.8 -0.4
v 0.2 1.8 -0.4
v -0.1 1.8 -0.5
v 0.1 1.8 -0.5
v -0.1 1.9 0.4
v 0.1 1.9 0.4
v -0.1 1.9 0.3
v 0.1 1.9 0.3
v -0.1 1.9 0.2
v 0.1 1.9 0.2
v -0.1 1.9 0
v 0.1 1.9 0
v -0.1 1.9 -0.1
v 0.1 1.9 -0.1
v -0.1 1.9 -0.4
v 0.1 1.9 -0.4

# faces
f 9/1/1 2/1/1 1/1/1
f 10/1/1 2/1/1 9/1/1
f 11/1/1 4/1/1 3/1/1
f 12/1/1 4/1/1 11/1/1
f 13/1/1 6/1/1 5/1/1
f 14/1/1 6/1/1 13/1/1
f 15/1/1 8/1/1 7/1/1
f 16/1/1 8/1/1 15/1/1
f 23/2/1 18/2/1 17/2/1
f 24/2/1 18/2/1 23/2/1
f 27/2/1 20/2/1 19/2/1
f 29/2/1 22/2/1 21/2/1
f 30/2/1 22/2/1 29/2/1
f 32/3/1 24/3/1 23/3/1
f 33/2/1 25/2/1 24/2/1
f 33/3/1 24/3/1 32/3/1
f 34/2/1 25/2/1 33/2/1
f 35/2/1 27/2/1 26/2/1
f 36/2/1 20/2/1 27/2/1
f 36/2/1 27/2/1 35/2/1
f 37/2/1 31/2/1 30/2/1
f 37/2/1 29/2/1 28/2/1
f 37/2/1 30/2/1 29/2/1
f 38/2/1 31/2/1 37/2/1
f 41/2/1 40/2/1 39/2/1
f 42/2/1 40/2/1 41/2/1
f 43/2/1 40/2/1 42/2/1
f 44/2/1 40/2/1 43/2/1
f 45/2/1 40/2/1 44/2/1
f 46/2/1 40/2/1 45/2/1
f 49/2/1 43/2/1 42/2/1
f 50/2/1 43/2/1 49/2/1
f 51/2/1 45/2/1 44/2/1
f 52/2/1 45/2/1 51/2/1
f 53/2/1 47/2/1 46/2/1
f 54/2/1 47/2/1 53/2/1
f 55/2/1 49/2/1 48/2/1
f 56/2/1 49/2/1 55/2/1
f 57/2/1 51/2/1 50/2/1
f 58/2/1 51/2/1 57/2/1
f 59/2/1 53/2/1 52/2/1
f 60/2/1 53/2/1 59/2/1
f 69/1/1 62/1/1 61/1/1
f 70/1/1 62/1/1 69/1/1
f 71/1/1 64/1/1 63/1/1
f 72/1/1 64/1/1 71/1/1
f 73/1/1 66/1/1 65/1/1
f 74/1/1 66/1/1 73/1/1
f 75/1/1 68/1/1 67/1/1
f 76/1/1 68/1/1 75/1/1
f 77/1/2 78/1/2 85/1/2
f 85/1/2 78/1/2 86/1/2
f 79/1/2 80/1/2 87/1/2
f 87/1/2 80/1/2 88/1/2
f 81/1/2 82/1/2 89/1/2
f 89/1/2 82/1/2 90/1/2
f 83/1/2 84/1/2 91/1/2
f 91/1/2 84/1/2 92/1/2
f 93/2/2 94/2/2 95/2/2
f 95/2/2 94/2/2 96/2/2
f 96/2/2 94/2/2 97/2/2
f 97/2/2 94/2/2 98/2/2
f 98/2/2 94/2/2 99/2/2
f 99/2/2 94/2/2 100/2/2
f 96/2/2 97/2/2 103/2/2
f 103/2/2 97/2/2 104/2/2
f 98/2/2 99/2/2 105/2/2
f 105/2/2 99/2/2 106/2/2
f 100/2/2 101/2/2 107/2/2
f 107/2/2 101/2/2 108/2/2
f 102/2/2 103/2/2 109/2/2
f 109/2/2 103/2/2 110/2/2
f 104/2/2 105/2/2 111/2/2
f 111/2/2 105/2/2 112/2/2
f 106/2/2 107/2/2 113/2/2
f 113/2/2 107/2/2 114/2/2
f 115/2/2 116/2/2 121/2/2
f 121/2/2 116/2/2 122/2/2
f 117/2/2 118/2/2 125/2/2
f 119/2/2 120/2/2 127/2/2
f 127/2/2 120/2/2 128/2/2
f 121/3/2 122/3/2 130/3/2
f 122/2/2 123/2/2 131/2/2
f 130/3/2 122/3/2 131/3/2
f 131/2/2 123/2/2 132/2/2
f 124/2/2 125/2/2 133/2/2
f 125/2/2 118/2/2 134/2/2
f 133/2/2 125/2/2 134/2/2
f 128/2/2 129/2/2 135/2/2
f 126/2/2 127/2/2 135/2/2
f 127/2/2 128/2/2 135/2/2
f 135/2/2 129/2/2 136/2/2
f 137/1/2 138/1/2 145/1/2
f 145/1/2 138/1/2 146/1/2
f 139/1/2 140/1/2 147/1/2
f 147/1/2 140/1/2 148/1/2
f 141/1/2 142/1/2 149/1/2
f 149/1/2 142/1/2 150/1/2
f 143/1/2 144/1/2 151/1/2
f 151/1/2 144/1/2 152/1/2
f 156/2/3 154/2/3 153/2/3
f 156/3/3 155/3/3 154/3/3
f 157/3/3 155/3/3 156/3/3
f 158/2/3 156/2/3 153/2/3
f 158/2/3 157/2/3 156/2/3
f 159/2/3 157/2/3 158/2/3
f 160/2/3 158/2/3 153/2/3
f 161/3/3 159/3/3 158/3/3
f 161/2/3 158/2/3 160/2/3
f 162/3/3 159/3/3 161/3/3
f 165/1/3 164/1/3 163/1/3
f 166/1/3 164/1/3 165/1/3
f 167/1/3 164/1/3 166/1/3
f 172/2/3 169/2/3 168/2/3
f 173/2/3 169/2/3 172/2/3
f 174/2/3 171/2/3 170/2/3
f 175/2/3 171/2/3 174/2/3
f 179/1/3 177/1/3 176/1/3
f 179/1/3 178/1/3 177/1/3
f 180/1/3 178/1/3 179/1/3
f 183/1/3 182/1/3 181/1/3
f 184/1/3 182/1/3 183/1/3
f 185/1/3 182/1/3 184/1/3
f 187/2/3 186/2/3 185/2/3
f 187/2/3 185/2/3 184/2/3
f 188/2/3 186/2/3 187/2/3
f 191/2/3 189/2/3 188/2/3
f 192/2/3 189/2/3 191/2/3
f 194/2/3 191/2/3 190/2/3
f 195/2/3 191/2/3 194/2/3
f 196/2/3 191/2/3 195/2/3
f 197/1/3 194/1/3 193/1/3
f 197/1/3 195/1/3 194/1/3
f 198/1/3 195/1/3 197/1/3
f 201/1/3 200/1/3 199/1/3
f 202/1/3 200/1/3 201/1/3
f 203/1/3 200/1/3 202/1/3
f 205/2/3 204/2/3 203/2/3
f 205/2/3 203/2/3 202/2/3
f 206/2/3 204/2/3 205/2/3
f 209/2/3 207/2/3 206/2/3
f 210/2/3 207/2/3 209/2/3
f 212/2/3 209/2/3 208/2/3
f 213/2/3 209/2/3 212/2/3
f 214/2/3 209/2/3 213/2/3
f 215/1/3 212/1/3 211/1/3
f 215/1/3 213/1/3 212/1/3
f 216/1/3 213/1/3 215/1/3
f 219/1/3 218/1/3 217/1/3
f 220/1/3 218/1/3 219/1/3
f 221/1/3 218/1/3 220/1/3
f 225/1/3 223/1/3 222/1/3
f 225/1/3 224/1/3 223/1/3
f 226/1/3 224/1/3 225/1/3
f 227/1/4 228/1/4 229/1/4
f 229/1/4 228/1/4 230/1/4
f 230/1/4 228/1/4 231/1/4
f 231/2/4 232/2/4 233/2/4
f 230/2/4 231/2/4 233/2/4
f 233/2/4 232/2/4 234/2/4
f 234/2/4 235/2/4 237/2/4
f 237/2/4 235/2/4 238/2/4
f 236/2/4 237/2/4 240/2/4
f 240/2/4 237/2/4 241/2/4
f 241/2/4 237/2/4 242/2/4
f 239/1/4 240/1/4 243/1/4
f 240/1/4 241/1/4 243/1/4
f 243/1/4 241/1/4 244/1/4
f 245/1/4 246/1/4 247/1/4
f 247/1/4 246/1/4 248/1/4
f 248/1/4 246/1/4 249/1/4
f 250/1/4 251/1/4 253/1/4
f 251/1/4 252/1/4 253/1/4
f 253/1/4 252/1/4 254/1/4
f 255/2/4 256/2/4 257/2/4
f 257/2/4 256/2/4 258/2/4
f 258/2/4 259/2/4 261/2/4
f 261/2/4 259/2/4 262/2/4
f 260/2/4 261/2/4 263/2/4
f 263/2/4 261/2/4 264/2/4
f 265/1/4 266/1/4 267/1/4
f 267/1/4 266/1/4 268/1/4
f 268/1/4 266/1/4 269/1/4
f 270/1/4 271/1/4 273/1/4
f 271/1/4 272/1/4 273/1/4
f 273/1/4 272/1/4 274/1/4
f 275/1/4 276/1/4 277/1/4
f 277/1/4 276/1/4 278/1/4
f 278/1/4 276/1/4 279/1/4
f 279/2/4 280/2/4 282/2/4
f 278/2/4 279/2/4 282/2/4
f 282/2/4 280/2/4 283/2/4
f 281/2/4 282/2/4 285/2/4
f 285/2/4 282/2/4 286/2/4
f 283/2/4 284/2/4 287/2/4
f 287/2/4 284/2/4 288/2/4
f 286/2/4 287/2/4 290/2/4
f 290/2/4 287/2/4 291/2/4
f 291/2/4 287/2/4 292/2/4
f 289/1/4 290/1/4 293/1/4
f 290/1/4 291/1/4 293/1/4
f 293/1/4 291/1/4 294/1/4
f 295/2/4 296/2/4 297/2/4
f 297/2/4 296/2/4 298/2/4
f 305/1/5 300/1/5 299/1/5
f 306/1/5 300/1/5 305/1/5
f 307/1/5 304/1/5 303/1/5
f 308/1/5 304/1/5 307/1/5
f 313/1/5 310/1/5 309/1/5
f 314/1/5 310/1/5 313/1/5
f 315/1/5 312/1/5 311/1/5
f 316/1/5 312/1/5 315/1/5
f 321/1/5 318/1/5 317/1/5
f 322/1/5 318/1/5 321/1/5
f 323/1/5 320/1/5 319/1/5
f 324/1/5 320/1/5 323/1/5
f 329/1/5 326/1/5 325/1/5
f 330/1/5 326/1/5 329/1/5
f 331/2/5 302/2/5 301/2/5
f 332/2/5 302/2/5 331/2/5
f 333/1/5 328/1/5 327/1/5
f 334/1/5 328/1/5 333/1/5
f 337/2/5 336/2/5 335/2/5
f 338/2/5 336/2/5 337/2/5
f 339/2/5 336/2/5 338/2/5
f 340/2/5 336/2/5 339/2/5
f 341/2/5 338/2/5 337/2/5
f 342/2/5 338/2/5 341/2/5
f 343/2/5 340/2/5 339/2/5
f 344/2/5 340/2/5 343/2/5
f 349/2/5 346/2/5 345/2/5
f 350/2/5 348/2/5 347/2/5
f 351/2/5 346/2/5 349/2/5
f 352/2/5 346/2/5 351/2/5
f 353/2/5 350/2/5 347/2/5
f 354/2/5 350/2/5 353/2/5
f 359/2/5 356/2/5 355/2/5
f 360/2/5 358/2/5 357/2/5
f 361/2/5 356/2/5 359/2/5
f 362/2/5 360/2/5 357/2/5
f 363/2/5 356/2/5 361/2/5
f 364/2/5 356/2/5 363/2/5
f 365/2/5 362/2/5 357/2/5
f 366/2/5 362/2/5 365/2/5
f 367/2/5 365/2/5 364/2/5
f 368/2/5 365/2/5 367/2/5
f 369/1/6 370/1/6 373/1/6
f 373/1/6 370/1/6 374/1/6
f 371/1/6 372/1/6 375/1/6
f 375/1/6 372/1/6 376/1/6
f 377/1/6 378/1/6 381/1/6
f 381/1/6 378/1/6 382/1/6
f 379/1/6 380/1/6 383/1/6
f 383/1/6 380/1/6 384/1/6
f 385/1/6 386/1/6 389/1/6
f 389/1/6 386/1/6 390/1/6
f 387/1/6 388/1/6 391/1/6
f 391/1/6 388/1/6 392/1/6
f 393/1/6 394/1/6 397/1/6
f 397/1/6 394/1/6 398/1/6
f 395/1/6 396/1/6 399/1/6
f 399/1/6 396/1/6 400/1/6
f 401/3/6 402/3/6 405/3/6
f 402/2/6 403/2/6 406/2/6
f 405/3/6 402/3/6 406/3/6
f 403/3/6 404/3/6 407/3/6
f 406/2/6 403/2/6 407/2/6
f 407/3/6 404/3/6 408/3/6
f 405/2/6 406/2/6 409/2/6
f 409/2/6 406/2/6 410/2/6
f 407/2/6 408/2/6 411/2/6
f 411/2/6 408/2/6 412/2/6
f 410/2/6 411/2/6 414/2/6
f 414/2/6 411/2/6 415/2/6
f 413/2/6 414/2/6 417/2/6
f 417/2/6 414/2/6 418/2/6
f 415/2/6 416/2/6 419/2/6
f 419/2/6 416/2/6 420/2/6
f 418/2/6 419/2/6 422/2/6
f 422/2/6 419/2/6 423/2/6
f 421/2/6 422/2/6 425/2/6
f 425/2/6 422/2/6 426/2/6
f 423/2/6 424/2/6 427/2/6
f 427/2/6 424/2/6 428/2/6
f 426/2/6 427/2/6 429/2/6
f 429/2/6 427/2/6 430/2/6
f 431/2/6 432/2/6 433/2/6
f 433/2/6 432/2/6 434/2/6
f 435/2/6 436/2/6 437/2/6
f 437/2/6 436/2/6 438/2/6
f 439/2/6 440/2/6 441/2/6
f 441/2/6 440/2/6 442/2/6
