# MagicaVoxel @ Ephtracy

# group
o 

# material
mtllib flower2.mtl
usemtl palette

# normals
vn -1 0 0
vn 1 0 0
vn 0 0 1
vn 0 0 -1
vn 0 -1 0
vn 0 1 0

# texcoords
vt 0.892578 0.5
vt 0.974609 0.5

# verts
v -0.3 2.1 0
v -0.3 2.1 -0.1
v -0.3 2.2 0
v -0.3 2.2 -0.1
v -0.3 2.3 0.1
v -0.3 2.3 -0.1
v -0.3 2.4 0.1
v -0.3 2.4 -0.1
v -0.2 2.1 0.1
v -0.2 2.1 0
v -0.2 2.2 0.1
v -0.2 2.2 0
v -0.2 2.2 -0.1
v -0.2 2.3 0.2
v -0.2 2.3 0.1
v -0.2 2.3 -0.1
v -0.2 2.3 -0.2
v -0.2 2.4 0.2
v -0.2 2.4 0.1
v -0.2 2.4 -0.1
v -0.2 2.4 -0.2
v -0.2 2.5 0.1
v -0.2 2.5 -0.1
v -0.1 1.5 0.1
v -0.1 1.5 -0.1
v -0.1 1.6 -0.1
v -0.1 1.6 -0.2
v -0.1 1.7 -0.2
v -0.1 1.7 -0.3
v -0.1 1.8 -0.1
v -0.1 1.8 -0.3
v -0.1 1.9 0.2
v -0.1 1.9 0.1
v -0.1 2 0.3
v -0.1 2 0.2
v -0.1 2.1 0.3
v -0.1 2.1 0.1
v -0.1 2.1 -0.1
v -0.1 2.2 0.2
v -0.1 2.2 0.1
v -0.1 2.2 -0.1
v -0.1 2.2 -0.2
v -0.1 2.3 0.3
v -0.1 2.3 0.2
v -0.1 2.3 0.1
v -0.1 2.3 -0.1
v -0.1 2.3 -0.2
v -0.1 2.3 -0.3
v -0.1 2.4 0.3
v -0.1 2.4 0.2
v -0.1 2.4 0.1
v -0.1 2.4 -0.1
v -0.1 2.4 -0.2
v -0.1 2.4 -0.3
v -0.1 2.5 0.2
v -0.1 2.5 0.1
v -0.1 2.5 -0.1
v -0.1 2.5 -0.2
v 0 1.6 -0.1
v 0 1.6 -0.2
v 0 1.7 -0.1
v 0 1.7 -0.2
v 0 1.7 -0.3
v 0 1.8 -0.2
v 0 1.8 -0.3
v 0 1.9 0.2
v 0 1.9 0.1
v 0 2 0.3
v 0 2 0.2
v 0 2 0.1
v 0 2.1 0.3
v 0 2.1 0.2
v 0.1 1.5 0.1
v 0.1 1.5 -0.1
v 0.1 1.7 -0.1
v 0.1 1.7 -0.2
v 0.1 1.8 0
v 0.1 1.8 -0.1
v 0.1 1.8 -0.2
v 0.1 1.9 0.1
v 0.1 1.9 0
v 0.1 2 0.2
v 0.1 2 0.1
v 0.1 2 -0.1
v 0.1 2.1 0.2
v 0.1 2.1 0.1
v 0.1 2.2 0.2
v 0.1 2.2 0.1
v 0.1 2.2 -0.1
v 0.1 2.2 -0.2
v 0.1 2.3 0.3
v 0.1 2.3 0.2
v 0.1 2.3 0.1
v 0.1 2.3 -0.1
v 0.1 2.3 -0.2
v 0.1 2.3 -0.3
v 0.1 2.4 0.3
v 0.1 2.4 0.2
v 0.1 2.4 0.1
v 0.1 2.4 -0.1
v 0.1 2.4 -0.2
v 0.1 2.4 -0.3
v 0.1 2.5 0.2
v 0.1 2.5 0.1
v 0.1 2.5 -0.1
v 0.1 2.5 -0.2
v 0.2 1.8 0
v 0.2 1.8 -0.1
v 0.2 1.9 0.1
v 0.2 1.9 0
v 0.2 1.9 -0.1
v 0.2 2 0.1
v 0.2 2 0
v 0.2 2.2 0.1
v 0.2 2.2 -0.1
v 0.2 2.3 0.2
v 0.2 2.3 0.1
v 0.2 2.3 -0.1
v 0.2 2.3 -0.2
v 0.2 2.4 0.2
v 0.2 2.4 0.1
v 0.2 2.4 -0.1
v 0.2 2.4 -0.2
v 0.2 2.5 0.1
v 0.2 2.5 -0.1
v 0.3 1.9 0
v 0.3 1.9 -0.1
v 0.3 2 0
v 0.3 2 -0.1
v 0.3 2.3 0.1
v 0.3 2.3 -0.1
v 0.3 2.4 0.1
v 0.3 2.4 -0.1
v -0.1 2 0.3
v -0.1 2.1 0.3
v -0.1 2.3 0.3
v -0.1 2.4 0.3
v 0 2 0.3
v 0 2.1 0.3
v 0.1 2.3 0.3
v 0.1 2.4 0.3
v -0.2 2.3 0.2
v -0.2 2.4 0.2
v -0.1 1.9 0.2
v -0.1 2 0.2
v -0.1 2.2 0.2
v -0.1 2.3 0.2
v -0.1 2.4 0.2
v -0.1 2.5 0.2
v 0 1.9 0.2
v 0 2 0.2
v 0 2.1 0.2
v 0.1 2 0.2
v 0.1 2.1 0.2
v 0.1 2.2 0.2
v 0.1 2.3 0.2
v 0.1 2.4 0.2
v 0.1 2.5 0.2
v 0.2 2.3 0.2
v 0.2 2.4 0.2
v -0.3 2.3 0.1
v -0.3 2.4 0.1
v -0.2 2.1 0.1
v -0.2 2.2 0.1
v -0.2 2.3 0.1
v -0.2 2.4 0.1
v -0.2 2.5 0.1
v -0.1 1.5 0.1
v -0.1 1.9 0.1
v -0.1 2.1 0.1
v -0.1 2.2 0.1
v -0.1 2.3 0.1
v -0.1 2.4 0.1
v -0.1 2.5 0.1
v 0 1.9 0.1
v 0 2 0.1
v 0.1 1.5 0.1
v 0.1 1.9 0.1
v 0.1 2 0.1
v 0.1 2.1 0.1
v 0.1 2.2 0.1
v 0.1 2.3 0.1
v 0.1 2.4 0.1
v 0.1 2.5 0.1
v 0.2 1.9 0.1
v 0.2 2 0.1
v 0.2 2.2 0.1
v 0.2 2.3 0.1
v 0.2 2.4 0.1
v 0.2 2.5 0.1
v 0.3 2.3 0.1
v 0.3 2.4 0.1
v -0.3 2.1 0
v -0.3 2.2 0
v -0.2 2.1 0
v -0.2 2.2 0
v 0.1 1.8 0
v 0.1 1.9 0
v 0.2 1.8 0
v 0.2 1.9 0
v 0.2 2 0
v 0.3 1.9 0
v 0.3 2 0
v -0.3 2.1 -0.1
v -0.3 2.2 -0.1
v -0.3 2.3 -0.1
v -0.3 2.4 -0.1
v -0.2 2.2 -0.1
v -0.2 2.3 -0.1
v -0.2 2.4 -0.1
v -0.2 2.5 -0.1
v -0.1 1.5 -0.1
v -0.1 1.6 -0.1
v -0.1 1.8 -0.1
v -0.1 2.1 -0.1
v -0.1 2.2 -0.1
v -0.1 2.3 -0.1
v -0.1 2.4 -0.1
v -0.1 2.5 -0.1
v 0 1.6 -0.1
v 0 1.7 -0.1
v 0.1 1.5 -0.1
v 0.1 1.7 -0.1
v 0.1 1.8 -0.1
v 0.1 2 -0.1
v 0.1 2.2 -0.1
v 0.1 2.3 -0.1
v 0.1 2.4 -0.1
v 0.1 2.5 -0.1
v 0.2 1.8 -0.1
v 0.2 1.9 -0.1
v 0.2 2.2 -0.1
v 0.2 2.3 -0.1
v 0.2 2.4 -0.1
v 0.2 2.5 -0.1
v 0.3 1.9 -0.1
v 0.3 2 -0.1
v 0.3 2.3 -0.1
v 0.3 2.4 -0.1
v -0.2 2.3 -0.2
v -0.2 2.4 -0.2
v -0.1 1.6 -0.2
v -0.1 1.7 -0.2
v -0.1 2.2 -0.2
v -0.1 2.3 -0.2
v -0.1 2.4 -0.2
v -0.1 2.5 -0.2
v 0 1.6 -0.2
v 0 1.7 -0.2
v 0 1.8 -0.2
v 0.1 1.7 -0.2
v 0.1 1.8 -0.2
v 0.1 2.2 -0.2
v 0.1 2.3 -0.2
v 0.1 2.4 -0.2
v 0.1 2.5 -0.2
v 0.2 2.3 -0.2
v 0.2 2.4 -0.2
v -0.1 1.7 -0.3
v -0.1 1.8 -0.3
v -0.1 2.3 -0.3
v -0.1 2.4 -0.3
v 0 1.7 -0.3
v 0 1.8 -0.3
v 0.1 2.3 -0.3
v 0.1 2.4 -0.3
v -0.1 1.5 0.1
v 0.1 1.5 0.1
v -0.1 1.5 -0.1
v 0.1 1.5 -0.1
v -0.1 1.6 -0.1
v 0 1.6 -0.1
v -0.1 1.6 -0.2
v 0 1.6 -0.2
v 0 1.7 -0.1
v 0.1 1.7 -0.1
v -0.1 1.7 -0.2
v 0 1.7 -0.2
v 0.1 1.7 -0.2
v -0.1 1.7 -0.3
v 0 1.7 -0.3
v 0.1 1.8 0
v 0.2 1.8 0
v 0.1 1.8 -0.1
v 0.2 1.8 -0.1
v -0.1 1.9 0.2
v 0 1.9 0.2
v -0.1 1.9 0.1
v 0 1.9 0.1
v 0.1 1.9 0.1
v 0.2 1.9 0.1
v 0.1 1.9 0
v 0.2 1.9 0
v 0.3 1.9 0
v 0.2 1.9 -0.1
v 0.3 1.9 -0.1
v -0.1 2 0.3
v 0 2 0.3
v -0.1 2 0.2
v 0 2 0.2
v 0.1 2 0.2
v 0 2 0.1
v 0.1 2 0.1
v -0.2 2.1 0.1
v -0.1 2.1 0.1
v -0.3 2.1 0
v -0.2 2.1 0
v -0.3 2.1 -0.1
v -0.1 2.1 -0.1
v -0.1 2.2 0.2
v 0.1 2.2 0.2
v -0.1 2.2 0.1
v 0.1 2.2 0.1
v 0.2 2.2 0.1
v -0.1 2.2 -0.1
v 0.1 2.2 -0.1
v 0.2 2.2 -0.1
v -0.1 2.2 -0.2
v 0.1 2.2 -0.2
v -0.1 2.3 0.3
v 0.1 2.3 0.3
v -0.2 2.3 0.2
v -0.1 2.3 0.2
v 0.1 2.3 0.2
v 0.2 2.3 0.2
v -0.3 2.3 0.1
v -0.2 2.3 0.1
v -0.1 2.3 0.1
v 0.1 2.3 0.1
v 0.2 2.3 0.1
v 0.3 2.3 0.1
v -0.3 2.3 -0.1
v -0.2 2.3 -0.1
v -0.1 2.3 -0.1
v 0.1 2.3 -0.1
v 0.2 2.3 -0.1
v 0.3 2.3 -0.1
v -0.2 2.3 -0.2
v -0.1 2.3 -0.2
v 0.1 2.3 -0.2
v 0.2 2.3 -0.2
v -0.1 2.3 -0.3
v 0.1 2.3 -0.3
v -0.1 1.8 -0.1
v 0.1 1.8 -0.1
v 0 1.8 -0.2
v 0.1 1.8 -0.2
v -0.1 1.8 -0.3
v 0 1.8 -0.3
v 0.1 2 0.1
v 0.2 2 0.1
v 0.2 2 0
v 0.3 2 0
v 0.1 2 -0.1
v 0.3 2 -0.1
v -0.1 2.1 0.3
v 0 2.1 0.3
v 0 2.1 0.2
v 0.1 2.1 0.2
v -0.1 2.1 0.1
v 0.1 2.1 0.1
v -0.3 2.2 0
v -0.2 2.2 0
v -0.3 2.2 -0.1
v -0.2 2.2 -0.1
v -0.1 2.4 0.3
v 0.1 2.4 0.3
v -0.2 2.4 0.2
v -0.1 2.4 0.2
v 0.1 2.4 0.2
v 0.2 2.4 0.2
v -0.3 2.4 0.1
v -0.2 2.4 0.1
v -0.1 2.4 0.1
v 0.1 2.4 0.1
v 0.2 2.4 0.1
v 0.3 2.4 0.1
v -0.3 2.4 -0.1
v -0.2 2.4 -0.1
v -0.1 2.4 -0.1
v 0.1 2.4 -0.1
v 0.2 2.4 -0.1
v 0.3 2.4 -0.1
v -0.2 2.4 -0.2
v -0.1 2.4 -0.2
v 0.1 2.4 -0.2
v 0.2 2.4 -0.2
v -0.1 2.4 -0.3
v 0.1 2.4 -0.3
v -0.1 2.5 0.2
v 0.1 2.5 0.2
v -0.2 2.5 0.1
v -0.1 2.5 0.1
v 0.1 2.5 0.1
v 0.2 2.5 0.1
v -0.2 2.5 -0.1
v -0.1 2.5 -0.1
v 0.1 2.5 -0.1
v 0.2 2.5 -0.1
v -0.1 2.5 -0.2
v 0.1 2.5 -0.2

# faces
f 3/1/1 2/1/1 1/1/1
f 4/1/1 2/1/1 3/1/1
f 7/2/1 6/2/1 5/2/1
f 8/2/1 6/2/1 7/2/1
f 11/1/1 10/1/1 9/1/1
f 12/1/1 10/1/1 11/1/1
f 15/2/1 12/2/1 11/2/1
f 15/2/1 13/2/1 12/2/1
f 16/2/1 13/2/1 15/2/1
f 18/2/1 15/2/1 14/2/1
f 19/2/1 15/2/1 18/2/1
f 20/2/1 17/2/1 16/2/1
f 21/2/1 17/2/1 20/2/1
f 22/2/1 20/2/1 19/2/1
f 23/2/1 20/2/1 22/2/1
f 26/1/1 25/1/1 24/1/1
f 28/1/1 27/1/1 26/1/1
f 30/1/1 26/1/1 24/1/1
f 30/1/1 29/1/1 28/1/1
f 30/1/1 28/1/1 26/1/1
f 31/1/1 29/1/1 30/1/1
f 33/1/1 30/1/1 24/1/1
f 35/1/1 33/1/1 32/1/1
f 36/1/1 35/1/1 34/1/1
f 37/1/1 30/1/1 33/1/1
f 37/1/1 35/1/1 36/1/1
f 37/1/1 33/1/1 35/1/1
f 38/1/1 30/1/1 37/1/1
f 44/2/1 40/2/1 39/2/1
f 45/2/1 40/2/1 44/2/1
f 46/2/1 42/2/1 41/2/1
f 47/2/1 42/2/1 46/2/1
f 49/2/1 44/2/1 43/2/1
f 50/2/1 44/2/1 49/2/1
f 53/2/1 48/2/1 47/2/1
f 54/2/1 48/2/1 53/2/1
f 55/2/1 51/2/1 50/2/1
f 56/2/1 51/2/1 55/2/1
f 57/2/1 53/2/1 52/2/1
f 58/2/1 53/2/1 57/2/1
f 59/1/2 60/1/2 61/1/2
f 61/1/2 60/1/2 62/1/2
f 62/1/2 63/1/2 64/1/2
f 64/1/2 63/1/2 65/1/2
f 66/1/2 67/1/2 69/1/2
f 69/1/2 67/1/2 70/1/2
f 68/1/2 69/1/2 71/1/2
f 71/1/2 69/1/2 72/1/2
f 73/1/2 74/1/2 75/1/2
f 73/1/2 75/1/2 77/1/2
f 75/1/2 76/1/2 77/1/2
f 77/1/2 76/1/2 78/1/2
f 78/1/2 76/1/2 79/1/2
f 73/1/2 77/1/2 80/1/2
f 80/1/2 77/1/2 81/1/2
f 82/1/2 83/1/2 85/1/2
f 83/1/2 84/1/2 85/1/2
f 85/1/2 84/1/2 86/1/2
f 86/1/2 84/1/2 88/1/2
f 88/1/2 84/1/2 89/1/2
f 87/2/2 88/2/2 92/2/2
f 92/2/2 88/2/2 93/2/2
f 89/2/2 90/2/2 94/2/2
f 94/2/2 90/2/2 95/2/2
f 91/2/2 92/2/2 97/2/2
f 97/2/2 92/2/2 98/2/2
f 95/2/2 96/2/2 101/2/2
f 101/2/2 96/2/2 102/2/2
f 98/2/2 99/2/2 103/2/2
f 103/2/2 99/2/2 104/2/2
f 100/2/2 101/2/2 105/2/2
f 105/2/2 101/2/2 106/2/2
f 107/1/2 108/1/2 110/1/2
f 110/1/2 108/1/2 111/1/2
f 109/1/2 110/1/2 112/1/2
f 112/1/2 110/1/2 113/1/2
f 114/2/2 115/2/2 117/2/2
f 117/2/2 115/2/2 118/2/2
f 116/2/2 117/2/2 120/2/2
f 120/2/2 117/2/2 121/2/2
f 118/2/2 119/2/2 122/2/2
f 122/2/2 119/2/2 123/2/2
f 121/2/2 122/2/2 124/2/2
f 124/2/2 122/2/2 125/2/2
f 126/1/2 127/1/2 128/1/2
f 128/1/2 127/1/2 129/1/2
f 130/2/2 131/2/2 132/2/2
f 132/2/2 131/2/2 133/2/2
f 138/1/3 135/1/3 134/1/3
f 139/1/3 135/1/3 138/1/3
f 140/2/3 137/2/3 136/2/3
f 141/2/3 137/2/3 140/2/3
f 147/2/3 143/2/3 142/2/3
f 148/2/3 143/2/3 147/2/3
f 150/1/3 145/1/3 144/1/3
f 151/1/3 145/1/3 150/1/3
f 153/1/3 152/1/3 151/1/3
f 154/1/3 152/1/3 153/1/3
f 155/2/3 147/2/3 146/2/3
f 156/2/3 147/2/3 155/2/3
f 157/2/3 149/2/3 148/2/3
f 158/2/3 149/2/3 157/2/3
f 159/2/3 157/2/3 156/2/3
f 160/2/3 157/2/3 159/2/3
f 165/2/3 162/2/3 161/2/3
f 166/2/3 162/2/3 165/2/3
f 170/1/3 164/1/3 163/1/3
f 171/2/3 165/2/3 164/2/3
f 171/1/3 164/1/3 170/1/3
f 172/2/3 165/2/3 171/2/3
f 173/2/3 167/2/3 166/2/3
f 174/2/3 167/2/3 173/2/3
f 175/1/3 169/1/3 168/1/3
f 177/1/3 175/1/3 168/1/3
f 177/1/3 176/1/3 175/1/3
f 178/1/3 176/1/3 177/1/3
f 179/1/3 176/1/3 178/1/3
f 180/1/3 171/1/3 170/1/3
f 181/1/3 171/1/3 180/1/3
f 185/1/3 179/1/3 178/1/3
f 186/1/3 179/1/3 185/1/3
f 187/2/3 182/2/3 181/2/3
f 188/2/3 182/2/3 187/2/3
f 189/2/3 184/2/3 183/2/3
f 190/2/3 184/2/3 189/2/3
f 191/2/3 189/2/3 188/2/3
f 192/2/3 189/2/3 191/2/3
f 195/1/3 194/1/3 193/1/3
f 196/1/3 194/1/3 195/1/3
f 199/1/3 198/1/3 197/1/3
f 200/1/3 198/1/3 199/1/3
f 202/1/3 201/1/3 200/1/3
f 203/1/3 201/1/3 202/1/3
f 204/1/4 205/1/4 208/1/4
f 206/2/4 207/2/4 209/2/4
f 209/2/4 207/2/4 210/2/4
f 204/1/4 208/1/4 215/1/4
f 208/2/4 209/2/4 216/2/4
f 215/1/4 208/1/4 216/1/4
f 216/2/4 209/2/4 217/2/4
f 210/2/4 211/2/4 218/2/4
f 218/2/4 211/2/4 219/2/4
f 212/1/4 213/1/4 220/1/4
f 212/1/4 220/1/4 222/1/4
f 220/1/4 221/1/4 222/1/4
f 222/1/4 221/1/4 223/1/4
f 214/1/4 215/1/4 224/1/4
f 215/1/4 216/1/4 224/1/4
f 224/1/4 216/1/4 225/1/4
f 225/1/4 216/1/4 226/1/4
f 224/1/4 225/1/4 230/1/4
f 230/1/4 225/1/4 231/1/4
f 226/2/4 227/2/4 232/2/4
f 232/2/4 227/2/4 233/2/4
f 228/2/4 229/2/4 234/2/4
f 234/2/4 229/2/4 235/2/4
f 231/1/4 225/1/4 236/1/4
f 236/1/4 225/1/4 237/1/4
f 233/2/4 234/2/4 238/2/4
f 238/2/4 234/2/4 239/2/4
f 240/2/4 241/2/4 245/2/4
f 245/2/4 241/2/4 246/2/4
f 242/1/4 243/1/4 248/1/4
f 248/1/4 243/1/4 249/1/4
f 249/1/4 250/1/4 251/1/4
f 251/1/4 250/1/4 252/1/4
f 244/2/4 245/2/4 253/2/4
f 253/2/4 245/2/4 254/2/4
f 246/2/4 247/2/4 255/2/4
f 255/2/4 247/2/4 256/2/4
f 254/2/4 255/2/4 257/2/4
f 257/2/4 255/2/4 258/2/4
f 259/1/4 260/1/4 263/1/4
f 263/1/4 260/1/4 264/1/4
f 261/2/4 262/2/4 265/2/4
f 265/2/4 262/2/4 266/2/4
f 269/1/5 268/1/5 267/1/5
f 270/1/5 268/1/5 269/1/5
f 273/1/5 272/1/5 271/1/5
f 274/1/5 272/1/5 273/1/5
f 278/1/5 276/1/5 275/1/5
f 279/1/5 276/1/5 278/1/5
f 280/1/5 278/1/5 277/1/5
f 281/1/5 278/1/5 280/1/5
f 284/1/5 283/1/5 282/1/5
f 285/1/5 283/1/5 284/1/5
f 288/1/5 287/1/5 286/1/5
f 289/1/5 287/1/5 288/1/5
f 292/1/5 291/1/5 290/1/5
f 293/1/5 291/1/5 292/1/5
f 295/1/5 294/1/5 293/1/5
f 296/1/5 294/1/5 295/1/5
f 299/1/5 298/1/5 297/1/5
f 300/1/5 298/1/5 299/1/5
f 302/1/5 301/1/5 300/1/5
f 303/1/5 301/1/5 302/1/5
f 307/1/5 305/1/5 304/1/5
f 308/1/5 307/1/5 306/1/5
f 309/1/5 305/1/5 307/1/5
f 309/1/5 307/1/5 308/1/5
f 312/2/5 311/2/5 310/2/5
f 313/2/5 311/2/5 312/2/5
f 316/2/5 314/2/5 313/2/5
f 317/2/5 314/2/5 316/2/5
f 318/2/5 316/2/5 315/2/5
f 319/2/5 316/2/5 318/2/5
f 323/2/5 321/2/5 320/2/5
f 324/2/5 321/2/5 323/2/5
f 327/2/5 323/2/5 322/2/5
f 328/2/5 323/2/5 327/2/5
f 329/2/5 325/2/5 324/2/5
f 330/2/5 325/2/5 329/2/5
f 332/2/5 327/2/5 326/2/5
f 333/2/5 327/2/5 332/2/5
f 336/2/5 331/2/5 330/2/5
f 337/2/5 331/2/5 336/2/5
f 338/2/5 334/2/5 333/2/5
f 339/2/5 334/2/5 338/2/5
f 340/2/5 336/2/5 335/2/5
f 341/2/5 336/2/5 340/2/5
f 342/2/5 340/2/5 339/2/5
f 343/2/5 340/2/5 342/2/5
f 344/1/6 345/1/6 346/1/6
f 346/1/6 345/1/6 347/1/6
f 344/1/6 346/1/6 348/1/6
f 348/1/6 346/1/6 349/1/6
f 350/1/6 351/1/6 352/1/6
f 350/1/6 352/1/6 354/1/6
f 352/1/6 353/1/6 354/1/6
f 354/1/6 353/1/6 355/1/6
f 356/1/6 357/1/6 358/1/6
f 356/1/6 358/1/6 360/1/6
f 358/1/6 359/1/6 360/1/6
f 360/1/6 359/1/6 361/1/6
f 362/1/6 363/1/6 364/1/6
f 364/1/6 363/1/6 365/1/6
f 366/2/6 367/2/6 369/2/6
f 369/2/6 367/2/6 370/2/6
f 368/2/6 369/2/6 373/2/6
f 373/2/6 369/2/6 374/2/6
f 370/2/6 371/2/6 375/2/6
f 375/2/6 371/2/6 376/2/6
f 372/2/6 373/2/6 378/2/6
f 378/2/6 373/2/6 379/2/6
f 376/2/6 377/2/6 382/2/6
f 382/2/6 377/2/6 383/2/6
f 379/2/6 380/2/6 384/2/6
f 384/2/6 380/2/6 385/2/6
f 381/2/6 382/2/6 386/2/6
f 386/2/6 382/2/6 387/2/6
f 385/2/6 386/2/6 388/2/6
f 388/2/6 386/2/6 389/2/6
f 390/2/6 391/2/6 393/2/6
f 393/2/6 391/2/6 394/2/6
f 392/2/6 393/2/6 396/2/6
f 394/2/6 395/2/6 396/2/6
f 393/2/6 394/2/6 396/2/6
f 396/2/6 395/2/6 397/2/6
f 397/2/6 395/2/6 398/2/6
f 398/2/6 395/2/6 399/2/6
f 397/2/6 398/2/6 400/2/6
f 400/2/6 398/2/6 401/2/6
