# MagicaVoxel @ Ephtracy

# group
o 

# material
mtllib dirt.mtl
usemtl palette

# normals
vn -1 0 0
vn 1 0 0
vn 0 0 1
vn 0 0 -1
vn 0 -1 0
vn 0 1 0

# texcoords
vt 0.970703 0.5
vt 0.974609 0.5
vt 0.978516 0.5

# verts
v -0.5 1.5 0.5
v -0.5 1.5 -0.5
v -0.5 1.6 0.5
v -0.5 1.6 0.1
v -0.5 1.6 -0.1
v -0.5 1.6 -0.5
v -0.5 1.7 0.5
v -0.5 1.7 0.1
v -0.5 1.7 -0.1
v -0.5 1.7 -0.5
v -0.4 1.6 0.1
v -0.4 1.6 -0.1
v -0.4 1.7 0.4
v -0.4 1.7 0.2
v -0.4 1.7 0.1
v -0.4 1.7 -0.1
v -0.4 1.8 0.4
v -0.4 1.8 0.2
v -0.2 1.6 -0.2
v -0.2 1.6 -0.4
v -0.2 1.7 -0.2
v -0.2 1.7 -0.4
v -0.1 1.7 -0.2
v -0.1 1.7 -0.4
v -0.1 1.8 -0.2
v -0.1 1.8 -0.4
v 0 1.6 0.3
v 0 1.6 0.1
v 0 1.7 0.3
v 0 1.7 0.1
v 0.2 1.6 0.1
v 0.2 1.6 0
v 0.2 1.7 0.3
v 0.2 1.7 0.2
v 0.2 1.7 0.1
v 0.2 1.7 0
v 0.2 1.8 0.3
v 0.2 1.8 0.2
v 0.3 1.6 -0.2
v 0.3 1.6 -0.4
v 0.3 1.7 -0.2
v 0.3 1.7 -0.4
v 0.4 1.6 0.5
v 0.4 1.6 0.4
v 0.4 1.6 0
v 0.4 1.6 -0.1
v 0.4 1.6 -0.4
v 0.4 1.6 -0.5
v 0.4 1.7 0.5
v 0.4 1.7 0.4
v 0.4 1.7 0
v 0.4 1.7 -0.1
v 0.4 1.7 -0.4
v 0.4 1.7 -0.5
v -0.4 1.6 -0.2
v -0.4 1.6 -0.4
v -0.4 1.7 -0.2
v -0.4 1.7 -0.4
v -0.3 1.7 0.3
v -0.3 1.7 0.2
v -0.3 1.8 0.3
v -0.3 1.8 0.2
v -0.2 1.6 0.3
v -0.2 1.6 0.1
v -0.2 1.7 0.4
v -0.2 1.7 0.3
v -0.2 1.7 0.1
v -0.2 1.8 0.4
v -0.2 1.8 0.3
v 0 1.6 0
v 0 1.6 -0.1
v 0 1.7 0
v 0 1.7 -0.1
v 0.1 1.6 0.1
v 0.1 1.6 0
v 0.1 1.6 -0.4
v 0.1 1.6 -0.5
v 0.1 1.7 0.1
v 0.1 1.7 0
v 0.1 1.7 -0.2
v 0.1 1.7 -0.4
v 0.1 1.7 -0.5
v 0.1 1.8 -0.2
v 0.1 1.8 -0.4
v 0.2 1.6 0.5
v 0.2 1.6 0.4
v 0.2 1.6 -0.2
v 0.2 1.6 -0.4
v 0.2 1.7 0.5
v 0.2 1.7 0.4
v 0.2 1.7 -0.2
v 0.2 1.7 -0.4
v 0.3 1.7 0.3
v 0.3 1.7 0.2
v 0.3 1.8 0.3
v 0.3 1.8 0.2
v 0.4 1.6 -0.2
v 0.4 1.6 -0.4
v 0.4 1.7 -0.2
v 0.4 1.7 -0.4
v 0.5 1.5 0.5
v 0.5 1.5 -0.5
v 0.5 1.6 0.5
v 0.5 1.6 -0.2
v 0.5 1.6 -0.4
v 0.5 1.6 -0.5
v 0.5 1.7 0.5
v 0.5 1.7 -0.2
v 0.5 1.7 -0.4
v 0.5 1.7 -0.5
v -0.5 1.5 0.5
v -0.5 1.6 0.5
v -0.5 1.7 0.5
v 0.2 1.6 0.5
v 0.2 1.7 0.5
v 0.4 1.6 0.5
v 0.4 1.7 0.5
v 0.5 1.5 0.5
v 0.5 1.6 0.5
v 0.5 1.7 0.5
v -0.4 1.7 0.4
v -0.4 1.8 0.4
v -0.2 1.7 0.4
v -0.2 1.8 0.4
v 0.2 1.6 0.4
v 0.2 1.7 0.4
v 0.4 1.6 0.4
v 0.4 1.7 0.4
v 0.2 1.7 0.3
v 0.2 1.8 0.3
v 0.3 1.7 0.3
v 0.3 1.8 0.3
v -0.2 1.6 0.1
v -0.2 1.7 0.1
v 0 1.6 0.1
v 0 1.7 0.1
v -0.5 1.6 -0.1
v -0.5 1.7 -0.1
v -0.4 1.6 -0.1
v -0.4 1.7 -0.1
v 0 1.6 -0.1
v 0 1.7 -0.1
v 0.4 1.6 -0.1
v 0.4 1.7 -0.1
v -0.1 1.7 -0.2
v -0.1 1.8 -0.2
v 0.1 1.7 -0.2
v 0.1 1.8 -0.2
v -0.4 1.6 -0.4
v -0.4 1.7 -0.4
v -0.2 1.6 -0.4
v -0.2 1.7 -0.4
v 0.4 1.6 -0.4
v 0.4 1.7 -0.4
v 0.5 1.6 -0.4
v 0.5 1.7 -0.4
v -0.3 1.7 0.3
v -0.3 1.8 0.3
v -0.2 1.6 0.3
v -0.2 1.7 0.3
v -0.2 1.8 0.3
v 0 1.6 0.3
v 0 1.7 0.3
v -0.4 1.7 0.2
v -0.4 1.8 0.2
v -0.3 1.7 0.2
v -0.3 1.8 0.2
v 0.2 1.7 0.2
v 0.2 1.8 0.2
v 0.3 1.7 0.2
v 0.3 1.8 0.2
v -0.5 1.6 0.1
v -0.5 1.7 0.1
v -0.4 1.6 0.1
v -0.4 1.7 0.1
v 0.1 1.6 0.1
v 0.1 1.7 0.1
v 0.2 1.6 0.1
v 0.2 1.7 0.1
v 0 1.6 0
v 0 1.7 0
v 0.1 1.6 0
v 0.1 1.7 0
v 0.2 1.6 0
v 0.2 1.7 0
v 0.4 1.6 0
v 0.4 1.7 0
v -0.4 1.6 -0.2
v -0.4 1.7 -0.2
v -0.2 1.6 -0.2
v -0.2 1.7 -0.2
v 0.2 1.6 -0.2
v 0.2 1.7 -0.2
v 0.3 1.6 -0.2
v 0.3 1.7 -0.2
v 0.4 1.6 -0.2
v 0.4 1.7 -0.2
v 0.5 1.6 -0.2
v 0.5 1.7 -0.2
v -0.1 1.7 -0.4
v -0.1 1.8 -0.4
v 0.1 1.6 -0.4
v 0.1 1.7 -0.4
v 0.1 1.8 -0.4
v 0.2 1.6 -0.4
v 0.2 1.7 -0.4
v 0.3 1.6 -0.4
v 0.3 1.7 -0.4
v 0.4 1.6 -0.4
v 0.4 1.7 -0.4
v -0.5 1.5 -0.5
v -0.5 1.6 -0.5
v -0.5 1.7 -0.5
v 0.1 1.6 -0.5
v 0.1 1.7 -0.5
v 0.4 1.6 -0.5
v 0.4 1.7 -0.5
v 0.5 1.5 -0.5
v 0.5 1.6 -0.5
v 0.5 1.7 -0.5
v -0.5 1.5 0.5
v 0.5 1.5 0.5
v -0.5 1.5 -0.5
v 0.5 1.5 -0.5
v 0.2 1.6 0.5
v 0.4 1.6 0.5
v 0.2 1.6 0.4
v 0.4 1.6 0.4
v -0.2 1.6 0.3
v 0 1.6 0.3
v -0.5 1.6 0.1
v -0.4 1.6 0.1
v -0.2 1.6 0.1
v 0 1.6 0.1
v 0.1 1.6 0.1
v 0.2 1.6 0.1
v 0 1.6 0
v 0.1 1.6 0
v 0.2 1.6 0
v 0.4 1.6 0
v -0.5 1.6 -0.1
v -0.4 1.6 -0.1
v 0 1.6 -0.1
v 0.4 1.6 -0.1
v -0.4 1.6 -0.2
v -0.2 1.6 -0.2
v 0.2 1.6 -0.2
v 0.3 1.6 -0.2
v 0.4 1.6 -0.2
v 0.5 1.6 -0.2
v -0.4 1.6 -0.4
v -0.2 1.6 -0.4
v 0.1 1.6 -0.4
v 0.2 1.6 -0.4
v 0.3 1.6 -0.4
v 0.4 1.6 -0.4
v 0.5 1.6 -0.4
v 0.1 1.6 -0.5
v 0.4 1.6 -0.5
v -0.5 1.7 0.5
v 0.2 1.7 0.5
v 0.4 1.7 0.5
v 0.5 1.7 0.5
v -0.4 1.7 0.4
v -0.2 1.7 0.4
v 0.2 1.7 0.4
v 0.4 1.7 0.4
v -0.3 1.7 0.3
v -0.2 1.7 0.3
v 0 1.7 0.3
v 0.2 1.7 0.3
v 0.3 1.7 0.3
v 0.4 1.7 0.3
v -0.4 1.7 0.2
v -0.3 1.7 0.2
v 0.2 1.7 0.2
v 0.3 1.7 0.2
v -0.5 1.7 0.1
v -0.4 1.7 0.1
v -0.2 1.7 0.1
v 0 1.7 0.1
v 0.1 1.7 0.1
v 0.2 1.7 0.1
v 0.3 1.7 0.1
v 0.4 1.7 0.1
v 0 1.7 0
v 0.1 1.7 0
v 0.2 1.7 0
v 0.4 1.7 0
v -0.5 1.7 -0.1
v -0.4 1.7 -0.1
v 0 1.7 -0.1
v 0.4 1.7 -0.1
v -0.4 1.7 -0.2
v -0.2 1.7 -0.2
v -0.1 1.7 -0.2
v 0.1 1.7 -0.2
v 0.2 1.7 -0.2
v 0.3 1.7 -0.2
v 0.4 1.7 -0.2
v 0.5 1.7 -0.2
v -0.4 1.7 -0.4
v -0.2 1.7 -0.4
v -0.1 1.7 -0.4
v 0.1 1.7 -0.4
v 0.2 1.7 -0.4
v 0.3 1.7 -0.4
v 0.4 1.7 -0.4
v 0.5 1.7 -0.4
v -0.5 1.7 -0.5
v 0.1 1.7 -0.5
v 0.4 1.7 -0.5
v 0.5 1.7 -0.5
v -0.4 1.8 0.4
v -0.2 1.8 0.4
v -0.3 1.8 0.3
v -0.2 1.8 0.3
v 0.2 1.8 0.3
v 0.3 1.8 0.3
v -0.4 1.8 0.2
v -0.3 1.8 0.2
v 0.2 1.8 0.2
v 0.3 1.8 0.2
v -0.1 1.8 -0.2
v 0.1 1.8 -0.2
v -0.1 1.8 -0.4
v 0.1 1.8 -0.4

# faces
f 3/3/1 2/3/1 1/3/1
f 4/3/1 2/3/1 3/3/1
f 5/3/1 2/3/1 4/3/1
f 6/3/1 2/3/1 5/3/1
f 7/1/1 4/1/1 3/1/1
f 8/1/1 4/1/1 7/1/1
f 9/1/1 6/1/1 5/1/1
f 10/1/1 6/1/1 9/1/1
f 15/1/1 12/1/1 11/1/1
f 16/1/1 12/1/1 15/1/1
f 17/2/1 14/2/1 13/2/1
f 18/2/1 14/2/1 17/2/1
f 21/1/1 20/1/1 19/1/1
f 22/1/1 20/1/1 21/1/1
f 25/2/1 24/2/1 23/2/1
f 26/2/1 24/2/1 25/2/1
f 29/1/1 28/1/1 27/1/1
f 30/1/1 28/1/1 29/1/1
f 35/1/1 32/1/1 31/1/1
f 36/1/1 32/1/1 35/1/1
f 37/2/1 34/2/1 33/2/1
f 38/2/1 34/2/1 37/2/1
f 41/2/1 40/2/1 39/2/1
f 42/2/1 40/2/1 41/2/1
f 49/1/1 44/1/1 43/1/1
f 50/1/1 44/1/1 49/1/1
f 51/1/1 46/1/1 45/1/1
f 52/1/1 46/1/1 51/1/1
f 53/1/1 48/1/1 47/1/1
f 54/1/1 48/1/1 53/1/1
f 55/1/2 56/1/2 57/1/2
f 57/1/2 56/1/2 58/1/2
f 59/2/2 60/2/2 61/2/2
f 61/2/2 60/2/2 62/2/2
f 63/1/2 64/1/2 66/1/2
f 66/1/2 64/1/2 67/1/2
f 65/2/2 66/2/2 68/2/2
f 68/2/2 66/2/2 69/2/2
f 70/1/2 71/1/2 72/1/2
f 72/1/2 71/1/2 73/1/2
f 74/1/2 75/1/2 78/1/2
f 78/1/2 75/1/2 79/1/2
f 76/1/2 77/1/2 81/1/2
f 81/1/2 77/1/2 82/1/2
f 80/2/2 81/2/2 83/2/2
f 83/2/2 81/2/2 84/2/2
f 85/1/2 86/1/2 89/1/2
f 89/1/2 86/1/2 90/1/2
f 87/1/2 88/1/2 91/1/2
f 91/1/2 88/1/2 92/1/2
f 93/2/2 94/2/2 95/2/2
f 95/2/2 94/2/2 96/2/2
f 97/2/2 98/2/2 99/2/2
f 99/2/2 98/2/2 100/2/2
f 101/3/2 102/3/2 103/3/2
f 103/3/2 102/3/2 104/3/2
f 104/3/2 102/3/2 105/3/2
f 105/3/2 102/3/2 106/3/2
f 103/1/2 104/1/2 107/1/2
f 107/1/2 104/1/2 108/1/2
f 105/1/2 106/1/2 109/1/2
f 109/1/2 106/1/2 110/1/2
f 114/3/3 112/3/3 111/3/3
f 114/1/3 113/1/3 112/1/3
f 115/1/3 113/1/3 114/1/3
f 116/3/3 114/3/3 111/3/3
f 118/3/3 116/3/3 111/3/3
f 119/1/3 117/1/3 116/1/3
f 119/3/3 116/3/3 118/3/3
f 120/1/3 117/1/3 119/1/3
f 123/2/3 122/2/3 121/2/3
f 124/2/3 122/2/3 123/2/3
f 127/1/3 126/1/3 125/1/3
f 128/1/3 126/1/3 127/1/3
f 131/2/3 130/2/3 129/2/3
f 132/2/3 130/2/3 131/2/3
f 135/1/3 134/1/3 133/1/3
f 136/1/3 134/1/3 135/1/3
f 139/1/3 138/1/3 137/1/3
f 140/1/3 138/1/3 139/1/3
f 143/1/3 142/1/3 141/1/3
f 144/1/3 142/1/3 143/1/3
f 147/2/3 146/2/3 145/2/3
f 148/2/3 146/2/3 147/2/3
f 151/1/3 150/1/3 149/1/3
f 152/1/3 150/1/3 151/1/3
f 155/1/3 154/1/3 153/1/3
f 156/1/3 154/1/3 155/1/3
f 157/2/4 158/2/4 160/2/4
f 160/2/4 158/2/4 161/2/4
f 159/1/4 160/1/4 162/1/4
f 162/1/4 160/1/4 163/1/4
f 164/2/4 165/2/4 166/2/4
f 166/2/4 165/2/4 167/2/4
f 168/2/4 169/2/4 170/2/4
f 170/2/4 169/2/4 171/2/4
f 172/1/4 173/1/4 174/1/4
f 174/1/4 173/1/4 175/1/4
f 176/1/4 177/1/4 178/1/4
f 178/1/4 177/1/4 179/1/4
f 180/1/4 181/1/4 182/1/4
f 182/1/4 181/1/4 183/1/4
f 184/1/4 185/1/4 186/1/4
f 186/1/4 185/1/4 187/1/4
f 188/1/4 189/1/4 190/1/4
f 190/1/4 189/1/4 191/1/4
f 192/1/4 193/1/4 194/1/4
f 194/1/4 193/1/4 195/1/4
f 196/1/4 197/1/4 198/1/4
f 198/1/4 197/1/4 199/1/4
f 200/2/4 201/2/4 203/2/4
f 203/2/4 201/2/4 204/2/4
f 202/1/4 203/1/4 205/1/4
f 205/1/4 203/1/4 206/1/4
f 207/2/4 208/2/4 209/2/4
f 209/2/4 208/2/4 210/2/4
f 211/3/4 212/3/4 214/3/4
f 212/1/4 213/1/4 214/1/4
f 214/1/4 213/1/4 215/1/4
f 211/3/4 214/3/4 216/3/4
f 211/3/4 216/3/4 218/3/4
f 216/1/4 217/1/4 219/1/4
f 218/3/4 216/3/4 219/3/4
f 219/1/4 217/1/4 220/1/4
f 223/3/5 222/3/5 221/3/5
f 224/3/5 222/3/5 223/3/5
f 225/3/6 226/3/6 227/3/6
f 227/3/6 226/3/6 228/3/6
f 229/3/6 230/3/6 233/3/6
f 233/3/6 230/3/6 234/3/6
f 235/3/6 236/3/6 238/3/6
f 238/3/6 236/3/6 239/3/6
f 231/3/6 232/3/6 241/3/6
f 241/3/6 232/3/6 242/3/6
f 239/3/6 240/3/6 243/3/6
f 237/3/6 238/3/6 243/3/6
f 238/3/6 239/3/6 243/3/6
f 243/3/6 240/3/6 244/3/6
f 245/3/6 246/3/6 251/3/6
f 251/3/6 246/3/6 252/3/6
f 247/3/6 248/3/6 254/3/6
f 254/3/6 248/3/6 255/3/6
f 249/3/6 250/3/6 256/3/6
f 256/3/6 250/3/6 257/3/6
f 254/3/6 255/3/6 258/3/6
f 255/3/6 256/3/6 258/3/6
f 253/3/6 254/3/6 258/3/6
f 258/3/6 256/3/6 259/3/6
f 260/1/6 261/1/6 264/1/6
f 264/1/6 261/1/6 265/1/6
f 265/1/6 261/1/6 266/1/6
f 262/1/6 263/1/6 267/1/6
f 265/1/6 266/1/6 269/1/6
f 266/1/6 267/1/6 269/1/6
f 269/1/6 267/1/6 270/1/6
f 270/1/6 267/1/6 271/1/6
f 271/1/6 267/1/6 272/1/6
f 267/1/6 263/1/6 273/1/6
f 272/1/6 267/1/6 273/1/6
f 260/1/6 264/1/6 274/1/6
f 268/1/6 269/1/6 275/1/6
f 270/1/6 271/1/6 276/1/6
f 272/2/6 273/2/6 277/2/6
f 260/1/6 274/1/6 278/1/6
f 274/1/6 275/1/6 278/1/6
f 278/1/6 275/1/6 279/1/6
f 275/1/6 269/1/6 280/1/6
f 279/1/6 275/1/6 280/1/6
f 270/1/6 276/1/6 281/1/6
f 276/1/6 277/1/6 281/1/6
f 281/1/6 277/1/6 282/1/6
f 282/1/6 277/1/6 283/1/6
f 277/2/6 273/2/6 284/2/6
f 283/1/6 277/1/6 284/1/6
f 273/1/6 263/1/6 285/1/6
f 284/2/6 273/2/6 285/2/6
f 279/1/6 280/1/6 286/1/6
f 281/1/6 282/1/6 286/1/6
f 280/1/6 281/1/6 286/1/6
f 286/1/6 282/1/6 287/1/6
f 283/1/6 284/1/6 288/1/6
f 284/1/6 285/1/6 288/1/6
f 285/1/6 263/1/6 289/1/6
f 288/1/6 285/1/6 289/1/6
f 279/1/6 286/1/6 291/1/6
f 291/1/6 286/1/6 292/1/6
f 289/1/6 263/1/6 293/1/6
f 291/1/6 292/1/6 294/1/6
f 292/1/6 293/1/6 294/1/6
f 290/1/6 291/1/6 294/1/6
f 294/1/6 293/1/6 295/1/6
f 295/1/6 293/1/6 296/1/6
f 296/1/6 293/1/6 297/1/6
f 297/1/6 293/1/6 298/1/6
f 298/1/6 293/1/6 299/1/6
f 293/1/6 263/1/6 300/1/6
f 299/1/6 293/1/6 300/1/6
f 300/1/6 263/1/6 301/1/6
f 290/1/6 294/1/6 302/1/6
f 295/1/6 296/1/6 303/1/6
f 303/1/6 296/1/6 304/1/6
f 297/1/6 298/1/6 305/1/6
f 305/1/6 298/1/6 306/1/6
f 299/2/6 300/2/6 307/2/6
f 307/2/6 300/2/6 308/2/6
f 303/1/6 304/1/6 310/1/6
f 290/1/6 302/1/6 310/1/6
f 304/1/6 305/1/6 310/1/6
f 302/1/6 303/1/6 310/1/6
f 310/1/6 305/1/6 311/1/6
f 308/1/6 309/1/6 312/1/6
f 312/1/6 309/1/6 313/1/6
f 314/2/6 315/2/6 316/2/6
f 316/2/6 315/2/6 317/2/6
f 314/2/6 316/2/6 320/2/6
f 320/2/6 316/2/6 321/2/6
f 318/2/6 319/2/6 322/2/6
f 322/2/6 319/2/6 323/2/6
f 324/2/6 325/2/6 326/2/6
f 326/2/6 325/2/6 327/2/6
