# MagicaVoxel @ Ephtracy

# group
o 

# material
mtllib canon_tower-1.mtl
usemtl palette

# normals
vn -1 0 0
vn 1 0 0
vn 0 0 1
vn 0 0 -1
vn 0 -1 0
vn 0 1 0

# texcoords
vt 0.892578 0.5
vt 0.896484 0.5
vt 0.900391 0.5

# verts
v -0.7 1 0.5
v -0.7 1 -0.5
v -0.7 1.1 0.5
v -0.7 1.1 -0.5
v -0.5 1 0.7
v -0.5 1 0.5
v -0.5 1 -0.5
v -0.5 1 -0.7
v -0.5 1.1 0.7
v -0.5 1.1 0.5
v -0.5 1.1 0.4
v -0.5 1.1 -0.4
v -0.5 1.1 -0.5
v -0.5 1.1 -0.7
v -0.5 1.5 0.4
v -0.5 1.5 -0.4
v -0.5 1.6 0.5
v -0.5 1.6 -0.5
v -0.4 1.1 0.4
v -0.4 1.1 -0.4
v -0.4 1.5 0.4
v -0.4 1.5 -0.4
v -0.3 1.5 0.2
v -0.3 1.5 -0.2
v -0.3 1.6 0.2
v -0.3 1.6 -0.2
v -0.2 1.6 0.2
v -0.2 1.6 -0.2
v -0.2 1.7 0.2
v -0.2 1.7 -0.2
v 0.2 1.5 0.4
v 0.2 1.5 0.3
v 0.2 1.5 -0.3
v 0.2 1.5 -0.4
v 0.2 1.6 0.4
v 0.2 1.6 0.3
v 0.2 1.6 -0.3
v 0.2 1.6 -0.4
v 0.4 1.1 0.5
v 0.4 1.1 0.4
v 0.4 1.1 -0.4
v 0.4 1.1 -0.5
v 0.4 1.5 0.5
v 0.4 1.5 0.4
v 0.4 1.5 0.2
v 0.4 1.5 -0.2
v 0.4 1.5 -0.4
v 0.4 1.5 -0.5
v 0.4 1.6 0.2
v 0.4 1.6 -0.2
v -0.4 1.1 0.5
v -0.4 1.1 0.4
v -0.4 1.1 -0.4
v -0.4 1.1 -0.5
v -0.4 1.5 0.5
v -0.4 1.5 0.4
v -0.4 1.5 0.2
v -0.4 1.5 -0.2
v -0.4 1.5 -0.4
v -0.4 1.5 -0.5
v -0.4 1.6 0.2
v -0.4 1.6 -0.2
v -0.2 1.5 0.4
v -0.2 1.5 0.3
v -0.2 1.5 -0.3
v -0.2 1.5 -0.4
v -0.2 1.6 0.4
v -0.2 1.6 0.3
v -0.2 1.6 -0.3
v -0.2 1.6 -0.4
v 0.2 1.6 0.2
v 0.2 1.6 -0.2
v 0.2 1.7 0.2
v 0.2 1.7 -0.2
v 0.3 1.5 0.2
v 0.3 1.5 -0.2
v 0.3 1.6 0.2
v 0.3 1.6 -0.2
v 0.4 1.1 0.4
v 0.4 1.1 -0.4
v 0.4 1.5 0.4
v 0.4 1.5 -0.4
v 0.5 1 0.7
v 0.5 1 0.5
v 0.5 1 -0.5
v 0.5 1 -0.7
v 0.5 1.1 0.7
v 0.5 1.1 0.5
v 0.5 1.1 0.4
v 0.5 1.1 -0.4
v 0.5 1.1 -0.5
v 0.5 1.1 -0.7
v 0.5 1.5 0.4
v 0.5 1.5 -0.4
v 0.5 1.6 0.5
v 0.5 1.6 -0.5
v 0.7 1 0.5
v 0.7 1 -0.5
v 0.7 1.1 0.5
v 0.7 1.1 -0.5
v -0.5 1 0.7
v -0.5 1.1 0.7
v 0.5 1 0.7
v 0.5 1.1 0.7
v -0.7 1 0.5
v -0.7 1.1 0.5
v -0.5 1 0.5
v -0.5 1.1 0.5
v -0.5 1.6 0.5
v -0.4 1.1 0.5
v -0.4 1.5 0.5
v 0.4 1.1 0.5
v 0.4 1.5 0.5
v 0.5 1 0.5
v 0.5 1.1 0.5
v 0.5 1.6 0.5
v 0.7 1 0.5
v 0.7 1.1 0.5
v -0.4 1.1 0.4
v -0.4 1.5 0.4
v 0.4 1.1 0.4
v 0.4 1.5 0.4
v -0.2 1.5 0.3
v -0.2 1.6 0.3
v 0.2 1.5 0.3
v 0.2 1.6 0.3
v -0.2 1.6 0.2
v -0.2 1.7 0.2
v 0.2 1.6 0.2
v 0.2 1.7 0.2
v -0.4 1.5 -0.2
v -0.4 1.6 -0.2
v -0.3 1.5 -0.2
v -0.3 1.6 -0.2
v 0.3 1.5 -0.2
v 0.3 1.6 -0.2
v 0.4 1.5 -0.2
v 0.4 1.6 -0.2
v -0.5 1.1 -0.4
v -0.5 1.5 -0.4
v -0.4 1.1 -0.4
v -0.4 1.5 -0.4
v -0.2 1.5 -0.4
v -0.2 1.6 -0.4
v 0.2 1.5 -0.4
v 0.2 1.6 -0.4
v 0.4 1.1 -0.4
v 0.4 1.5 -0.4
v 0.5 1.1 -0.4
v 0.5 1.5 -0.4
v -0.5 1.1 0.4
v -0.5 1.5 0.4
v -0.4 1.1 0.4
v -0.4 1.5 0.4
v -0.2 1.5 0.4
v -0.2 1.6 0.4
v 0.2 1.5 0.4
v 0.2 1.6 0.4
v 0.4 1.1 0.4
v 0.4 1.5 0.4
v 0.5 1.1 0.4
v 0.5 1.5 0.4
v -0.4 1.5 0.2
v -0.4 1.6 0.2
v -0.3 1.5 0.2
v -0.3 1.6 0.2
v 0.3 1.5 0.2
v 0.3 1.6 0.2
v 0.4 1.5 0.2
v 0.4 1.6 0.2
v -0.2 1.6 -0.2
v -0.2 1.7 -0.2
v 0.2 1.6 -0.2
v 0.2 1.7 -0.2
v -0.2 1.5 -0.3
v -0.2 1.6 -0.3
v 0.2 1.5 -0.3
v 0.2 1.6 -0.3
v -0.4 1.1 -0.4
v -0.4 1.5 -0.4
v 0.4 1.1 -0.4
v 0.4 1.5 -0.4
v -0.7 1 -0.5
v -0.7 1.1 -0.5
v -0.5 1 -0.5
v -0.5 1.1 -0.5
v -0.5 1.6 -0.5
v -0.4 1.1 -0.5
v -0.4 1.5 -0.5
v 0.4 1.1 -0.5
v 0.4 1.5 -0.5
v 0.5 1 -0.5
v 0.5 1.1 -0.5
v 0.5 1.6 -0.5
v 0.7 1 -0.5
v 0.7 1.1 -0.5
v -0.5 1 -0.7
v -0.5 1.1 -0.7
v 0.5 1 -0.7
v 0.5 1.1 -0.7
v -0.5 1 0.7
v 0.5 1 0.7
v -0.7 1 0.5
v -0.5 1 0.5
v 0.5 1 0.5
v 0.7 1 0.5
v -0.7 1 -0.5
v -0.5 1 -0.5
v 0.5 1 -0.5
v 0.7 1 -0.5
v -0.5 1 -0.7
v 0.5 1 -0.7
v -0.4 1.5 0.5
v 0.4 1.5 0.5
v -0.5 1.5 0.4
v -0.4 1.5 0.4
v 0.4 1.5 0.4
v 0.5 1.5 0.4
v -0.5 1.5 -0.4
v -0.4 1.5 -0.4
v 0.4 1.5 -0.4
v 0.5 1.5 -0.4
v -0.4 1.5 -0.5
v 0.4 1.5 -0.5
v -0.5 1.1 0.7
v 0.5 1.1 0.7
v -0.7 1.1 0.5
v -0.5 1.1 0.5
v -0.4 1.1 0.5
v 0.4 1.1 0.5
v 0.5 1.1 0.5
v 0.7 1.1 0.5
v -0.5 1.1 0.4
v -0.4 1.1 0.4
v 0.4 1.1 0.4
v 0.5 1.1 0.4
v -0.5 1.1 -0.4
v -0.4 1.1 -0.4
v 0.4 1.1 -0.4
v 0.5 1.1 -0.4
v -0.7 1.1 -0.5
v -0.5 1.1 -0.5
v -0.4 1.1 -0.5
v 0.4 1.1 -0.5
v 0.5 1.1 -0.5
v 0.7 1.1 -0.5
v -0.5 1.1 -0.7
v 0.5 1.1 -0.7
v -0.2 1.5 0.4
v 0.2 1.5 0.4
v -0.2 1.5 0.3
v 0.2 1.5 0.3
v -0.4 1.5 0.2
v -0.3 1.5 0.2
v 0.3 1.5 0.2
v 0.4 1.5 0.2
v -0.4 1.5 -0.2
v -0.3 1.5 -0.2
v 0.3 1.5 -0.2
v 0.4 1.5 -0.2
v -0.2 1.5 -0.3
v 0.2 1.5 -0.3
v -0.2 1.5 -0.4
v 0.2 1.5 -0.4
v -0.5 1.6 0.5
v 0.5 1.6 0.5
v -0.2 1.6 0.4
v 0.2 1.6 0.4
v -0.2 1.6 0.3
v 0.2 1.6 0.3
v -0.4 1.6 0.2
v -0.3 1.6 0.2
v -0.2 1.6 0.2
v 0.2 1.6 0.2
v 0.3 1.6 0.2
v 0.4 1.6 0.2
v -0.4 1.6 -0.2
v -0.3 1.6 -0.2
v -0.2 1.6 -0.2
v 0.2 1.6 -0.2
v 0.3 1.6 -0.2
v 0.4 1.6 -0.2
v -0.2 1.6 -0.3
v 0.2 1.6 -0.3
v -0.2 1.6 -0.4
v 0.2 1.6 -0.4
v -0.5 1.6 -0.5
v 0.5 1.6 -0.5
v -0.2 1.7 0.2
v 0.2 1.7 0.2
v -0.1 1.7 0.1
v 0.1 1.7 0.1
v -0.1 1.7 -0.1
v 0.1 1.7 -0.1
v -0.2 1.7 -0.2
v 0.2 1.7 -0.2

# faces
f 3/2/1 2/2/1 1/2/1
f 4/2/1 2/2/1 3/2/1
f 9/2/1 6/2/1 5/2/1
f 10/2/1 6/2/1 9/2/1
f 13/2/1 8/2/1 7/2/1
f 14/2/1 8/2/1 13/2/1
f 15/2/1 11/2/1 10/2/1
f 16/2/1 13/2/1 12/2/1
f 17/2/1 15/2/1 10/2/1
f 17/2/1 16/2/1 15/2/1
f 18/2/1 13/2/1 16/2/1
f 18/2/1 16/2/1 17/2/1
f 21/3/1 20/3/1 19/3/1
f 22/3/1 20/3/1 21/3/1
f 25/2/1 24/2/1 23/2/1
f 26/2/1 24/2/1 25/2/1
f 29/1/1 28/1/1 27/1/1
f 30/1/1 28/1/1 29/1/1
f 35/2/1 32/2/1 31/2/1
f 36/2/1 32/2/1 35/2/1
f 37/2/1 34/2/1 33/2/1
f 38/2/1 34/2/1 37/2/1
f 43/2/1 40/2/1 39/2/1
f 44/2/1 40/2/1 43/2/1
f 47/2/1 42/2/1 41/2/1
f 48/2/1 42/2/1 47/2/1
f 49/2/1 46/2/1 45/2/1
f 50/2/1 46/2/1 49/2/1
f 51/2/2 52/2/2 55/2/2
f 55/2/2 52/2/2 56/2/2
f 53/2/2 54/2/2 59/2/2
f 59/2/2 54/2/2 60/2/2
f 57/2/2 58/2/2 61/2/2
f 61/2/2 58/2/2 62/2/2
f 63/2/2 64/2/2 67/2/2
f 67/2/2 64/2/2 68/2/2
f 65/2/2 66/2/2 69/2/2
f 69/2/2 66/2/2 70/2/2
f 71/1/2 72/1/2 73/1/2
f 73/1/2 72/1/2 74/1/2
f 75/2/2 76/2/2 77/2/2
f 77/2/2 76/2/2 78/2/2
f 79/3/2 80/3/2 81/3/2
f 81/3/2 80/3/2 82/3/2
f 83/2/2 84/2/2 87/2/2
f 87/2/2 84/2/2 88/2/2
f 85/2/2 86/2/2 91/2/2
f 91/2/2 86/2/2 92/2/2
f 88/2/2 89/2/2 93/2/2
f 90/2/2 91/2/2 94/2/2
f 88/2/2 93/2/2 95/2/2
f 93/2/2 94/2/2 95/2/2
f 94/2/2 91/2/2 96/2/2
f 95/2/2 94/2/2 96/2/2
f 97/2/2 98/2/2 99/2/2
f 99/2/2 98/2/2 100/2/2
f 103/2/3 102/2/3 101/2/3
f 104/2/3 102/2/3 103/2/3
f 107/2/3 106/2/3 105/2/3
f 108/2/3 106/2/3 107/2/3
f 110/2/3 109/2/3 108/2/3
f 111/2/3 109/2/3 110/2/3
f 113/2/3 109/2/3 111/2/3
f 115/2/3 113/2/3 112/2/3
f 116/2/3 109/2/3 113/2/3
f 116/2/3 113/2/3 115/2/3
f 117/2/3 115/2/3 114/2/3
f 118/2/3 115/2/3 117/2/3
f 121/3/3 120/3/3 119/3/3
f 122/3/3 120/3/3 121/3/3
f 125/2/3 124/2/3 123/2/3
f 126/2/3 124/2/3 125/2/3
f 129/1/3 128/1/3 127/1/3
f 130/1/3 128/1/3 129/1/3
f 133/2/3 132/2/3 131/2/3
f 134/2/3 132/2/3 133/2/3
f 137/2/3 136/2/3 135/2/3
f 138/2/3 136/2/3 137/2/3
f 141/2/3 140/2/3 139/2/3
f 142/2/3 140/2/3 141/2/3
f 145/2/3 144/2/3 143/2/3
f 146/2/3 144/2/3 145/2/3
f 149/2/3 148/2/3 147/2/3
f 150/2/3 148/2/3 149/2/3
f 151/2/4 152/2/4 153/2/4
f 153/2/4 152/2/4 154/2/4
f 155/2/4 156/2/4 157/2/4
f 157/2/4 156/2/4 158/2/4
f 159/2/4 160/2/4 161/2/4
f 161/2/4 160/2/4 162/2/4
f 163/2/4 164/2/4 165/2/4
f 165/2/4 164/2/4 166/2/4
f 167/2/4 168/2/4 169/2/4
f 169/2/4 168/2/4 170/2/4
f 171/1/4 172/1/4 173/1/4
f 173/1/4 172/1/4 174/1/4
f 175/2/4 176/2/4 177/2/4
f 177/2/4 176/2/4 178/2/4
f 179/3/4 180/3/4 181/3/4
f 181/3/4 180/3/4 182/3/4
f 183/2/4 184/2/4 185/2/4
f 185/2/4 184/2/4 186/2/4
f 186/2/4 187/2/4 188/2/4
f 188/2/4 187/2/4 189/2/4
f 189/2/4 187/2/4 191/2/4
f 190/2/4 191/2/4 193/2/4
f 191/2/4 187/2/4 194/2/4
f 193/2/4 191/2/4 194/2/4
f 192/2/4 193/2/4 195/2/4
f 195/2/4 193/2/4 196/2/4
f 197/2/4 198/2/4 199/2/4
f 199/2/4 198/2/4 200/2/4
f 204/2/5 202/2/5 201/2/5
f 205/2/5 202/2/5 204/2/5
f 207/2/5 204/2/5 203/2/5
f 207/2/5 206/2/5 205/2/5
f 207/2/5 205/2/5 204/2/5
f 208/2/5 206/2/5 207/2/5
f 209/2/5 206/2/5 208/2/5
f 210/2/5 206/2/5 209/2/5
f 211/2/5 209/2/5 208/2/5
f 212/2/5 209/2/5 211/2/5
f 216/2/5 214/2/5 213/2/5
f 217/2/5 214/2/5 216/2/5
f 219/2/5 216/2/5 215/2/5
f 220/2/5 216/2/5 219/2/5
f 221/2/5 218/2/5 217/2/5
f 222/2/5 218/2/5 221/2/5
f 223/2/5 221/2/5 220/2/5
f 224/2/5 221/2/5 223/2/5
f 225/2/6 226/2/6 228/2/6
f 228/2/6 226/2/6 229/2/6
f 229/2/6 226/2/6 230/2/6
f 230/2/6 226/2/6 231/2/6
f 227/2/6 228/2/6 233/2/6
f 229/2/6 230/2/6 234/2/6
f 234/2/6 230/2/6 235/2/6
f 231/2/6 232/2/6 236/2/6
f 227/2/6 233/2/6 237/2/6
f 233/2/6 234/2/6 237/2/6
f 237/2/6 234/2/6 238/2/6
f 235/2/6 236/2/6 239/2/6
f 236/2/6 232/2/6 240/2/6
f 239/2/6 236/2/6 240/2/6
f 227/2/6 237/2/6 241/2/6
f 241/2/6 237/2/6 242/2/6
f 238/2/6 239/2/6 243/2/6
f 243/2/6 239/2/6 244/2/6
f 240/2/6 232/2/6 245/2/6
f 245/2/6 232/2/6 246/2/6
f 243/2/6 244/2/6 247/2/6
f 244/2/6 245/2/6 247/2/6
f 242/2/6 243/2/6 247/2/6
f 247/2/6 245/2/6 248/2/6
f 249/3/6 250/3/6 251/3/6
f 251/3/6 250/3/6 252/3/6
f 253/3/6 254/3/6 257/3/6
f 257/3/6 254/3/6 258/3/6
f 255/3/6 256/3/6 259/3/6
f 259/3/6 256/3/6 260/3/6
f 261/3/6 262/3/6 263/3/6
f 263/3/6 262/3/6 264/3/6
f 265/2/6 266/2/6 267/2/6
f 267/2/6 266/2/6 268/2/6
f 265/2/6 267/2/6 269/2/6
f 268/2/6 266/2/6 270/2/6
f 265/2/6 269/2/6 271/2/6
f 269/2/6 270/2/6 271/2/6
f 271/2/6 270/2/6 272/2/6
f 272/2/6 270/2/6 273/2/6
f 270/2/6 266/2/6 274/2/6
f 273/2/6 270/2/6 274/2/6
f 274/2/6 266/2/6 275/2/6
f 275/2/6 266/2/6 276/2/6
f 265/2/6 271/2/6 277/2/6
f 272/2/6 273/2/6 278/2/6
f 278/2/6 273/2/6 279/2/6
f 274/2/6 275/2/6 280/2/6
f 280/2/6 275/2/6 281/2/6
f 276/2/6 266/2/6 282/2/6
f 280/2/6 281/2/6 283/2/6
f 281/2/6 282/2/6 283/2/6
f 278/2/6 279/2/6 283/2/6
f 277/2/6 278/2/6 283/2/6
f 279/2/6 280/2/6 283/2/6
f 283/2/6 282/2/6 284/2/6
f 277/2/6 283/2/6 285/2/6
f 284/2/6 282/2/6 286/2/6
f 265/2/6 277/2/6 287/2/6
f 285/2/6 286/2/6 287/2/6
f 277/2/6 285/2/6 287/2/6
f 286/2/6 282/2/6 288/2/6
f 287/2/6 286/2/6 288/2/6
f 282/2/6 266/2/6 288/2/6
f 289/1/6 290/1/6 291/1/6
f 291/1/6 290/1/6 292/1/6
f 289/1/6 291/1/6 293/1/6
f 291/3/6 292/3/6 293/3/6
f 292/1/6 290/1/6 294/1/6
f 293/3/6 292/3/6 294/3/6
f 289/1/6 293/1/6 295/1/6
f 293/1/6 294/1/6 295/1/6
f 294/1/6 290/1/6 296/1/6
f 295/1/6 294/1/6 296/1/6
