# MagicaVoxel @ Ephtracy

# group
o 

# material
mtllib slowing_tower.mtl
usemtl palette

# normals
vn -1 0 0
vn 1 0 0
vn 0 0 1
vn 0 0 -1
vn 0 -1 0
vn 0 1 0

# texcoords
vt 0.919922 0.5
vt 0.931641 0.5
vt 0.935547 0.5

# verts
v -0.8 1 0.6
v -0.8 1 -0.6
v -0.8 1.1 0.6
v -0.8 1.1 -0.6
v -0.6 1 0.8
v -0.6 1 0.6
v -0.6 1 -0.6
v -0.6 1 -0.8
v -0.6 1.1 0.8
v -0.6 1.1 0.6
v -0.6 1.1 0.4
v -0.6 1.1 -0.4
v -0.6 1.1 -0.6
v -0.6 1.1 -0.8
v -0.6 1.2 0.3
v -0.6 1.2 -0.3
v -0.6 1.6 0.3
v -0.6 1.6 -0.3
v -0.6 1.7 0.4
v -0.6 1.7 -0.4
v -0.5 1.1 0.5
v -0.5 1.1 0.4
v -0.5 1.1 -0.4
v -0.5 1.1 -0.5
v -0.5 1.2 0.3
v -0.5 1.2 -0.3
v -0.5 1.6 0.3
v -0.5 1.6 -0.3
v -0.5 1.7 0.5
v -0.5 1.7 0.4
v -0.5 1.7 -0.4
v -0.5 1.7 -0.5
v -0.4 1.1 0.6
v -0.4 1.1 0.5
v -0.4 1.1 -0.5
v -0.4 1.1 -0.6
v -0.4 1.7 0.6
v -0.4 1.7 0.5
v -0.4 1.7 -0.5
v -0.4 1.7 -0.6
v -0.2 1.7 0.2
v -0.2 1.7 -0.2
v -0.2 2.1 0.2
v -0.2 2.1 -0.2
v -0.1 1.6 0.1
v -0.1 1.6 -0.1
v -0.1 1.7 0.1
v -0.1 1.7 -0.1
v 0.2 1.6 0.4
v 0.2 1.6 0.3
v 0.2 1.6 -0.3
v 0.2 1.6 -0.4
v 0.2 1.7 0.4
v 0.2 1.7 0.3
v 0.2 1.7 -0.3
v 0.2 1.7 -0.4
v 0.3 1.2 0.6
v 0.3 1.2 0.5
v 0.3 1.2 -0.5
v 0.3 1.2 -0.6
v 0.3 1.6 0.6
v 0.3 1.6 0.5
v 0.3 1.6 0.3
v 0.3 1.6 0.2
v 0.3 1.6 -0.2
v 0.3 1.6 -0.3
v 0.3 1.6 -0.5
v 0.3 1.6 -0.6
v 0.3 1.7 0.3
v 0.3 1.7 0.2
v 0.3 1.7 -0.2
v 0.3 1.7 -0.3
v 0.4 1.6 0.2
v 0.4 1.6 -0.2
v 0.4 1.7 0.2
v 0.4 1.7 -0.2
v -0.4 1.6 0.2
v -0.4 1.6 -0.2
v -0.4 1.7 0.2
v -0.4 1.7 -0.2
v -0.3 1.2 0.6
v -0.3 1.2 0.5
v -0.3 1.2 -0.5
v -0.3 1.2 -0.6
v -0.3 1.6 0.6
v -0.3 1.6 0.5
v -0.3 1.6 0.3
v -0.3 1.6 0.2
v -0.3 1.6 -0.2
v -0.3 1.6 -0.3
v -0.3 1.6 -0.5
v -0.3 1.6 -0.6
v -0.3 1.7 0.3
v -0.3 1.7 0.2
v -0.3 1.7 -0.2
v -0.3 1.7 -0.3
v -0.2 1.6 0.4
v -0.2 1.6 0.3
v -0.2 1.6 -0.3
v -0.2 1.6 -0.4
v -0.2 1.7 0.4
v -0.2 1.7 0.3
v -0.2 1.7 -0.3
v -0.2 1.7 -0.4
v 0.1 1.6 0.1
v 0.1 1.6 -0.1
v 0.1 1.7 0.1
v 0.1 1.7 -0.1
v 0.2 1.7 0.2
v 0.2 1.7 -0.2
v 0.2 2.1 0.2
v 0.2 2.1 -0.2
v 0.4 1.1 0.6
v 0.4 1.1 0.5
v 0.4 1.1 -0.5
v 0.4 1.1 -0.6
v 0.4 1.7 0.6
v 0.4 1.7 0.5
v 0.4 1.7 -0.5
v 0.4 1.7 -0.6
v 0.5 1.1 0.5
v 0.5 1.1 0.4
v 0.5 1.1 -0.4
v 0.5 1.1 -0.5
v 0.5 1.2 0.3
v 0.5 1.2 -0.3
v 0.5 1.6 0.3
v 0.5 1.6 -0.3
v 0.5 1.7 0.5
v 0.5 1.7 0.4
v 0.5 1.7 -0.4
v 0.5 1.7 -0.5
v 0.6 1 0.8
v 0.6 1 0.6
v 0.6 1 -0.6
v 0.6 1 -0.8
v 0.6 1.1 0.8
v 0.6 1.1 0.6
v 0.6 1.1 0.4
v 0.6 1.1 -0.4
v 0.6 1.1 -0.6
v 0.6 1.1 -0.8
v 0.6 1.2 0.3
v 0.6 1.2 -0.3
v 0.6 1.6 0.3
v 0.6 1.6 -0.3
v 0.6 1.7 0.4
v 0.6 1.7 -0.4
v 0.8 1 0.6
v 0.8 1 -0.6
v 0.8 1.1 0.6
v 0.8 1.1 -0.6
v -0.6 1 0.8
v -0.6 1.1 0.8
v 0.6 1 0.8
v 0.6 1.1 0.8
v -0.8 1 0.6
v -0.8 1.1 0.6
v -0.6 1 0.6
v -0.6 1.1 0.6
v -0.4 1.1 0.6
v -0.4 1.7 0.6
v -0.3 1.2 0.6
v -0.3 1.6 0.6
v 0.3 1.2 0.6
v 0.3 1.6 0.6
v 0.4 1.1 0.6
v 0.4 1.7 0.6
v 0.6 1 0.6
v 0.6 1.1 0.6
v 0.8 1 0.6
v 0.8 1.1 0.6
v -0.5 1.1 0.5
v -0.5 1.7 0.5
v -0.4 1.1 0.5
v -0.4 1.7 0.5
v -0.3 1.2 0.5
v -0.3 1.6 0.5
v 0.3 1.2 0.5
v 0.3 1.6 0.5
v 0.4 1.1 0.5
v 0.4 1.7 0.5
v 0.5 1.1 0.5
v 0.5 1.7 0.5
v -0.6 1.1 0.4
v -0.6 1.7 0.4
v -0.5 1.1 0.4
v -0.5 1.7 0.4
v 0.5 1.1 0.4
v 0.5 1.7 0.4
v 0.6 1.1 0.4
v 0.6 1.7 0.4
v -0.2 1.7 0.2
v -0.2 2.1 0.2
v 0.2 1.7 0.2
v 0.2 2.1 0.2
v -0.1 1.6 0.1
v -0.1 1.7 0.1
v 0.1 1.6 0.1
v 0.1 1.7 0.1
v -0.4 1.6 -0.2
v -0.4 1.7 -0.2
v -0.3 1.6 -0.2
v -0.3 1.7 -0.2
v 0.3 1.6 -0.2
v 0.3 1.7 -0.2
v 0.4 1.6 -0.2
v 0.4 1.7 -0.2
v -0.6 1.2 -0.3
v -0.6 1.6 -0.3
v -0.5 1.2 -0.3
v -0.5 1.6 -0.3
v -0.3 1.6 -0.3
v -0.3 1.7 -0.3
v -0.2 1.6 -0.3
v -0.2 1.7 -0.3
v 0.2 1.6 -0.3
v 0.2 1.7 -0.3
v 0.3 1.6 -0.3
v 0.3 1.7 -0.3
v 0.5 1.2 -0.3
v 0.5 1.6 -0.3
v 0.6 1.2 -0.3
v 0.6 1.6 -0.3
v -0.2 1.6 -0.4
v -0.2 1.7 -0.4
v 0.2 1.6 -0.4
v 0.2 1.7 -0.4
v -0.2 1.6 0.4
v -0.2 1.7 0.4
v 0.2 1.6 0.4
v 0.2 1.7 0.4
v -0.6 1.2 0.3
v -0.6 1.6 0.3
v -0.5 1.2 0.3
v -0.5 1.6 0.3
v -0.3 1.6 0.3
v -0.3 1.7 0.3
v -0.2 1.6 0.3
v -0.2 1.7 0.3
v 0.2 1.6 0.3
v 0.2 1.7 0.3
v 0.3 1.6 0.3
v 0.3 1.7 0.3
v 0.5 1.2 0.3
v 0.5 1.6 0.3
v 0.6 1.2 0.3
v 0.6 1.6 0.3
v -0.4 1.6 0.2
v -0.4 1.7 0.2
v -0.3 1.6 0.2
v -0.3 1.7 0.2
v 0.3 1.6 0.2
v 0.3 1.7 0.2
v 0.4 1.6 0.2
v 0.4 1.7 0.2
v -0.1 1.6 -0.1
v -0.1 1.7 -0.1
v 0.1 1.6 -0.1
v 0.1 1.7 -0.1
v -0.2 1.7 -0.2
v -0.2 2.1 -0.2
v 0.2 1.7 -0.2
v 0.2 2.1 -0.2
v -0.6 1.1 -0.4
v -0.6 1.7 -0.4
v -0.5 1.1 -0.4
v -0.5 1.7 -0.4
v 0.5 1.1 -0.4
v 0.5 1.7 -0.4
v 0.6 1.1 -0.4
v 0.6 1.7 -0.4
v -0.5 1.1 -0.5
v -0.5 1.7 -0.5
v -0.4 1.1 -0.5
v -0.4 1.7 -0.5
v -0.3 1.2 -0.5
v -0.3 1.6 -0.5
v 0.3 1.2 -0.5
v 0.3 1.6 -0.5
v 0.4 1.1 -0.5
v 0.4 1.7 -0.5
v 0.5 1.1 -0.5
v 0.5 1.7 -0.5
v -0.8 1 -0.6
v -0.8 1.1 -0.6
v -0.6 1 -0.6
v -0.6 1.1 -0.6
v -0.4 1.1 -0.6
v -0.4 1.7 -0.6
v -0.3 1.2 -0.6
v -0.3 1.6 -0.6
v 0.3 1.2 -0.6
v 0.3 1.6 -0.6
v 0.4 1.1 -0.6
v 0.4 1.7 -0.6
v 0.6 1 -0.6
v 0.6 1.1 -0.6
v 0.8 1 -0.6
v 0.8 1.1 -0.6
v -0.6 1 -0.8
v -0.6 1.1 -0.8
v 0.6 1 -0.8
v 0.6 1.1 -0.8
v -0.6 1 0.8
v 0.6 1 0.8
v -0.8 1 0.6
v -0.6 1 0.6
v 0.6 1 0.6
v 0.8 1 0.6
v -0.8 1 -0.6
v -0.6 1 -0.6
v 0.6 1 -0.6
v 0.8 1 -0.6
v -0.6 1 -0.8
v 0.6 1 -0.8
v -0.3 1.6 0.6
v 0.3 1.6 0.6
v -0.3 1.6 0.5
v 0.3 1.6 0.5
v -0.6 1.6 0.3
v -0.5 1.6 0.3
v 0.5 1.6 0.3
v 0.6 1.6 0.3
v -0.6 1.6 -0.3
v -0.5 1.6 -0.3
v 0.5 1.6 -0.3
v 0.6 1.6 -0.3
v -0.3 1.6 -0.5
v 0.3 1.6 -0.5
v -0.3 1.6 -0.6
v 0.3 1.6 -0.6
v -0.2 1.7 0.2
v 0.2 1.7 0.2
v -0.1 1.7 0.1
v 0.1 1.7 0.1
v -0.1 1.7 -0.1
v 0.1 1.7 -0.1
v -0.2 1.7 -0.2
v 0.2 1.7 -0.2
v -0.6 1.1 0.8
v 0.6 1.1 0.8
v -0.8 1.1 0.6
v -0.6 1.1 0.6
v -0.4 1.1 0.6
v 0.4 1.1 0.6
v 0.6 1.1 0.6
v 0.8 1.1 0.6
v -0.5 1.1 0.5
v -0.4 1.1 0.5
v 0.4 1.1 0.5
v 0.5 1.1 0.5
v -0.6 1.1 0.4
v -0.5 1.1 0.4
v 0.5 1.1 0.4
v 0.6 1.1 0.4
v -0.6 1.1 -0.4
v -0.5 1.1 -0.4
v 0.5 1.1 -0.4
v 0.6 1.1 -0.4
v -0.5 1.1 -0.5
v -0.4 1.1 -0.5
v 0.4 1.1 -0.5
v 0.5 1.1 -0.5
v -0.8 1.1 -0.6
v -0.6 1.1 -0.6
v -0.4 1.1 -0.6
v 0.4 1.1 -0.6
v 0.6 1.1 -0.6
v 0.8 1.1 -0.6
v -0.6 1.1 -0.8
v 0.6 1.1 -0.8
v -0.3 1.2 0.6
v 0.3 1.2 0.6
v -0.3 1.2 0.5
v 0.3 1.2 0.5
v -0.6 1.2 0.3
v -0.5 1.2 0.3
v 0.5 1.2 0.3
v 0.6 1.2 0.3
v -0.6 1.2 -0.3
v -0.5 1.2 -0.3
v 0.5 1.2 -0.3
v 0.6 1.2 -0.3
v -0.3 1.2 -0.5
v 0.3 1.2 -0.5
v -0.3 1.2 -0.6
v 0.3 1.2 -0.6
v -0.2 1.6 0.4
v 0.2 1.6 0.4
v -0.3 1.6 0.3
v -0.2 1.6 0.3
v 0.2 1.6 0.3
v 0.3 1.6 0.3
v -0.4 1.6 0.2
v -0.3 1.6 0.2
v 0.3 1.6 0.2
v 0.4 1.6 0.2
v -0.1 1.6 0.1
v 0.1 1.6 0.1
v -0.1 1.6 -0.1
v 0.1 1.6 -0.1
v -0.4 1.6 -0.2
v -0.3 1.6 -0.2
v 0.3 1.6 -0.2
v 0.4 1.6 -0.2
v -0.3 1.6 -0.3
v -0.2 1.6 -0.3
v 0.2 1.6 -0.3
v 0.3 1.6 -0.3
v -0.2 1.6 -0.4
v 0.2 1.6 -0.4
v -0.4 1.7 0.6
v 0.4 1.7 0.6
v -0.5 1.7 0.5
v -0.4 1.7 0.5
v 0.4 1.7 0.5
v 0.5 1.7 0.5
v -0.6 1.7 0.4
v -0.5 1.7 0.4
v -0.2 1.7 0.4
v 0.2 1.7 0.4
v 0.5 1.7 0.4
v 0.6 1.7 0.4
v -0.3 1.7 0.3
v -0.2 1.7 0.3
v 0.2 1.7 0.3
v 0.3 1.7 0.3
v -0.4 1.7 0.2
v -0.3 1.7 0.2
v 0.3 1.7 0.2
v 0.4 1.7 0.2
v -0.4 1.7 -0.2
v -0.3 1.7 -0.2
v 0.3 1.7 -0.2
v 0.4 1.7 -0.2
v -0.3 1.7 -0.3
v -0.2 1.7 -0.3
v 0.2 1.7 -0.3
v 0.3 1.7 -0.3
v -0.6 1.7 -0.4
v -0.5 1.7 -0.4
v -0.2 1.7 -0.4
v 0.2 1.7 -0.4
v 0.5 1.7 -0.4
v 0.6 1.7 -0.4
v -0.5 1.7 -0.5
v -0.4 1.7 -0.5
v 0.4 1.7 -0.5
v 0.5 1.7 -0.5
v -0.4 1.7 -0.6
v 0.4 1.7 -0.6
v -0.2 2.1 0.2
v 0.2 2.1 0.2
v -0.2 2.1 -0.2
v 0.2 2.1 -0.2

# faces
f 3/2/1 2/2/1 1/2/1
f 4/2/1 2/2/1 3/2/1
f 9/2/1 6/2/1 5/2/1
f 10/2/1 6/2/1 9/2/1
f 13/2/1 8/2/1 7/2/1
f 14/2/1 8/2/1 13/2/1
f 15/2/1 12/2/1 11/2/1
f 16/2/1 12/2/1 15/2/1
f 17/2/1 15/2/1 11/2/1
f 18/2/1 12/2/1 16/2/1
f 19/2/1 17/2/1 11/2/1
f 19/2/1 18/2/1 17/2/1
f 20/2/1 12/2/1 18/2/1
f 20/2/1 18/2/1 19/2/1
f 27/3/1 26/3/1 25/3/1
f 28/3/1 26/3/1 27/3/1
f 29/2/1 22/2/1 21/2/1
f 30/2/1 22/2/1 29/2/1
f 31/2/1 24/2/1 23/2/1
f 32/2/1 24/2/1 31/2/1
f 37/2/1 34/2/1 33/2/1
f 38/2/1 34/2/1 37/2/1
f 39/2/1 36/2/1 35/2/1
f 40/2/1 36/2/1 39/2/1
f 43/1/1 42/1/1 41/1/1
f 44/1/1 42/1/1 43/1/1
f 47/2/1 46/2/1 45/2/1
f 48/2/1 46/2/1 47/2/1
f 53/2/1 50/2/1 49/2/1
f 54/2/1 50/2/1 53/2/1
f 55/2/1 52/2/1 51/2/1
f 56/2/1 52/2/1 55/2/1
f 61/2/1 58/2/1 57/2/1
f 62/2/1 58/2/1 61/2/1
f 67/2/1 60/2/1 59/2/1
f 68/2/1 60/2/1 67/2/1
f 69/2/1 64/2/1 63/2/1
f 70/2/1 64/2/1 69/2/1
f 71/2/1 66/2/1 65/2/1
f 72/2/1 66/2/1 71/2/1
f 75/2/1 74/2/1 73/2/1
f 76/2/1 74/2/1 75/2/1
f 77/2/2 78/2/2 79/2/2
f 79/2/2 78/2/2 80/2/2
f 81/2/2 82/2/2 85/2/2
f 85/2/2 82/2/2 86/2/2
f 83/2/2 84/2/2 91/2/2
f 91/2/2 84/2/2 92/2/2
f 87/2/2 88/2/2 93/2/2
f 93/2/2 88/2/2 94/2/2
f 89/2/2 90/2/2 95/2/2
f 95/2/2 90/2/2 96/2/2
f 97/2/2 98/2/2 101/2/2
f 101/2/2 98/2/2 102/2/2
f 99/2/2 100/2/2 103/2/2
f 103/2/2 100/2/2 104/2/2
f 105/2/2 106/2/2 107/2/2
f 107/2/2 106/2/2 108/2/2
f 109/1/2 110/1/2 111/1/2
f 111/1/2 110/1/2 112/1/2
f 113/2/2 114/2/2 117/2/2
f 117/2/2 114/2/2 118/2/2
f 115/2/2 116/2/2 119/2/2
f 119/2/2 116/2/2 120/2/2
f 125/3/2 126/3/2 127/3/2
f 127/3/2 126/3/2 128/3/2
f 121/2/2 122/2/2 129/2/2
f 129/2/2 122/2/2 130/2/2
f 123/2/2 124/2/2 131/2/2
f 131/2/2 124/2/2 132/2/2
f 133/2/2 134/2/2 137/2/2
f 137/2/2 134/2/2 138/2/2
f 135/2/2 136/2/2 141/2/2
f 141/2/2 136/2/2 142/2/2
f 139/2/2 140/2/2 143/2/2
f 143/2/2 140/2/2 144/2/2
f 139/2/2 143/2/2 145/2/2
f 144/2/2 140/2/2 146/2/2
f 139/2/2 145/2/2 147/2/2
f 145/2/2 146/2/2 147/2/2
f 146/2/2 140/2/2 148/2/2
f 147/2/2 146/2/2 148/2/2
f 149/2/2 150/2/2 151/2/2
f 151/2/2 150/2/2 152/2/2
f 155/2/3 154/2/3 153/2/3
f 156/2/3 154/2/3 155/2/3
f 159/2/3 158/2/3 157/2/3
f 160/2/3 158/2/3 159/2/3
f 163/2/3 162/2/3 161/2/3
f 164/2/3 162/2/3 163/2/3
f 165/2/3 163/2/3 161/2/3
f 166/2/3 162/2/3 164/2/3
f 167/2/3 165/2/3 161/2/3
f 167/2/3 166/2/3 165/2/3
f 168/2/3 162/2/3 166/2/3
f 168/2/3 166/2/3 167/2/3
f 171/2/3 170/2/3 169/2/3
f 172/2/3 170/2/3 171/2/3
f 175/2/3 174/2/3 173/2/3
f 176/2/3 174/2/3 175/2/3
f 179/3/3 178/3/3 177/3/3
f 180/3/3 178/3/3 179/3/3
f 183/2/3 182/2/3 181/2/3
f 184/2/3 182/2/3 183/2/3
f 187/2/3 186/2/3 185/2/3
f 188/2/3 186/2/3 187/2/3
f 191/2/3 190/2/3 189/2/3
f 192/2/3 190/2/3 191/2/3
f 195/1/3 194/1/3 193/1/3
f 196/1/3 194/1/3 195/1/3
f 199/2/3 198/2/3 197/2/3
f 200/2/3 198/2/3 199/2/3
f 203/2/3 202/2/3 201/2/3
f 204/2/3 202/2/3 203/2/3
f 207/2/3 206/2/3 205/2/3
f 208/2/3 206/2/3 207/2/3
f 211/2/3 210/2/3 209/2/3
f 212/2/3 210/2/3 211/2/3
f 215/2/3 214/2/3 213/2/3
f 216/2/3 214/2/3 215/2/3
f 219/2/3 218/2/3 217/2/3
f 220/2/3 218/2/3 219/2/3
f 223/2/3 222/2/3 221/2/3
f 224/2/3 222/2/3 223/2/3
f 227/2/3 226/2/3 225/2/3
f 228/2/3 226/2/3 227/2/3
f 229/2/4 230/2/4 231/2/4
f 231/2/4 230/2/4 232/2/4
f 233/2/4 234/2/4 235/2/4
f 235/2/4 234/2/4 236/2/4
f 237/2/4 238/2/4 239/2/4
f 239/2/4 238/2/4 240/2/4
f 241/2/4 242/2/4 243/2/4
f 243/2/4 242/2/4 244/2/4
f 245/2/4 246/2/4 247/2/4
f 247/2/4 246/2/4 248/2/4
f 249/2/4 250/2/4 251/2/4
f 251/2/4 250/2/4 252/2/4
f 253/2/4 254/2/4 255/2/4
f 255/2/4 254/2/4 256/2/4
f 257/2/4 258/2/4 259/2/4
f 259/2/4 258/2/4 260/2/4
f 261/1/4 262/1/4 263/1/4
f 263/1/4 262/1/4 264/1/4
f 265/2/4 266/2/4 267/2/4
f 267/2/4 266/2/4 268/2/4
f 269/2/4 270/2/4 271/2/4
f 271/2/4 270/2/4 272/2/4
f 273/2/4 274/2/4 275/2/4
f 275/2/4 274/2/4 276/2/4
f 277/3/4 278/3/4 279/3/4
f 279/3/4 278/3/4 280/3/4
f 281/2/4 282/2/4 283/2/4
f 283/2/4 282/2/4 284/2/4
f 285/2/4 286/2/4 287/2/4
f 287/2/4 286/2/4 288/2/4
f 289/2/4 290/2/4 291/2/4
f 291/2/4 290/2/4 292/2/4
f 289/2/4 291/2/4 293/2/4
f 292/2/4 290/2/4 294/2/4
f 289/2/4 293/2/4 295/2/4
f 293/2/4 294/2/4 295/2/4
f 294/2/4 290/2/4 296/2/4
f 295/2/4 294/2/4 296/2/4
f 297/2/4 298/2/4 299/2/4
f 299/2/4 298/2/4 300/2/4
f 301/2/4 302/2/4 303/2/4
f 303/2/4 302/2/4 304/2/4
f 308/2/5 306/2/5 305/2/5
f 309/2/5 306/2/5 308/2/5
f 311/2/5 308/2/5 307/2/5
f 311/2/5 310/2/5 309/2/5
f 311/2/5 309/2/5 308/2/5
f 312/2/5 310/2/5 311/2/5
f 313/2/5 310/2/5 312/2/5
f 314/2/5 310/2/5 313/2/5
f 315/2/5 313/2/5 312/2/5
f 316/2/5 313/2/5 315/2/5
f 319/2/5 318/2/5 317/2/5
f 320/2/5 318/2/5 319/2/5
f 325/2/5 322/2/5 321/2/5
f 326/2/5 322/2/5 325/2/5
f 327/2/5 324/2/5 323/2/5
f 328/2/5 324/2/5 327/2/5
f 331/2/5 330/2/5 329/2/5
f 332/2/5 330/2/5 331/2/5
f 335/1/5 334/1/5 333/1/5
f 336/1/5 334/1/5 335/1/5
f 337/1/5 335/1/5 333/1/5
f 338/1/5 334/1/5 336/1/5
f 339/1/5 337/1/5 333/1/5
f 339/1/5 338/1/5 337/1/5
f 340/1/5 334/1/5 338/1/5
f 340/1/5 338/1/5 339/1/5
f 341/2/6 342/2/6 344/2/6
f 344/2/6 342/2/6 345/2/6
f 345/2/6 342/2/6 346/2/6
f 346/2/6 342/2/6 347/2/6
f 343/2/6 344/2/6 349/2/6
f 344/2/6 345/2/6 349/2/6
f 349/2/6 345/2/6 350/2/6
f 347/2/6 348/2/6 351/2/6
f 346/2/6 347/2/6 351/2/6
f 351/2/6 348/2/6 352/2/6
f 343/2/6 349/2/6 353/2/6
f 353/2/6 349/2/6 354/2/6
f 352/2/6 348/2/6 355/2/6
f 355/2/6 348/2/6 356/2/6
f 343/2/6 353/2/6 357/2/6
f 356/2/6 348/2/6 360/2/6
f 357/2/6 358/2/6 361/2/6
f 359/2/6 360/2/6 364/2/6
f 361/2/6 362/2/6 365/2/6
f 343/2/6 357/2/6 365/2/6
f 357/2/6 361/2/6 365/2/6
f 365/2/6 362/2/6 366/2/6
f 366/2/6 362/2/6 367/2/6
f 363/2/6 364/2/6 368/2/6
f 364/2/6 360/2/6 369/2/6
f 360/2/6 348/2/6 369/2/6
f 368/2/6 364/2/6 369/2/6
f 369/2/6 348/2/6 370/2/6
f 366/2/6 367/2/6 371/2/6
f 367/2/6 368/2/6 371/2/6
f 368/2/6 369/2/6 371/2/6
f 371/2/6 369/2/6 372/2/6
f 373/2/6 374/2/6 375/2/6
f 375/2/6 374/2/6 376/2/6
f 377/2/6 378/2/6 381/2/6
f 381/2/6 378/2/6 382/2/6
f 379/2/6 380/2/6 383/2/6
f 383/2/6 380/2/6 384/2/6
f 385/2/6 386/2/6 387/2/6
f 387/2/6 386/2/6 388/2/6
f 389/3/6 390/3/6 392/3/6
f 392/3/6 390/3/6 393/3/6
f 391/3/6 392/3/6 396/3/6
f 393/3/6 394/3/6 396/3/6
f 392/3/6 393/3/6 396/3/6
f 396/3/6 394/3/6 397/3/6
f 395/3/6 396/3/6 399/3/6
f 397/3/6 398/3/6 399/3/6
f 396/3/6 397/3/6 399/3/6
f 399/3/6 398/3/6 400/3/6
f 395/3/6 399/3/6 401/3/6
f 400/3/6 398/3/6 402/3/6
f 395/3/6 401/3/6 403/3/6
f 401/3/6 402/3/6 403/3/6
f 403/3/6 402/3/6 404/3/6
f 402/3/6 398/3/6 405/3/6
f 404/3/6 402/3/6 405/3/6
f 405/3/6 398/3/6 406/3/6
f 404/3/6 405/3/6 407/3/6
f 407/3/6 405/3/6 408/3/6
f 408/3/6 405/3/6 409/3/6
f 409/3/6 405/3/6 410/3/6
f 408/3/6 409/3/6 411/3/6
f 411/3/6 409/3/6 412/3/6
f 413/2/6 414/2/6 416/2/6
f 416/2/6 414/2/6 417/2/6
f 415/2/6 416/2/6 420/2/6
f 417/2/6 418/2/6 420/2/6
f 416/2/6 417/2/6 420/2/6
f 420/2/6 418/2/6 421/2/6
f 421/2/6 418/2/6 422/2/6
f 422/2/6 418/2/6 423/2/6
f 419/2/6 420/2/6 425/2/6
f 420/2/6 421/2/6 425/2/6
f 425/2/6 421/2/6 426/2/6
f 423/2/6 424/2/6 427/2/6
f 422/2/6 423/2/6 427/2/6
f 427/2/6 424/2/6 428/2/6
f 419/2/6 425/2/6 429/2/6
f 429/2/6 425/2/6 430/2/6
f 428/2/6 424/2/6 431/2/6
f 431/2/6 424/2/6 432/2/6
f 419/2/6 429/2/6 433/2/6
f 432/2/6 424/2/6 436/2/6
f 433/2/6 434/2/6 437/2/6
f 435/2/6 436/2/6 440/2/6
f 437/2/6 438/2/6 441/2/6
f 419/2/6 433/2/6 441/2/6
f 433/2/6 437/2/6 441/2/6
f 441/2/6 438/2/6 442/2/6
f 442/2/6 438/2/6 443/2/6
f 439/2/6 440/2/6 444/2/6
f 440/2/6 436/2/6 445/2/6
f 436/2/6 424/2/6 445/2/6
f 444/2/6 440/2/6 445/2/6
f 445/2/6 424/2/6 446/2/6
f 442/2/6 443/2/6 447/2/6
f 443/2/6 444/2/6 447/2/6
f 444/2/6 445/2/6 447/2/6
f 447/2/6 445/2/6 448/2/6
f 448/2/6 445/2/6 449/2/6
f 449/2/6 445/2/6 450/2/6
f 448/2/6 449/2/6 451/2/6
f 451/2/6 449/2/6 452/2/6
f 453/1/6 454/1/6 455/1/6
f 455/1/6 454/1/6 456/1/6
