# MagicaVoxel @ Ephtracy

# group
o 

# material
mtllib towerPlate1-1.mtl
usemtl palette

# normals
vn -1 0 0
vn 1 0 0
vn 0 0 1
vn 0 0 -1
vn 0 -1 0
vn 0 1 0

# texcoords
vt 0.0175781 0.5
vt 0.986328 0.5

# verts
v -0.7 0 3.5
v -0.7 0 -0.5
v -0.7 0.3 3.5
v -0.7 0.3 -0.5
v -0.2 0.1 3
v -0.2 0.1 -2.38419e-007
v -0.2 0.3 3
v -0.2 0.3 -2.38419e-007
v 1 0.1 2.3
v 1 0.1 1.8
v 1 0.1 1.2
v 1 0.1 0.7
v 1 0.2 1.8
v 1 0.2 1.2
v 1 0.2 0.7
v 1 0.3 2.3
v 1 0.3 1.8
v 1 0.3 1.2
v 1 0.3 0.7
v 1.5 0.1 2.8
v 1.5 0.1 1.7
v 1.5 0.1 1.3
v 1.5 0.1 1.2
v 1.5 0.1 0.2
v 1.5 0.2 2.8
v 1.5 0.2 1.3
v 1.5 0.2 1.2
v 1.5 0.2 0.2
v 1.5 0.3 2.8
v 1.5 0.3 1.7
v 1.5 0.3 1.3
v 1.5 0.3 0.2
v 1.8 0.1 2.3
v 1.8 0.1 2
v 1.8 0.1 1
v 1.8 0.1 0.9
v 1.8 0.1 0.7
v 1.8 0.2 1
v 1.8 0.2 0.9
v 1.8 0.2 0.7
v 1.8 0.3 2.3
v 1.8 0.3 2
v 1.8 0.3 1
v 1.8 0.3 0.7
v 2.1 0.1 2
v 2.1 0.1 1.8
v 2.1 0.1 1.2
v 2.1 0.1 1
v 2.1 0.2 1.8
v 2.1 0.2 1.2
v 2.1 0.2 1
v 2.1 0.3 2
v 2.1 0.3 1.8
v 2.1 0.3 1.2
v 2.1 0.3 1
v 2.6 0.1 1.7
v 2.6 0.1 1.3
v 2.6 0.2 1.3
v 2.6 0.3 1.7
v 2.6 0.3 1.3
v 3.1 0.1 3.3
v 3.1 0.1 -0.3
v 3.1 0.3 3.3
v 3.1 0.3 -0.3
v -0.5 0.1 3.3
v -0.5 0.1 -0.3
v -0.5 0.3 3.3
v -0.5 0.3 -0.3
v 0 0.1 1.7
v 0 0.1 1.3
v 0 0.2 1.3
v 0 0.3 1.7
v 0 0.3 1.3
v 0.5 0.1 2
v 0.5 0.1 1.8
v 0.5 0.1 1.2
v 0.5 0.1 1
v 0.5 0.2 1.8
v 0.5 0.2 1.2
v 0.5 0.2 1
v 0.5 0.3 2
v 0.5 0.3 1.8
v 0.5 0.3 1.2
v 0.5 0.3 1
v 0.8 0.1 2.3
v 0.8 0.1 2
v 0.8 0.1 1
v 0.8 0.1 0.9
v 0.8 0.1 0.7
v 0.8 0.2 1
v 0.8 0.2 0.9
v 0.8 0.2 0.7
v 0.8 0.3 2.3
v 0.8 0.3 2
v 0.8 0.3 1
v 0.8 0.3 0.7
v 1.1 0.1 2.8
v 1.1 0.1 1.7
v 1.1 0.1 1.3
v 1.1 0.1 1.2
v 1.1 0.1 0.2
v 1.1 0.2 2.8
v 1.1 0.2 1.3
v 1.1 0.2 1.2
v 1.1 0.2 0.2
v 1.1 0.3 2.8
v 1.1 0.3 1.7
v 1.1 0.3 1.3
v 1.1 0.3 0.2
v 1.6 0.1 2.3
v 1.6 0.1 1.8
v 1.6 0.1 1.2
v 1.6 0.1 0.7
v 1.6 0.2 1.8
v 1.6 0.2 1.2
v 1.6 0.2 0.7
v 1.6 0.3 2.3
v 1.6 0.3 1.8
v 1.6 0.3 1.2
v 1.6 0.3 0.7
v 2.8 0.1 3
v 2.8 0.1 -2.38419e-007
v 2.8 0.3 3
v 2.8 0.3 -2.38419e-007
v 3.3 0 3.5
v 3.3 0 -0.5
v 3.3 0.3 3.5
v 3.3 0.3 -0.5
v -0.7 0 3.5
v -0.7 0.3 3.5
v 3.3 0 3.5
v 3.3 0.3 3.5
v -0.2 0.1 3
v -0.2 0.3 3
v 2.8 0.1 3
v 2.8 0.3 3
v 0.5 0.1 1.8
v 0.5 0.2 1.8
v 0.5 0.3 1.8
v 1 0.1 1.8
v 1 0.2 1.8
v 1 0.3 1.8
v 1.6 0.1 1.8
v 1.6 0.2 1.8
v 1.6 0.3 1.8
v 2.1 0.1 1.8
v 2.1 0.2 1.8
v 2.1 0.3 1.8
v 0 0.1 1.3
v 0 0.2 1.3
v 0 0.3 1.3
v 1.1 0.1 1.3
v 1.1 0.2 1.3
v 1.1 0.3 1.3
v 1.5 0.1 1.3
v 1.5 0.2 1.3
v 1.5 0.3 1.3
v 2.6 0.1 1.3
v 2.6 0.2 1.3
v 2.6 0.3 1.3
v 0.5 0.1 1
v 0.5 0.2 1
v 0.5 0.3 1
v 0.8 0.1 1
v 0.8 0.2 1
v 0.8 0.3 1
v 1.8 0.1 1
v 1.8 0.2 1
v 1.8 0.3 1
v 2.1 0.1 1
v 2.1 0.2 1
v 2.1 0.3 1
v 0.8 0.1 0.7
v 0.8 0.2 0.7
v 0.8 0.3 0.7
v 1 0.1 0.7
v 1 0.2 0.7
v 1 0.3 0.7
v 1.6 0.1 0.7
v 1.6 0.2 0.7
v 1.6 0.3 0.7
v 1.8 0.1 0.7
v 1.8 0.2 0.7
v 1.8 0.3 0.7
v 1.1 0.1 0.2
v 1.1 0.2 0.2
v 1.1 0.3 0.2
v 1.5 0.1 0.2
v 1.5 0.2 0.2
v 1.5 0.3 0.2
v -0.5 0.1 -0.3
v -0.5 0.3 -0.3
v 3.1 0.1 -0.3
v 3.1 0.3 -0.3
v -0.5 0.1 3.3
v -0.5 0.3 3.3
v 3.1 0.1 3.3
v 3.1 0.3 3.3
v 1.1 0.1 2.8
v 1.1 0.2 2.8
v 1.1 0.3 2.8
v 1.5 0.1 2.8
v 1.5 0.2 2.8
v 1.5 0.3 2.8
v 0.8 0.1 2.3
v 0.8 0.3 2.3
v 1 0.1 2.3
v 1 0.3 2.3
v 1.6 0.1 2.3
v 1.6 0.3 2.3
v 1.8 0.1 2.3
v 1.8 0.3 2.3
v 0.5 0.1 2
v 0.5 0.3 2
v 0.8 0.1 2
v 0.8 0.3 2
v 1.8 0.1 2
v 1.8 0.3 2
v 2.1 0.1 2
v 2.1 0.3 2
v 0 0.1 1.7
v 0 0.3 1.7
v 0.5 0.1 1.7
v 0.5 0.2 1.7
v 1 0.1 1.7
v 1 0.2 1.7
v 1.1 0.1 1.7
v 1.1 0.3 1.7
v 1.5 0.1 1.7
v 1.5 0.3 1.7
v 1.6 0.1 1.7
v 1.6 0.2 1.7
v 2.1 0.1 1.7
v 2.1 0.2 1.7
v 2.6 0.1 1.7
v 2.6 0.3 1.7
v 0.5 0.1 1.2
v 0.5 0.2 1.2
v 0.5 0.3 1.2
v 1 0.1 1.2
v 1 0.2 1.2
v 1 0.3 1.2
v 1.6 0.1 1.2
v 1.6 0.2 1.2
v 1.6 0.3 1.2
v 2.1 0.1 1.2
v 2.1 0.2 1.2
v 2.1 0.3 1.2
v -0.2 0.1 -2.38419e-007
v -0.2 0.3 -2.38419e-007
v 2.8 0.1 -2.38419e-007
v 2.8 0.3 -2.38419e-007
v -0.7 0 -0.5
v -0.7 0.3 -0.5
v 3.3 0 -0.5
v 3.3 0.3 -0.5
v -0.7 0 3.5
v 3.3 0 3.5
v -0.7 0 -0.5
v 3.3 0 -0.5
v -0.5 0.1 3.3
v 3.1 0.1 3.3
v -0.2 0.1 3
v 2.8 0.1 3
v 1.1 0.1 2.8
v 1.5 0.1 2.8
v 0.8 0.1 2.3
v 1 0.1 2.3
v 1.6 0.1 2.3
v 1.8 0.1 2.3
v 0.5 0.1 2
v 0.8 0.1 2
v 1.8 0.1 2
v 2.1 0.1 2
v 0.5 0.1 1.8
v 1 0.1 1.8
v 1.6 0.1 1.8
v 2.1 0.1 1.8
v 0 0.1 1.7
v 0.5 0.1 1.7
v 1 0.1 1.7
v 1.1 0.1 1.7
v 1.5 0.1 1.7
v 1.6 0.1 1.7
v 2.1 0.1 1.7
v 2.6 0.1 1.7
v 0 0.1 1.3
v 1.1 0.1 1.3
v 1.5 0.1 1.3
v 2.6 0.1 1.3
v 0.5 0.1 1.2
v 1 0.1 1.2
v 1.1 0.1 1.2
v 1.5 0.1 1.2
v 1.6 0.1 1.2
v 2.1 0.1 1.2
v 0.5 0.1 1
v 0.8 0.1 1
v 1.8 0.1 1
v 2.1 0.1 1
v 0.8 0.1 0.9
v 1.8 0.1 0.9
v 0.8 0.1 0.7
v 1 0.1 0.7
v 1.6 0.1 0.7
v 1.8 0.1 0.7
v 1.1 0.1 0.2
v 1.5 0.1 0.2
v -0.2 0.1 -2.38419e-007
v 2.8 0.1 -2.38419e-007
v -0.5 0.1 -0.3
v 3.1 0.1 -0.3
v -0.7 0.3 3.5
v 3.3 0.3 3.5
v -0.5 0.3 3.3
v 3.1 0.3 3.3
v -0.2 0.3 3
v 2.8 0.3 3
v 1.1 0.3 2.8
v 1.5 0.3 2.8
v 0.8 0.3 2.3
v 1 0.3 2.3
v 1.6 0.3 2.3
v 1.8 0.3 2.3
v 0.5 0.3 2
v 0.8 0.3 2
v 1.8 0.3 2
v 2.1 0.3 2
v 0.5 0.3 1.8
v 1 0.3 1.8
v 1.6 0.3 1.8
v 2.1 0.3 1.8
v 0 0.3 1.7
v 1.1 0.3 1.7
v 1.5 0.3 1.7
v 2.6 0.3 1.7
v 0 0.3 1.3
v 1.1 0.3 1.3
v 1.5 0.3 1.3
v 2.6 0.3 1.3
v 0.5 0.3 1.2
v 1 0.3 1.2
v 1.6 0.3 1.2
v 2.1 0.3 1.2
v 0.5 0.3 1
v 0.8 0.3 1
v 1.8 0.3 1
v 2.1 0.3 1
v 0.8 0.3 0.7
v 1 0.3 0.7
v 1.6 0.3 0.7
v 1.8 0.3 0.7
v 1.1 0.3 0.2
v 1.5 0.3 0.2
v -0.2 0.3 -2.38419e-007
v 2.8 0.3 -2.38419e-007
v -0.5 0.3 -0.3
v 3.1 0.3 -0.3
v -0.7 0.3 -0.5
v 3.3 0.3 -0.5

# faces
f 3/2/1 2/2/1 1/2/1
f 4/2/1 2/2/1 3/2/1
f 7/2/1 6/2/1 5/2/1
f 8/2/1 6/2/1 7/2/1
f 13/2/1 10/2/1 9/2/1
f 14/2/1 12/2/1 11/2/1
f 15/2/1 12/2/1 14/2/1
f 16/2/1 13/2/1 9/2/1
f 17/2/1 13/2/1 16/2/1
f 18/2/1 15/2/1 14/2/1
f 19/2/1 15/2/1 18/2/1
f 25/2/1 21/2/1 20/2/1
f 26/1/1 23/1/1 22/1/1
f 27/2/1 24/2/1 23/2/1
f 27/1/1 23/1/1 26/1/1
f 28/2/1 24/2/1 27/2/1
f 29/2/1 21/2/1 25/2/1
f 30/2/1 21/2/1 29/2/1
f 31/2/1 27/2/1 26/2/1
f 31/2/1 28/2/1 27/2/1
f 32/2/1 28/2/1 31/2/1
f 38/1/1 36/1/1 35/1/1
f 39/2/1 37/2/1 36/2/1
f 39/1/1 36/1/1 38/1/1
f 40/2/1 37/2/1 39/2/1
f 41/2/1 34/2/1 33/2/1
f 42/2/1 34/2/1 41/2/1
f 43/2/1 39/2/1 38/2/1
f 43/2/1 40/2/1 39/2/1
f 44/2/1 40/2/1 43/2/1
f 49/2/1 46/2/1 45/2/1
f 50/2/1 48/2/1 47/2/1
f 51/2/1 48/2/1 50/2/1
f 52/2/1 49/2/1 45/2/1
f 53/2/1 49/2/1 52/2/1
f 54/2/1 51/2/1 50/2/1
f 55/2/1 51/2/1 54/2/1
f 58/2/1 57/2/1 56/2/1
f 59/2/1 58/2/1 56/2/1
f 60/2/1 58/2/1 59/2/1
f 63/2/1 62/2/1 61/2/1
f 64/2/1 62/2/1 63/2/1
f 65/2/2 66/2/2 67/2/2
f 67/2/2 66/2/2 68/2/2
f 69/2/2 70/2/2 71/2/2
f 69/2/2 71/2/2 72/2/2
f 72/2/2 71/2/2 73/2/2
f 74/2/2 75/2/2 78/2/2
f 76/2/2 77/2/2 79/2/2
f 79/2/2 77/2/2 80/2/2
f 74/2/2 78/2/2 81/2/2
f 81/2/2 78/2/2 82/2/2
f 79/2/2 80/2/2 83/2/2
f 83/2/2 80/2/2 84/2/2
f 87/1/2 88/1/2 90/1/2
f 88/2/2 89/2/2 91/2/2
f 90/1/2 88/1/2 91/1/2
f 91/2/2 89/2/2 92/2/2
f 85/2/2 86/2/2 93/2/2
f 93/2/2 86/2/2 94/2/2
f 90/2/2 91/2/2 95/2/2
f 91/2/2 92/2/2 95/2/2
f 95/2/2 92/2/2 96/2/2
f 97/2/2 98/2/2 102/2/2
f 99/1/2 100/1/2 103/1/2
f 100/2/2 101/2/2 104/2/2
f 103/1/2 100/1/2 104/1/2
f 104/2/2 101/2/2 105/2/2
f 102/2/2 98/2/2 106/2/2
f 106/2/2 98/2/2 107/2/2
f 103/2/2 104/2/2 108/2/2
f 104/2/2 105/2/2 108/2/2
f 108/2/2 105/2/2 109/2/2
f 110/2/2 111/2/2 114/2/2
f 112/2/2 113/2/2 115/2/2
f 115/2/2 113/2/2 116/2/2
f 110/2/2 114/2/2 117/2/2
f 117/2/2 114/2/2 118/2/2
f 115/2/2 116/2/2 119/2/2
f 119/2/2 116/2/2 120/2/2
f 121/2/2 122/2/2 123/2/2
f 123/2/2 122/2/2 124/2/2
f 125/2/2 126/2/2 127/2/2
f 127/2/2 126/2/2 128/2/2
f 131/2/3 130/2/3 129/2/3
f 132/2/3 130/2/3 131/2/3
f 135/2/3 134/2/3 133/2/3
f 136/2/3 134/2/3 135/2/3
f 140/1/3 138/1/3 137/1/3
f 141/2/3 139/2/3 138/2/3
f 141/1/3 138/1/3 140/1/3
f 142/2/3 139/2/3 141/2/3
f 146/1/3 144/1/3 143/1/3
f 147/2/3 145/2/3 144/2/3
f 147/1/3 144/1/3 146/1/3
f 148/2/3 145/2/3 147/2/3
f 152/1/3 150/1/3 149/1/3
f 153/2/3 151/2/3 150/2/3
f 153/1/3 150/1/3 152/1/3
f 154/2/3 151/2/3 153/2/3
f 158/1/3 156/1/3 155/1/3
f 159/2/3 157/2/3 156/2/3
f 159/1/3 156/1/3 158/1/3
f 160/2/3 157/2/3 159/2/3
f 164/1/3 162/1/3 161/1/3
f 165/2/3 163/2/3 162/2/3
f 165/1/3 162/1/3 164/1/3
f 166/2/3 163/2/3 165/2/3
f 170/1/3 168/1/3 167/1/3
f 171/2/3 169/2/3 168/2/3
f 171/1/3 168/1/3 170/1/3
f 172/2/3 169/2/3 171/2/3
f 176/1/3 174/1/3 173/1/3
f 177/2/3 175/2/3 174/2/3
f 177/1/3 174/1/3 176/1/3
f 178/2/3 175/2/3 177/2/3
f 182/1/3 180/1/3 179/1/3
f 183/2/3 181/2/3 180/2/3
f 183/1/3 180/1/3 182/1/3
f 184/2/3 181/2/3 183/2/3
f 188/1/3 186/1/3 185/1/3
f 189/2/3 187/2/3 186/2/3
f 189/1/3 186/1/3 188/1/3
f 190/2/3 187/2/3 189/2/3
f 193/2/3 192/2/3 191/2/3
f 194/2/3 192/2/3 193/2/3
f 195/2/4 196/2/4 197/2/4
f 197/2/4 196/2/4 198/2/4
f 199/1/4 200/1/4 202/1/4
f 200/2/4 201/2/4 203/2/4
f 202/1/4 200/1/4 203/1/4
f 203/2/4 201/2/4 204/2/4
f 205/2/4 206/2/4 207/2/4
f 207/2/4 206/2/4 208/2/4
f 209/2/4 210/2/4 211/2/4
f 211/2/4 210/2/4 212/2/4
f 213/2/4 214/2/4 215/2/4
f 215/2/4 214/2/4 216/2/4
f 217/2/4 218/2/4 219/2/4
f 219/2/4 218/2/4 220/2/4
f 221/2/4 222/2/4 223/2/4
f 223/2/4 222/2/4 224/2/4
f 223/1/4 224/1/4 225/1/4
f 224/2/4 222/2/4 226/2/4
f 225/1/4 224/1/4 226/1/4
f 225/2/4 226/2/4 227/2/4
f 226/2/4 222/2/4 228/2/4
f 227/2/4 226/2/4 228/2/4
f 229/2/4 230/2/4 231/2/4
f 231/2/4 230/2/4 232/2/4
f 231/1/4 232/1/4 233/1/4
f 232/2/4 230/2/4 234/2/4
f 233/1/4 232/1/4 234/1/4
f 233/2/4 234/2/4 235/2/4
f 234/2/4 230/2/4 236/2/4
f 235/2/4 234/2/4 236/2/4
f 237/1/4 238/1/4 240/1/4
f 238/2/4 239/2/4 241/2/4
f 240/1/4 238/1/4 241/1/4
f 241/2/4 239/2/4 242/2/4
f 243/1/4 244/1/4 246/1/4
f 244/2/4 245/2/4 247/2/4
f 246/1/4 244/1/4 247/1/4
f 247/2/4 245/2/4 248/2/4
f 249/2/4 250/2/4 251/2/4
f 251/2/4 250/2/4 252/2/4
f 253/2/4 254/2/4 255/2/4
f 255/2/4 254/2/4 256/2/4
f 259/2/5 258/2/5 257/2/5
f 260/2/5 258/2/5 259/2/5
f 261/2/6 262/2/6 263/2/6
f 263/2/6 262/2/6 264/2/6
f 267/2/6 268/2/6 272/2/6
f 269/2/6 270/2/6 273/2/6
f 271/2/6 272/2/6 275/2/6
f 272/2/6 268/2/6 276/2/6
f 275/2/6 272/2/6 276/2/6
f 273/2/6 274/2/6 277/2/6
f 269/2/6 273/2/6 277/2/6
f 277/2/6 274/2/6 278/2/6
f 265/2/6 266/2/6 282/2/6
f 282/2/6 266/2/6 283/2/6
f 280/2/6 281/2/6 287/2/6
f 285/2/6 286/2/6 287/2/6
f 283/2/6 284/2/6 287/2/6
f 282/2/6 283/2/6 287/2/6
f 281/2/6 282/2/6 287/2/6
f 284/2/6 285/2/6 287/2/6
f 279/2/6 280/2/6 287/2/6
f 287/2/6 286/2/6 288/2/6
f 288/2/6 286/2/6 289/2/6
f 289/2/6 286/2/6 290/2/6
f 288/2/6 289/2/6 293/2/6
f 293/2/6 289/2/6 294/2/6
f 291/2/6 292/2/6 297/2/6
f 297/2/6 292/2/6 298/2/6
f 295/2/6 296/2/6 299/2/6
f 299/2/6 296/2/6 300/2/6
f 298/2/6 292/2/6 301/2/6
f 295/2/6 299/2/6 302/2/6
f 301/2/6 292/2/6 303/2/6
f 303/2/6 292/2/6 304/2/6
f 295/2/6 302/2/6 305/2/6
f 305/2/6 302/2/6 306/2/6
f 293/2/6 294/2/6 307/2/6
f 307/2/6 294/2/6 308/2/6
f 261/2/6 263/2/6 309/2/6
f 264/2/6 262/2/6 310/2/6
f 261/2/6 309/2/6 311/2/6
f 309/2/6 310/2/6 311/2/6
f 310/2/6 262/2/6 312/2/6
f 311/2/6 310/2/6 312/2/6
f 313/2/6 314/2/6 315/2/6
f 315/2/6 314/2/6 316/2/6
f 317/2/6 318/2/6 319/2/6
f 319/2/6 318/2/6 320/2/6
f 317/2/6 319/2/6 321/2/6
f 321/2/6 319/2/6 322/2/6
f 320/2/6 318/2/6 323/2/6
f 323/2/6 318/2/6 324/2/6
f 317/2/6 321/2/6 325/2/6
f 325/2/6 321/2/6 326/2/6
f 324/2/6 318/2/6 327/2/6
f 327/2/6 318/2/6 328/2/6
f 317/2/6 325/2/6 329/2/6
f 322/2/6 319/2/6 330/2/6
f 320/2/6 323/2/6 331/2/6
f 328/2/6 318/2/6 332/2/6
f 317/2/6 329/2/6 333/2/6
f 329/2/6 330/2/6 333/2/6
f 330/2/6 319/2/6 334/2/6
f 333/2/6 330/2/6 334/2/6
f 331/2/6 332/2/6 335/2/6
f 320/2/6 331/2/6 335/2/6
f 332/2/6 318/2/6 336/2/6
f 335/2/6 332/2/6 336/2/6
f 317/2/6 333/2/6 337/2/6
f 336/2/6 318/2/6 340/2/6
f 337/2/6 338/2/6 341/2/6
f 341/2/6 338/2/6 342/2/6
f 339/2/6 340/2/6 343/2/6
f 343/2/6 340/2/6 344/2/6
f 337/2/6 341/2/6 345/2/6
f 344/2/6 340/2/6 348/2/6
f 345/2/6 346/2/6 349/2/6
f 342/2/6 338/2/6 350/2/6
f 339/2/6 343/2/6 351/2/6
f 347/2/6 348/2/6 352/2/6
f 349/2/6 350/2/6 353/2/6
f 350/2/6 338/2/6 353/2/6
f 339/2/6 351/2/6 354/2/6
f 351/2/6 352/2/6 354/2/6
f 345/2/6 349/2/6 355/2/6
f 353/2/6 354/2/6 355/2/6
f 317/2/6 337/2/6 355/2/6
f 349/2/6 353/2/6 355/2/6
f 337/2/6 345/2/6 355/2/6
f 354/2/6 352/2/6 356/2/6
f 355/2/6 354/2/6 356/2/6
f 340/2/6 318/2/6 356/2/6
f 348/2/6 340/2/6 356/2/6
f 352/2/6 348/2/6 356/2/6
f 313/2/6 315/2/6 357/2/6
f 316/2/6 314/2/6 358/2/6
f 313/2/6 357/2/6 359/2/6
f 357/2/6 358/2/6 359/2/6
f 358/2/6 314/2/6 360/2/6
f 359/2/6 358/2/6 360/2/6
