# MagicaVoxel @ Ephtracy

# group
o 

# material
mtllib pajonk.mtl
usemtl palette

# normals
vn 0 0 1
vn 0 0 -1
vn 1 0 0
vn -1 0 0
vn 0 -1 0
vn 0 1 0

# texcoords
vt 0.841797 0.5
vt 0.904297 0.5
vt 0.986328 0.5

# verts
v 0.1 1.1 0.7
v 0 1.1 0.7
v -0.6 1.1 0.7
v -0.7 1.1 0.7
v 0.1 1.3 0.7
v 0 1.3 0.7
v -0.1 1.3 0.7
v -0.2 1.3 0.7
v -0.4 1.3 0.7
v -0.5 1.3 0.7
v -0.6 1.3 0.7
v -0.7 1.3 0.7
v -0.1 1.4 0.7
v -0.2 1.4 0.7
v -0.4 1.4 0.7
v -0.5 1.4 0.7
v 0 1.3 0.6
v -0.1 1.3 0.6
v -0.2 1.3 0.6
v -0.4 1.3 0.6
v -0.5 1.3 0.6
v -0.6 1.3 0.6
v 0 1.4 0.6
v -0.1 1.4 0.6
v -0.2 1.4 0.6
v -0.4 1.4 0.6
v -0.5 1.4 0.6
v -0.6 1.4 0.6
v -0.1 1.5 0.6
v -0.2 1.5 0.6
v -0.4 1.5 0.6
v -0.5 1.5 0.6
v -0.1 1.6 0.6
v -0.2 1.6 0.6
v -0.4 1.6 0.6
v -0.5 1.6 0.6
v 0.1 1.1 0.4
v 0 1.1 0.4
v -0.6 1.1 0.4
v -0.7 1.1 0.4
v 0.1 1.3 0.4
v 0 1.3 0.4
v -0.1 1.3 0.4
v -0.5 1.3 0.4
v -0.6 1.3 0.4
v -0.7 1.3 0.4
v 0 1.4 0.4
v -0.1 1.4 0.4
v -0.5 1.4 0.4
v -0.6 1.4 0.4
v -0.1 1.5 0.3
v -0.5 1.5 0.3
v -0.1 1.6 0.3
v -0.5 1.6 0.3
v 0.1 1.1 0.2
v 0 1.1 0.2
v -0.6 1.1 0.2
v -0.7 1.1 0.2
v 0.1 1.3 0.2
v 0 1.3 0.2
v -0.6 1.3 0.2
v -0.7 1.3 0.2
v 0 1.4 0.2
v -0.1 1.4 0.2
v -0.5 1.4 0.2
v -0.6 1.4 0.2
v 0 1.6 0.2
v -0.1 1.6 0.2
v -0.2 1.6 0.2
v -0.4 1.6 0.2
v -0.5 1.6 0.2
v -0.6 1.6 0.2
v -0.2 1.7 0.2
v -0.4 1.7 0.2
v 0 1.3 0.1
v -0.1 1.3 0.1
v -0.5 1.3 0.1
v -0.6 1.3 0.1
v 0 1.4 0.1
v -0.1 1.4 0.1
v -0.5 1.4 0.1
v -0.6 1.4 0.1
v -0.1 1.6 0.1
v -0.2 1.6 0.1
v -0.4 1.6 0.1
v -0.5 1.6 0.1
v -0.1 1.7 0.1
v -0.2 1.7 0.1
v -0.4 1.7 0.1
v -0.5 1.7 0.1
v 0.1 1.3 0
v 0 1.3 0
v -0.6 1.3 0
v -0.7 1.3 0
v 0.1 1.4 0
v 0 1.4 0
v -0.6 1.4 0
v -0.7 1.4 0
v 0.1 1.1 -0.1
v 0 1.1 -0.1
v -0.6 1.1 -0.1
v -0.7 1.1 -0.1
v 0.1 1.3 -0.1
v 0 1.3 -0.1
v -0.6 1.3 -0.1
v -0.7 1.3 -0.1
v 0.1 1.1 0.6
v 0 1.1 0.6
v -0.6 1.1 0.6
v -0.7 1.1 0.6
v 0.1 1.3 0.6
v 0 1.3 0.6
v -0.6 1.3 0.6
v -0.7 1.3 0.6
v 0 1.3 0.5
v -0.1 1.3 0.5
v -0.5 1.3 0.5
v -0.6 1.3 0.5
v 0 1.4 0.5
v -0.1 1.4 0.5
v -0.5 1.4 0.5
v -0.6 1.4 0.5
v -0.1 1.5 0.4
v -0.5 1.5 0.4
v -0.1 1.6 0.4
v -0.5 1.6 0.4
v 0.1 1.1 0.3
v 0 1.1 0.3
v -0.6 1.1 0.3
v -0.7 1.1 0.3
v 0.1 1.3 0.3
v 0 1.3 0.3
v -0.1 1.3 0.3
v -0.5 1.3 0.3
v -0.6 1.3 0.3
v -0.7 1.3 0.3
v 0 1.4 0.3
v -0.1 1.4 0.3
v -0.5 1.4 0.3
v -0.6 1.4 0.3
v 0.1 1.1 0.1
v 0 1.1 0.1
v -0.6 1.1 0.1
v -0.7 1.1 0.1
v 0.1 1.3 0.1
v 0 1.3 0.1
v -0.6 1.3 0.1
v -0.7 1.3 0.1
v 0.1 1.3 -0.1
v 0 1.3 -0.1
v -0.1 1.3 -0.1
v -0.5 1.3 -0.1
v -0.6 1.3 -0.1
v -0.7 1.3 -0.1
v 0.1 1.4 -0.1
v 0 1.4 -0.1
v -0.1 1.4 -0.1
v -0.5 1.4 -0.1
v -0.6 1.4 -0.1
v -0.7 1.4 -0.1
v 0.1 1.1 -0.2
v 0 1.1 -0.2
v -0.6 1.1 -0.2
v -0.7 1.1 -0.2
v 0.1 1.3 -0.2
v 0 1.3 -0.2
v -0.1 1.3 -0.2
v -0.5 1.3 -0.2
v -0.6 1.3 -0.2
v -0.7 1.3 -0.2
v 0 1.4 -0.2
v -0.1 1.4 -0.2
v -0.2 1.4 -0.2
v -0.4 1.4 -0.2
v -0.5 1.4 -0.2
v -0.6 1.4 -0.2
v 0 1.6 -0.2
v -0.1 1.6 -0.2
v -0.2 1.6 -0.2
v -0.4 1.6 -0.2
v -0.5 1.6 -0.2
v -0.6 1.6 -0.2
v -0.1 1.7 -0.2
v -0.2 1.7 -0.2
v -0.4 1.7 -0.2
v -0.5 1.7 -0.2
v -0.1 1.4 -0.3
v -0.2 1.4 -0.3
v -0.4 1.4 -0.3
v -0.5 1.4 -0.3
v -0.1 1.6 -0.3
v -0.2 1.6 -0.3
v -0.4 1.6 -0.3
v -0.5 1.6 -0.3
v 0.1 1.1 0.7
v 0.1 1.3 0.7
v 0.1 1.1 0.6
v 0.1 1.3 0.6
v 0.1 1.1 0.4
v 0.1 1.3 0.4
v 0.1 1.1 0.3
v 0.1 1.3 0.3
v 0.1 1.1 0.2
v 0.1 1.3 0.2
v 0.1 1.1 0.1
v 0.1 1.3 0.1
v 0.1 1.3 0
v 0.1 1.4 0
v 0.1 1.1 -0.1
v 0.1 1.3 -0.1
v 0.1 1.4 -0.1
v 0.1 1.1 -0.2
v 0.1 1.3 -0.2
v 0 1.3 0.6
v 0 1.4 0.6
v 0 1.3 0.5
v 0 1.4 0.5
v 0 1.3 0.4
v 0 1.4 0.4
v 0 1.3 0.3
v 0 1.4 0.3
v 0 1.4 0.2
v 0 1.6 0.2
v 0 1.3 0.1
v 0 1.4 0.1
v 0 1.3 0
v 0 1.4 0
v 0 1.4 -0.1
v 0 1.4 -0.2
v 0 1.6 -0.2
v -0.1 1.3 0.7
v -0.1 1.4 0.7
v -0.1 1.3 0.6
v -0.1 1.4 0.6
v -0.1 1.5 0.6
v -0.1 1.6 0.6
v -0.1 1.3 0.5
v -0.1 1.4 0.5
v -0.1 1.5 0.5
v -0.1 1.6 0.5
v -0.1 1.3 0.4
v -0.1 1.4 0.4
v -0.1 1.5 0.4
v -0.1 1.6 0.4
v -0.1 1.3 0.3
v -0.1 1.4 0.3
v -0.1 1.5 0.3
v -0.1 1.6 0.3
v -0.1 1.4 0.2
v -0.1 1.6 0.2
v -0.1 1.3 0.1
v -0.1 1.4 0.1
v -0.1 1.6 0.1
v -0.1 1.7 0.1
v -0.1 1.3 -0.1
v -0.1 1.4 -0.1
v -0.1 1.3 -0.2
v -0.1 1.4 -0.2
v -0.1 1.6 -0.2
v -0.1 1.7 -0.2
v -0.1 1.4 -0.3
v -0.1 1.6 -0.3
v -0.2 1.6 0.2
v -0.2 1.7 0.2
v -0.2 1.6 0.1
v -0.2 1.7 0.1
v -0.4 1.3 0.7
v -0.4 1.4 0.7
v -0.4 1.3 0.6
v -0.4 1.4 0.6
v -0.6 1.1 0.7
v -0.6 1.3 0.7
v -0.6 1.1 0.6
v -0.6 1.3 0.6
v -0.6 1.1 0.4
v -0.6 1.3 0.4
v -0.6 1.1 0.3
v -0.6 1.3 0.3
v -0.6 1.1 0.2
v -0.6 1.3 0.2
v -0.6 1.1 0.1
v -0.6 1.3 0.1
v -0.6 1.1 -0.1
v -0.6 1.3 -0.1
v -0.6 1.1 -0.2
v -0.6 1.3 -0.2
v 0 1.1 0.7
v 0 1.3 0.7
v 0 1.1 0.6
v 0 1.3 0.6
v 0 1.1 0.4
v 0 1.3 0.4
v 0 1.1 0.3
v 0 1.3 0.3
v 0 1.1 0.2
v 0 1.3 0.2
v 0 1.1 0.1
v 0 1.3 0.1
v 0 1.1 -0.1
v 0 1.3 -0.1
v 0 1.1 -0.2
v 0 1.3 -0.2
v -0.2 1.3 0.7
v -0.2 1.4 0.7
v -0.2 1.3 0.6
v -0.2 1.4 0.6
v -0.4 1.6 0.2
v -0.4 1.7 0.2
v -0.4 1.6 0.1
v -0.4 1.7 0.1
v -0.5 1.3 0.7
v -0.5 1.4 0.7
v -0.5 1.3 0.6
v -0.5 1.4 0.6
v -0.5 1.5 0.6
v -0.5 1.6 0.6
v -0.5 1.3 0.5
v -0.5 1.4 0.5
v -0.5 1.5 0.5
v -0.5 1.6 0.5
v -0.5 1.3 0.4
v -0.5 1.4 0.4
v -0.5 1.5 0.4
v -0.5 1.6 0.4
v -0.5 1.3 0.3
v -0.5 1.4 0.3
v -0.5 1.5 0.3
v -0.5 1.6 0.3
v -0.5 1.4 0.2
v -0.5 1.6 0.2
v -0.5 1.3 0.1
v -0.5 1.4 0.1
v -0.5 1.6 0.1
v -0.5 1.7 0.1
v -0.5 1.3 -0.1
v -0.5 1.4 -0.1
v -0.5 1.3 -0.2
v -0.5 1.4 -0.2
v -0.5 1.6 -0.2
v -0.5 1.7 -0.2
v -0.5 1.4 -0.3
v -0.5 1.6 -0.3
v -0.6 1.3 0.6
v -0.6 1.4 0.6
v -0.6 1.3 0.5
v -0.6 1.4 0.5
v -0.6 1.3 0.4
v -0.6 1.4 0.4
v -0.6 1.3 0.3
v -0.6 1.4 0.3
v -0.6 1.4 0.2
v -0.6 1.6 0.2
v -0.6 1.3 0.1
v -0.6 1.4 0.1
v -0.6 1.3 0
v -0.6 1.4 0
v -0.6 1.4 -0.1
v -0.6 1.4 -0.2
v -0.6 1.6 -0.2
v -0.7 1.1 0.7
v -0.7 1.3 0.7
v -0.7 1.1 0.6
v -0.7 1.3 0.6
v -0.7 1.1 0.4
v -0.7 1.3 0.4
v -0.7 1.1 0.3
v -0.7 1.3 0.3
v -0.7 1.1 0.2
v -0.7 1.3 0.2
v -0.7 1.1 0.1
v -0.7 1.3 0.1
v -0.7 1.3 0
v -0.7 1.4 0
v -0.7 1.1 -0.1
v -0.7 1.3 -0.1
v -0.7 1.4 -0.1
v -0.7 1.1 -0.2
v -0.7 1.3 -0.2
v 0.1 1.1 0.7
v 0.1 1.1 0.6
v 0.1 1.1 0.4
v 0.1 1.1 0.3
v 0.1 1.1 0.2
v 0.1 1.1 0.1
v 0.1 1.1 -0.1
v 0.1 1.1 -0.2
v 0 1.1 0.7
v 0 1.1 0.6
v 0 1.1 0.4
v 0 1.1 0.3
v 0 1.1 0.2
v 0 1.1 0.1
v 0 1.1 -0.1
v 0 1.1 -0.2
v -0.6 1.1 0.7
v -0.6 1.1 0.6
v -0.6 1.1 0.4
v -0.6 1.1 0.3
v -0.6 1.1 0.2
v -0.6 1.1 0.1
v -0.6 1.1 -0.1
v -0.6 1.1 -0.2
v -0.7 1.1 0.7
v -0.7 1.1 0.6
v -0.7 1.1 0.4
v -0.7 1.1 0.3
v -0.7 1.1 0.2
v -0.7 1.1 0.1
v -0.7 1.1 -0.1
v -0.7 1.1 -0.2
v 0.1 1.3 0
v 0.1 1.3 -0.1
v 0 1.3 0.6
v 0 1.3 0.5
v 0 1.3 0.4
v 0 1.3 0.3
v 0 1.3 0.1
v 0 1.3 0
v 0 1.3 -0.1
v -0.1 1.3 0.7
v -0.1 1.3 0.6
v -0.1 1.3 0.5
v -0.1 1.3 0.4
v -0.1 1.3 0.3
v -0.1 1.3 0.1
v -0.1 1.3 -0.1
v -0.1 1.3 -0.2
v -0.2 1.3 0.7
v -0.2 1.3 0.6
v -0.4 1.3 0.7
v -0.4 1.3 0.6
v -0.5 1.3 0.7
v -0.5 1.3 0.6
v -0.5 1.3 0.5
v -0.5 1.3 0.4
v -0.5 1.3 0.3
v -0.5 1.3 0.1
v -0.5 1.3 -0.1
v -0.5 1.3 -0.2
v -0.6 1.3 0.6
v -0.6 1.3 0.5
v -0.6 1.3 0.4
v -0.6 1.3 0.3
v -0.6 1.3 0.1
v -0.6 1.3 0
v -0.6 1.3 -0.1
v -0.7 1.3 0
v -0.7 1.3 -0.1
v 0 1.4 0.2
v 0 1.4 0.1
v 0 1.4 -0.1
v 0 1.4 -0.2
v -0.1 1.4 0.2
v -0.1 1.4 0.1
v -0.1 1.4 -0.1
v -0.1 1.4 -0.2
v -0.1 1.4 -0.3
v -0.2 1.4 -0.2
v -0.2 1.4 -0.3
v -0.4 1.4 -0.2
v -0.4 1.4 -0.3
v -0.5 1.4 0.2
v -0.5 1.4 0.1
v -0.5 1.4 -0.1
v -0.5 1.4 -0.2
v -0.5 1.4 -0.3
v -0.6 1.4 0.2
v -0.6 1.4 0.1
v -0.6 1.4 -0.1
v -0.6 1.4 -0.2
v 0.1 1.3 0.7
v 0.1 1.3 0.6
v 0.1 1.3 0.4
v 0.1 1.3 0.3
v 0.1 1.3 0.2
v 0.1 1.3 0.1
v 0.1 1.3 -0.1
v 0.1 1.3 -0.2
v 0 1.3 0.7
v 0 1.3 0.6
v 0 1.3 0.4
v 0 1.3 0.3
v 0 1.3 0.2
v 0 1.3 0.1
v 0 1.3 -0.1
v 0 1.3 -0.2
v -0.6 1.3 0.7
v -0.6 1.3 0.6
v -0.6 1.3 0.4
v -0.6 1.3 0.3
v -0.6 1.3 0.2
v -0.6 1.3 0.1
v -0.6 1.3 -0.1
v -0.6 1.3 -0.2
v -0.7 1.3 0.7
v -0.7 1.3 0.6
v -0.7 1.3 0.4
v -0.7 1.3 0.3
v -0.7 1.3 0.2
v -0.7 1.3 0.1
v -0.7 1.3 -0.1
v -0.7 1.3 -0.2
v 0.1 1.4 0
v 0.1 1.4 -0.1
v 0 1.4 0.6
v 0 1.4 0.5
v 0 1.4 0.4
v 0 1.4 0.3
v 0 1.4 0
v 0 1.4 -0.1
v -0.1 1.4 0.7
v -0.1 1.4 0.6
v -0.1 1.4 0.5
v -0.1 1.4 0.4
v -0.1 1.4 0.3
v -0.2 1.4 0.7
v -0.2 1.4 0.6
v -0.4 1.4 0.7
v -0.4 1.4 0.6
v -0.5 1.4 0.7
v -0.5 1.4 0.6
v -0.5 1.4 0.5
v -0.5 1.4 0.4
v -0.5 1.4 0.3
v -0.6 1.4 0.6
v -0.6 1.4 0.5
v -0.6 1.4 0.4
v -0.6 1.4 0.3
v -0.6 1.4 0
v -0.6 1.4 -0.1
v -0.7 1.4 0
v -0.7 1.4 -0.1
v -0.1 1.5 0.4
v -0.1 1.5 0.3
v -0.5 1.5 0.4
v -0.5 1.5 0.3
v 0 1.6 0.2
v 0 1.6 -0.2
v -0.1 1.6 0.6
v -0.1 1.6 0.5
v -0.1 1.6 0.4
v -0.1 1.6 0.3
v -0.1 1.6 0.2
v -0.1 1.6 0.1
v -0.1 1.6 -0.2
v -0.1 1.6 -0.3
v -0.2 1.6 0.6
v -0.2 1.6 0.5
v -0.2 1.6 0.2
v -0.2 1.6 0.1
v -0.2 1.6 -0.2
v -0.2 1.6 -0.3
v -0.4 1.6 0.6
v -0.4 1.6 0.5
v -0.4 1.6 0.2
v -0.4 1.6 0.1
v -0.4 1.6 -0.2
v -0.4 1.6 -0.3
v -0.5 1.6 0.6
v -0.5 1.6 0.5
v -0.5 1.6 0.4
v -0.5 1.6 0.3
v -0.5 1.6 0.2
v -0.5 1.6 0.1
v -0.5 1.6 -0.2
v -0.5 1.6 -0.3
v -0.6 1.6 0.2
v -0.6 1.6 -0.2
v -0.1 1.7 0.1
v -0.1 1.7 -0.2
v -0.2 1.7 0.2
v -0.2 1.7 0.1
v -0.2 1.7 -0.2
v -0.4 1.7 0.2
v -0.4 1.7 0.1
v -0.4 1.7 -0.2
v -0.5 1.7 0.1
v -0.5 1.7 -0.2

# faces
f 5/3/1 2/3/1 1/3/1
f 6/3/1 2/3/1 5/3/1
f 11/3/1 4/3/1 3/3/1
f 12/3/1 4/3/1 11/3/1
f 13/3/1 8/3/1 7/3/1
f 14/3/1 8/3/1 13/3/1
f 15/3/1 10/3/1 9/3/1
f 16/3/1 10/3/1 15/3/1
f 23/3/1 18/3/1 17/3/1
f 24/3/1 18/3/1 23/3/1
f 25/3/1 20/3/1 19/3/1
f 26/3/1 20/3/1 25/3/1
f 27/3/1 22/3/1 21/3/1
f 28/3/1 22/3/1 27/3/1
f 29/3/1 26/3/1 25/3/1
f 29/3/1 27/3/1 26/3/1
f 29/3/1 25/3/1 24/3/1
f 30/3/1 27/3/1 29/3/1
f 31/3/1 27/3/1 30/3/1
f 32/3/1 27/3/1 31/3/1
f 33/1/1 30/1/1 29/1/1
f 34/3/1 31/3/1 30/3/1
f 34/1/1 30/1/1 33/1/1
f 35/1/1 32/1/1 31/1/1
f 35/3/1 31/3/1 34/3/1
f 36/1/1 32/1/1 35/1/1
f 41/3/1 38/3/1 37/3/1
f 42/3/1 38/3/1 41/3/1
f 45/3/1 40/3/1 39/3/1
f 46/3/1 40/3/1 45/3/1
f 47/3/1 43/3/1 42/3/1
f 48/3/1 43/3/1 47/3/1
f 49/3/1 45/3/1 44/3/1
f 50/3/1 45/3/1 49/3/1
f 53/3/1 52/3/1 51/3/1
f 54/3/1 52/3/1 53/3/1
f 59/3/1 56/3/1 55/3/1
f 60/3/1 56/3/1 59/3/1
f 61/3/1 58/3/1 57/3/1
f 62/3/1 58/3/1 61/3/1
f 67/3/1 64/3/1 63/3/1
f 68/3/1 64/3/1 67/3/1
f 71/3/1 66/3/1 65/3/1
f 72/3/1 66/3/1 71/3/1
f 73/3/1 70/3/1 69/3/1
f 74/3/1 70/3/1 73/3/1
f 79/3/1 76/3/1 75/3/1
f 80/3/1 76/3/1 79/3/1
f 81/3/1 78/3/1 77/3/1
f 82/3/1 78/3/1 81/3/1
f 87/2/1 84/2/1 83/2/1
f 88/2/1 84/2/1 87/2/1
f 89/2/1 86/2/1 85/2/1
f 90/2/1 86/2/1 89/2/1
f 95/3/1 92/3/1 91/3/1
f 96/3/1 92/3/1 95/3/1
f 97/3/1 94/3/1 93/3/1
f 98/3/1 94/3/1 97/3/1
f 103/3/1 100/3/1 99/3/1
f 104/3/1 100/3/1 103/3/1
f 105/3/1 102/3/1 101/3/1
f 106/3/1 102/3/1 105/3/1
f 107/3/2 108/3/2 111/3/2
f 111/3/2 108/3/2 112/3/2
f 109/3/2 110/3/2 113/3/2
f 113/3/2 110/3/2 114/3/2
f 115/3/2 116/3/2 119/3/2
f 119/3/2 116/3/2 120/3/2
f 117/3/2 118/3/2 121/3/2
f 121/3/2 118/3/2 122/3/2
f 123/3/2 124/3/2 125/3/2
f 125/3/2 124/3/2 126/3/2
f 127/3/2 128/3/2 131/3/2
f 131/3/2 128/3/2 132/3/2
f 129/3/2 130/3/2 135/3/2
f 135/3/2 130/3/2 136/3/2
f 132/3/2 133/3/2 137/3/2
f 137/3/2 133/3/2 138/3/2
f 134/3/2 135/3/2 139/3/2
f 139/3/2 135/3/2 140/3/2
f 141/3/2 142/3/2 145/3/2
f 145/3/2 142/3/2 146/3/2
f 143/3/2 144/3/2 147/3/2
f 147/3/2 144/3/2 148/3/2
f 149/3/2 150/3/2 155/3/2
f 150/3/2 151/3/2 155/3/2
f 155/3/2 151/3/2 156/3/2
f 156/3/2 151/3/2 157/3/2
f 153/3/2 154/3/2 158/3/2
f 152/3/2 153/3/2 158/3/2
f 158/3/2 154/3/2 159/3/2
f 159/3/2 154/3/2 160/3/2
f 161/3/2 162/3/2 165/3/2
f 165/3/2 162/3/2 166/3/2
f 163/3/2 164/3/2 169/3/2
f 169/3/2 164/3/2 170/3/2
f 167/3/2 168/3/2 172/3/2
f 172/3/2 168/3/2 173/3/2
f 173/3/2 168/3/2 174/3/2
f 174/3/2 168/3/2 175/3/2
f 171/3/2 172/3/2 177/3/2
f 177/3/2 172/3/2 178/3/2
f 175/3/2 176/3/2 181/3/2
f 181/3/2 176/3/2 182/3/2
f 178/2/2 179/2/2 183/2/2
f 179/3/2 180/3/2 184/3/2
f 183/2/2 179/2/2 184/2/2
f 180/2/2 181/2/2 185/2/2
f 184/3/2 180/3/2 185/3/2
f 185/2/2 181/2/2 186/2/2
f 187/2/2 188/2/2 191/2/2
f 188/3/2 189/3/2 192/3/2
f 191/2/2 188/2/2 192/2/2
f 189/2/2 190/2/2 193/2/2
f 192/3/2 189/3/2 193/3/2
f 193/2/2 190/2/2 194/2/2
f 197/3/3 196/3/3 195/3/3
f 198/3/3 196/3/3 197/3/3
f 201/3/3 200/3/3 199/3/3
f 202/3/3 200/3/3 201/3/3
f 205/3/3 204/3/3 203/3/3
f 206/3/3 204/3/3 205/3/3
f 210/3/3 208/3/3 207/3/3
f 211/3/3 208/3/3 210/3/3
f 212/3/3 210/3/3 209/3/3
f 213/3/3 210/3/3 212/3/3
f 216/3/3 215/3/3 214/3/3
f 217/3/3 215/3/3 216/3/3
f 220/3/3 219/3/3 218/3/3
f 221/3/3 219/3/3 220/3/3
f 225/3/3 223/3/3 222/3/3
f 226/3/3 225/3/3 224/3/3
f 227/3/3 223/3/3 225/3/3
f 227/3/3 225/3/3 226/3/3
f 228/3/3 223/3/3 227/3/3
f 229/3/3 223/3/3 228/3/3
f 230/3/3 223/3/3 229/3/3
f 233/3/3 232/3/3 231/3/3
f 234/3/3 232/3/3 233/3/3
f 238/3/3 235/3/3 234/3/3
f 239/1/3 236/1/3 235/1/3
f 239/3/3 235/3/3 238/3/3
f 240/1/3 236/1/3 239/1/3
f 241/3/3 238/3/3 237/3/3
f 241/3/3 239/3/3 238/3/3
f 241/3/3 240/3/3 239/3/3
f 242/3/3 240/3/3 241/3/3
f 243/3/3 240/3/3 242/3/3
f 244/3/3 240/3/3 243/3/3
f 246/3/3 243/3/3 242/3/3
f 247/3/3 243/3/3 246/3/3
f 249/3/3 246/3/3 245/3/3
f 249/3/3 248/3/3 247/3/3
f 249/3/3 247/3/3 246/3/3
f 250/3/3 248/3/3 249/3/3
f 251/3/3 249/3/3 245/3/3
f 252/3/3 249/3/3 251/3/3
f 257/3/3 256/3/3 255/3/3
f 258/3/3 256/3/3 257/3/3
f 259/2/3 254/2/3 253/2/3
f 260/2/3 254/2/3 259/2/3
f 261/2/3 259/2/3 258/2/3
f 262/2/3 259/2/3 261/2/3
f 265/3/3 264/3/3 263/3/3
f 266/3/3 264/3/3 265/3/3
f 269/3/3 268/3/3 267/3/3
f 270/3/3 268/3/3 269/3/3
f 273/3/3 272/3/3 271/3/3
f 274/3/3 272/3/3 273/3/3
f 277/3/3 276/3/3 275/3/3
f 278/3/3 276/3/3 277/3/3
f 281/3/3 280/3/3 279/3/3
f 282/3/3 280/3/3 281/3/3
f 285/3/3 284/3/3 283/3/3
f 286/3/3 284/3/3 285/3/3
f 287/3/4 288/3/4 289/3/4
f 289/3/4 288/3/4 290/3/4
f 291/3/4 292/3/4 293/3/4
f 293/3/4 292/3/4 294/3/4
f 295/3/4 296/3/4 297/3/4
f 297/3/4 296/3/4 298/3/4
f 299/3/4 300/3/4 301/3/4
f 301/3/4 300/3/4 302/3/4
f 303/3/4 304/3/4 305/3/4
f 305/3/4 304/3/4 306/3/4
f 307/3/4 308/3/4 309/3/4
f 309/3/4 308/3/4 310/3/4
f 311/3/4 312/3/4 313/3/4
f 313/3/4 312/3/4 314/3/4
f 314/3/4 315/3/4 318/3/4
f 315/1/4 316/1/4 319/1/4
f 318/3/4 315/3/4 319/3/4
f 319/1/4 316/1/4 320/1/4
f 317/3/4 318/3/4 321/3/4
f 318/3/4 319/3/4 321/3/4
f 319/3/4 320/3/4 321/3/4
f 321/3/4 320/3/4 322/3/4
f 322/3/4 320/3/4 323/3/4
f 323/3/4 320/3/4 324/3/4
f 322/3/4 323/3/4 326/3/4
f 326/3/4 323/3/4 327/3/4
f 325/3/4 326/3/4 329/3/4
f 327/3/4 328/3/4 329/3/4
f 326/3/4 327/3/4 329/3/4
f 329/3/4 328/3/4 330/3/4
f 325/3/4 329/3/4 331/3/4
f 331/3/4 329/3/4 332/3/4
f 335/3/4 336/3/4 337/3/4
f 337/3/4 336/3/4 338/3/4
f 333/2/4 334/2/4 339/2/4
f 339/2/4 334/2/4 340/2/4
f 338/2/4 339/2/4 341/2/4
f 341/2/4 339/2/4 342/2/4
f 343/3/4 344/3/4 345/3/4
f 345/3/4 344/3/4 346/3/4
f 347/3/4 348/3/4 349/3/4
f 349/3/4 348/3/4 350/3/4
f 351/3/4 352/3/4 354/3/4
f 353/3/4 354/3/4 355/3/4
f 354/3/4 352/3/4 356/3/4
f 355/3/4 354/3/4 356/3/4
f 356/3/4 352/3/4 357/3/4
f 357/3/4 352/3/4 358/3/4
f 358/3/4 352/3/4 359/3/4
f 360/3/4 361/3/4 362/3/4
f 362/3/4 361/3/4 363/3/4
f 364/3/4 365/3/4 366/3/4
f 366/3/4 365/3/4 367/3/4
f 368/3/4 369/3/4 370/3/4
f 370/3/4 369/3/4 371/3/4
f 372/3/4 373/3/4 375/3/4
f 375/3/4 373/3/4 376/3/4
f 374/3/4 375/3/4 377/3/4
f 377/3/4 375/3/4 378/3/4
f 387/3/5 380/3/5 379/3/5
f 388/3/5 380/3/5 387/3/5
f 389/3/5 382/3/5 381/3/5
f 390/3/5 382/3/5 389/3/5
f 391/3/5 384/3/5 383/3/5
f 392/3/5 384/3/5 391/3/5
f 393/3/5 386/3/5 385/3/5
f 394/3/5 386/3/5 393/3/5
f 403/3/5 396/3/5 395/3/5
f 404/3/5 396/3/5 403/3/5
f 405/3/5 398/3/5 397/3/5
f 406/3/5 398/3/5 405/3/5
f 407/3/5 400/3/5 399/3/5
f 408/3/5 400/3/5 407/3/5
f 409/3/5 402/3/5 401/3/5
f 410/3/5 402/3/5 409/3/5
f 418/3/5 412/3/5 411/3/5
f 419/3/5 412/3/5 418/3/5
f 421/3/5 414/3/5 413/3/5
f 422/3/5 414/3/5 421/3/5
f 423/3/5 416/3/5 415/3/5
f 424/3/5 416/3/5 423/3/5
f 425/3/5 418/3/5 417/3/5
f 425/3/5 419/3/5 418/3/5
f 426/3/5 419/3/5 425/3/5
f 428/3/5 422/3/5 421/3/5
f 428/3/5 427/3/5 426/3/5
f 428/3/5 425/3/5 424/3/5
f 428/3/5 426/3/5 425/3/5
f 428/3/5 424/3/5 423/3/5
f 428/3/5 421/3/5 420/3/5
f 428/3/5 423/3/5 422/3/5
f 429/3/5 427/3/5 428/3/5
f 431/3/5 427/3/5 429/3/5
f 432/3/5 431/3/5 430/3/5
f 433/3/5 427/3/5 431/3/5
f 433/3/5 431/3/5 432/3/5
f 434/3/5 427/3/5 433/3/5
f 435/3/5 427/3/5 434/3/5
f 436/3/5 427/3/5 435/3/5
f 437/3/5 427/3/5 436/3/5
f 438/3/5 427/3/5 437/3/5
f 439/3/5 427/3/5 438/3/5
f 440/3/5 434/3/5 433/3/5
f 441/3/5 434/3/5 440/3/5
f 442/3/5 436/3/5 435/3/5
f 443/3/5 436/3/5 442/3/5
f 444/3/5 438/3/5 437/3/5
f 445/3/5 438/3/5 444/3/5
f 446/3/5 438/3/5 445/3/5
f 447/3/5 446/3/5 445/3/5
f 448/3/5 446/3/5 447/3/5
f 453/3/5 450/3/5 449/3/5
f 454/3/5 450/3/5 453/3/5
f 455/3/5 452/3/5 451/3/5
f 456/3/5 452/3/5 455/3/5
f 458/2/5 457/2/5 456/2/5
f 459/2/5 457/2/5 458/2/5
f 460/3/5 459/3/5 458/3/5
f 461/3/5 459/3/5 460/3/5
f 465/2/5 461/2/5 460/2/5
f 466/2/5 461/2/5 465/2/5
f 467/3/5 463/3/5 462/3/5
f 468/3/5 463/3/5 467/3/5
f 469/3/5 465/3/5 464/3/5
f 470/3/5 465/3/5 469/3/5
f 471/3/6 472/3/6 479/3/6
f 479/3/6 472/3/6 480/3/6
f 473/3/6 474/3/6 481/3/6
f 481/3/6 474/3/6 482/3/6
f 475/3/6 476/3/6 483/3/6
f 483/3/6 476/3/6 484/3/6
f 477/3/6 478/3/6 485/3/6
f 485/3/6 478/3/6 486/3/6
f 487/3/6 488/3/6 495/3/6
f 495/3/6 488/3/6 496/3/6
f 489/3/6 490/3/6 497/3/6
f 497/3/6 490/3/6 498/3/6
f 491/3/6 492/3/6 499/3/6
f 499/3/6 492/3/6 500/3/6
f 493/3/6 494/3/6 501/3/6
f 501/3/6 494/3/6 502/3/6
f 503/3/6 504/3/6 509/3/6
f 509/3/6 504/3/6 510/3/6
f 505/3/6 506/3/6 512/3/6
f 512/3/6 506/3/6 513/3/6
f 507/3/6 508/3/6 514/3/6
f 514/3/6 508/3/6 515/3/6
f 511/3/6 512/3/6 516/3/6
f 516/3/6 512/3/6 517/3/6
f 518/3/6 519/3/6 520/3/6
f 520/3/6 519/3/6 521/3/6
f 521/3/6 522/3/6 525/3/6
f 525/3/6 522/3/6 526/3/6
f 523/3/6 524/3/6 527/3/6
f 527/3/6 524/3/6 528/3/6
f 529/3/6 530/3/6 531/3/6
f 531/3/6 530/3/6 532/3/6
f 533/3/6 534/3/6 535/3/6
f 535/3/6 534/3/6 536/3/6
f 537/3/6 538/3/6 543/3/6
f 543/3/6 538/3/6 544/3/6
f 544/3/6 538/3/6 545/3/6
f 539/1/6 540/1/6 547/1/6
f 540/3/6 541/3/6 548/3/6
f 547/1/6 540/1/6 548/1/6
f 542/3/6 543/3/6 549/3/6
f 543/2/6 544/2/6 549/2/6
f 549/2/6 544/2/6 550/2/6
f 545/2/6 546/2/6 551/2/6
f 551/2/6 546/2/6 552/2/6
f 547/3/6 548/3/6 553/3/6
f 548/3/6 541/3/6 554/3/6
f 553/3/6 548/3/6 554/3/6
f 542/3/6 549/3/6 555/3/6
f 551/3/6 552/3/6 557/3/6
f 557/3/6 552/3/6 558/3/6
f 553/1/6 554/1/6 559/1/6
f 554/3/6 541/3/6 560/3/6
f 559/1/6 554/1/6 560/1/6
f 560/3/6 541/3/6 561/3/6
f 542/3/6 555/3/6 562/3/6
f 555/2/6 556/2/6 563/2/6
f 562/3/6 555/3/6 563/3/6
f 563/2/6 556/2/6 564/2/6
f 557/2/6 558/2/6 565/2/6
f 565/2/6 558/2/6 566/2/6
f 563/3/6 564/3/6 567/3/6
f 564/3/6 565/3/6 567/3/6
f 567/3/6 565/3/6 568/3/6
f 569/2/6 570/2/6 572/2/6
f 572/2/6 570/2/6 573/2/6
f 571/3/6 572/3/6 574/3/6
f 572/3/6 573/3/6 574/3/6
f 574/3/6 573/3/6 575/3/6
f 575/3/6 573/3/6 576/3/6
f 575/2/6 576/2/6 577/2/6
f 577/2/6 576/2/6 578/2/6
